<svg width="114" height="17" viewBox="0 0 114 17" fill="none" xmlns="http://www.w3.org/2000/svg">
<path d="M0.0421839 15.172C0.0421839 14.9573 0.111184 14.7657 0.249184 14.597C0.402517 14.413 0.563517 14.2367 0.732184 14.068C0.916184 13.884 1.07718 13.7 1.21518 13.516C1.36852 13.3167 1.44518 13.0867 1.44518 12.826V3.557C1.44518 3.31167 1.36852 3.097 1.21518 2.913C1.07718 2.729 0.916184 2.55267 0.732184 2.384C0.563517 2.2 0.402517 2.016 0.249184 1.832C0.111184 1.648 0.0421839 1.441 0.0421839 1.211C0.0421839 0.965666 0.126517 0.766333 0.295184 0.612999C0.463851 0.444333 0.663184 0.36 0.893184 0.36L7.03418 0.336999C8.10752 0.336999 9.04285 0.459666 9.84018 0.705C10.6529 0.934999 11.3199 1.24933 11.8412 1.648C12.3779 2.03133 12.7765 2.476 13.0372 2.982C13.3132 3.488 13.4512 4.017 13.4512 4.569C13.4512 5.259 13.2825 5.903 12.9452 6.501C12.6232 7.08367 12.0712 7.57433 11.2892 7.973C12.3012 8.341 13.0142 8.85467 13.4282 9.514C13.8575 10.1733 14.0722 10.8863 14.0722 11.653C14.0722 12.205 13.9342 12.7493 13.6582 13.286C13.3975 13.8073 12.9989 14.275 12.4622 14.689C11.9409 15.0877 11.2739 15.4097 10.4612 15.655C9.66385 15.9003 8.72852 16.023 7.65518 16.023H0.893184C0.663184 16.023 0.463851 15.9463 0.295184 15.793C0.126517 15.6243 0.0421839 15.4173 0.0421839 15.172ZM5.60818 7.444H7.26418C7.73952 7.444 8.13052 7.31367 8.43718 7.053C8.75918 6.79233 8.99685 6.47033 9.15018 6.087C9.31885 5.68833 9.40318 5.259 9.40318 4.799C9.41852 4.339 9.34185 3.91733 9.17318 3.534C9.01985 3.13533 8.78218 2.80567 8.46018 2.545C8.15352 2.269 7.76252 2.131 7.28718 2.131H6.25218C6.08352 2.131 5.93018 2.2 5.79218 2.338C5.66952 2.46067 5.60818 2.60633 5.60818 2.775V3.81V3.787V7.444ZM5.60818 13.815C5.62352 13.953 5.67718 14.068 5.76918 14.16C5.87652 14.252 5.99918 14.298 6.13718 14.298H7.90818C8.38352 14.298 8.77452 14.16 9.08118 13.884C9.40318 13.608 9.64085 13.2707 9.79418 12.872C9.96285 12.458 10.0395 12.0133 10.0242 11.538C10.0242 11.0627 9.93985 10.6257 9.77118 10.227C9.61785 9.813 9.38018 9.468 9.05818 9.192C8.75152 8.916 8.36052 8.778 7.88518 8.778H5.60818V13.815ZM19.6472 5.466C19.9232 5.20533 20.2758 4.96767 20.7052 4.753C21.1345 4.523 21.6558 4.408 22.2692 4.408C22.8365 4.408 23.3195 4.5 23.7182 4.684C24.1322 4.868 24.4772 5.098 24.7532 5.374C25.0292 5.63467 25.2362 5.91067 25.3742 6.202C25.5275 6.49333 25.6272 6.754 25.6732 6.984C25.6885 7.01467 25.6962 7.04533 25.6962 7.076C25.6962 7.10667 25.6962 7.13733 25.6962 7.168C25.7115 7.19867 25.7192 7.22933 25.7192 7.26V7.398C25.7192 7.93467 25.5352 8.39467 25.1672 8.778C24.8145 9.146 24.3775 9.33 23.8562 9.33C23.4115 9.33 23.0512 9.25333 22.7752 9.1C22.5145 8.93133 22.2998 8.732 22.1312 8.502C21.9778 8.272 21.8475 8.019 21.7402 7.743C21.6482 7.45167 21.5485 7.191 21.4412 6.961C21.3492 6.731 21.2342 6.53933 21.0962 6.386C20.9582 6.21733 20.7588 6.133 20.4982 6.133C20.1762 6.133 19.9538 6.30933 19.8312 6.662C19.7085 7.01467 19.6472 7.513 19.6472 8.157V12.78C19.6472 13.148 19.7162 13.4393 19.8542 13.654C19.9922 13.8533 20.1455 14.0297 20.3142 14.183C20.4828 14.321 20.6362 14.459 20.7742 14.597C20.9275 14.7197 21.0118 14.8807 21.0272 15.08C21.0578 15.3407 20.9735 15.563 20.7742 15.747C20.5902 15.9157 20.3678 16 20.1072 16H15.4842C15.2388 16 15.0165 15.9157 14.8172 15.747C14.6332 15.5783 14.5412 15.379 14.5412 15.149C14.5412 14.9343 14.6102 14.7427 14.7482 14.574C14.9015 14.39 15.0625 14.2137 15.2312 14.045C15.3998 13.861 15.5532 13.6693 15.6912 13.47C15.8445 13.2707 15.9212 13.0407 15.9212 12.78V8.525C15.9212 8.27967 15.8445 8.065 15.6912 7.881C15.5532 7.697 15.3998 7.52067 15.2312 7.352C15.0625 7.168 14.9015 6.984 14.7482 6.8C14.6102 6.616 14.5412 6.409 14.5412 6.179C14.5412 5.949 14.6255 5.77267 14.7942 5.65C14.9628 5.512 15.1622 5.40467 15.3922 5.328L18.9112 4.431C19.0952 4.385 19.2638 4.42333 19.4172 4.546C19.5705 4.65333 19.6472 4.80667 19.6472 5.006V5.466ZM36.9516 7.789C36.9516 8.27967 36.8213 8.77033 36.5606 9.261C36.3153 9.73633 35.9243 10.1733 35.3876 10.572C34.8663 10.9707 34.2069 11.308 33.4096 11.584C32.6123 11.86 31.6769 12.0287 30.6036 12.09C30.9256 12.642 31.3473 13.0943 31.8686 13.447C32.4053 13.7997 33.0416 13.976 33.7776 13.976C34.2223 13.976 34.6209 13.9147 34.9736 13.792C35.3263 13.6693 35.6329 13.5313 35.8936 13.378C36.1849 13.2093 36.4533 13.01 36.6986 12.78C36.7906 12.7187 36.8826 12.7263 36.9746 12.803C37.0666 12.8643 37.0973 12.9487 37.0666 13.056C36.8059 13.654 36.4609 14.183 36.0316 14.643C35.6636 15.0417 35.1729 15.402 34.5596 15.724C33.9463 16.046 33.1873 16.207 32.2826 16.207C30.9486 16.207 29.8293 15.9157 28.9246 15.333C28.0199 14.7503 27.3376 14.022 26.8776 13.148C26.4176 12.274 26.1876 11.331 26.1876 10.319C26.2029 9.29167 26.4406 8.341 26.9006 7.467C27.3606 6.593 28.0583 5.86467 28.9936 5.282C29.9289 4.69933 31.1096 4.408 32.5356 4.408C33.9769 4.408 35.0733 4.71467 35.8246 5.328C36.5759 5.94133 36.9516 6.76167 36.9516 7.789ZM30.2126 11.239C30.9333 11.1623 31.5236 10.963 31.9836 10.641C32.4589 10.3037 32.8193 9.91267 33.0646 9.468C33.3099 9.008 33.4479 8.54033 33.4786 8.065C33.5093 7.57433 33.4479 7.13733 33.2946 6.754C33.1566 6.37067 32.9266 6.07933 32.6046 5.88C32.2979 5.68067 31.9223 5.63467 31.4776 5.742C31.0636 5.84933 30.7263 6.09467 30.4656 6.478C30.2049 6.846 30.0209 7.29067 29.9136 7.812C29.8063 8.33333 29.7756 8.90067 29.8216 9.514C29.8676 10.112 29.9979 10.687 30.2126 11.239ZM41.9121 4.431C42.0961 4.385 42.2647 4.42333 42.4181 4.546C42.5714 4.65333 42.6481 4.80667 42.6481 5.006V5.765C42.7707 5.627 42.9317 5.48133 43.1311 5.328C43.3457 5.15933 43.5987 5.01367 43.8901 4.891C44.1814 4.753 44.5187 4.638 44.9021 4.546C45.2854 4.454 45.7301 4.408 46.2361 4.408C46.6961 4.408 47.1407 4.49233 47.5701 4.661C48.0147 4.81433 48.3981 5.029 48.7201 5.305C49.0574 5.581 49.3257 5.91067 49.5251 6.294C49.7397 6.67733 49.8471 7.099 49.8471 7.559V12.78C49.8471 13.148 49.9161 13.4393 50.0541 13.654C50.2074 13.8687 50.3684 14.0527 50.5371 14.206C50.7211 14.344 50.8821 14.482 51.0201 14.62C51.1734 14.758 51.2501 14.9343 51.2501 15.149C51.2501 15.379 51.1657 15.5783 50.9971 15.747C50.8284 15.9157 50.6291 16 50.3991 16H45.5921C45.3621 16 45.1627 15.9157 44.9941 15.747C44.8254 15.5783 44.7411 15.379 44.7411 15.149C44.7411 14.9343 44.8101 14.7427 44.9481 14.574C45.1014 14.39 45.2624 14.2137 45.4311 14.045C45.6151 13.861 45.7761 13.6693 45.9141 13.47C46.0674 13.2707 46.1441 13.0407 46.1441 12.78V10.227C46.1441 9.721 46.1364 9.22267 46.1211 8.732C46.1211 8.24133 46.0827 7.80433 46.0061 7.421C45.9294 7.03767 45.7991 6.731 45.6151 6.501C45.4464 6.25567 45.1781 6.133 44.8101 6.133C44.4574 6.133 44.1431 6.23267 43.8671 6.432C43.6064 6.616 43.3841 6.823 43.2001 7.053C43.0314 7.283 42.9011 7.50533 42.8091 7.72C42.7171 7.91933 42.6634 8.03433 42.6481 8.065V12.78C42.6481 13.148 42.7171 13.4393 42.8551 13.654C42.9931 13.8533 43.1464 14.0297 43.3151 14.183C43.4991 14.321 43.6601 14.459 43.7981 14.597C43.9514 14.7197 44.0357 14.8807 44.0511 15.08C44.0664 15.3407 43.9744 15.563 43.7751 15.747C43.5911 15.9157 43.3687 16 43.1081 16H38.4851C38.2397 16 38.0174 15.9157 37.8181 15.747C37.6341 15.5783 37.5421 15.379 37.5421 15.149C37.5421 14.9343 37.6111 14.7427 37.7491 14.574C37.9024 14.39 38.0634 14.2137 38.2321 14.045C38.4161 13.861 38.5771 13.6693 38.7151 13.47C38.8684 13.2707 38.9451 13.0407 38.9451 12.78V8.525C38.9451 8.27967 38.8684 8.065 38.7151 7.881C38.5771 7.697 38.4161 7.52067 38.2321 7.352C38.0634 7.168 37.9024 6.984 37.7491 6.8C37.6111 6.616 37.5421 6.409 37.5421 6.179C37.5421 5.949 37.6264 5.77267 37.7951 5.65C37.9637 5.512 38.1631 5.40467 38.3931 5.328L41.9121 4.431ZM50.9651 5.834C50.8271 5.834 50.7044 5.788 50.5971 5.696C50.5051 5.58867 50.4591 5.466 50.4591 5.328V5.144C50.4591 5.006 50.5051 4.891 50.5971 4.799C50.7044 4.69167 50.8271 4.638 50.9651 4.638H52.1611C52.6824 4.62267 53.0734 4.454 53.3341 4.132C53.6101 3.81 53.8248 3.45733 53.9781 3.074C54.1468 2.69067 54.3078 2.338 54.4611 2.016C54.6144 1.694 54.8368 1.533 55.1281 1.533C55.2968 1.533 55.4271 1.57133 55.5191 1.648C55.6264 1.70933 55.7031 1.79367 55.7491 1.901C55.8104 2.00833 55.8488 2.12333 55.8641 2.246C55.8794 2.36867 55.8871 2.476 55.8871 2.568V4.638H57.7731C57.9111 4.638 58.0261 4.69167 58.1181 4.799C58.2254 4.891 58.2791 5.006 58.2791 5.144V5.328C58.2791 5.466 58.2254 5.58867 58.1181 5.696C58.0261 5.788 57.9111 5.834 57.7731 5.834H55.8871V12.159C55.8871 12.5577 55.9484 12.872 56.0711 13.102C56.1938 13.3167 56.3394 13.4777 56.5081 13.585C56.6921 13.6923 56.8761 13.7537 57.0601 13.769C57.2594 13.7843 57.4281 13.7843 57.5661 13.769C57.6428 13.7537 57.7118 13.7767 57.7731 13.838C57.8344 13.8993 57.8574 13.9683 57.8421 14.045C57.7654 14.4437 57.5738 14.7963 57.2671 15.103C56.9604 15.4097 56.5924 15.6473 56.1631 15.816C55.7491 15.9693 55.3044 16.0383 54.8291 16.023C54.3691 16.023 53.9398 15.9157 53.5411 15.701C53.1578 15.471 52.8358 15.1183 52.5751 14.643C52.3144 14.1677 52.1841 13.5467 52.1841 12.78V5.834H50.9651ZM77.267 5.489C77.267 5.70367 77.1904 5.88767 77.037 6.041C76.899 6.19433 76.7304 6.37067 76.531 6.57C76.3317 6.754 76.1247 6.984 75.91 7.26C75.7107 7.536 75.542 7.89633 75.404 8.341L73.449 15.333C73.3877 15.5323 73.2727 15.6933 73.104 15.816C72.9507 15.9387 72.7744 16 72.575 16H70.229C70.0297 16 69.8457 15.9387 69.677 15.816C69.5237 15.6933 69.4164 15.5323 69.355 15.333L67.837 10.204L66.411 15.333C66.3497 15.5323 66.2424 15.6933 66.089 15.816C65.9357 15.9387 65.7517 16 65.537 16H63.191C62.9917 16 62.8077 15.9387 62.639 15.816C62.4857 15.6933 62.386 15.5323 62.34 15.333L60.477 9.123C60.339 8.60167 60.155 8.18 59.925 7.858C59.7104 7.536 59.4957 7.26 59.281 7.03C59.0664 6.78467 58.8824 6.55467 58.729 6.34C58.5757 6.11 58.499 5.82633 58.499 5.489C58.499 5.27433 58.5604 5.098 58.683 4.96C58.8057 4.80667 58.9667 4.707 59.166 4.661L63.674 4.638C63.9194 4.638 64.1187 4.72233 64.272 4.891C64.4407 5.04433 64.525 5.24367 64.525 5.489C64.525 5.79567 64.4714 6.04867 64.364 6.248C64.272 6.44733 64.18 6.65433 64.088 6.869C63.996 7.08367 63.927 7.329 63.881 7.605C63.8504 7.881 63.8964 8.249 64.019 8.709L65.445 13.47L67.837 5.098C67.9137 4.79133 68.1207 4.638 68.458 4.638H69.378C69.6847 4.638 69.8917 4.79133 69.999 5.098L72.483 13.47L73.679 9.261C73.863 8.64767 73.932 8.14933 73.886 7.766C73.84 7.38267 73.748 7.06067 73.61 6.8C73.472 6.524 73.334 6.294 73.196 6.11C73.058 5.91067 72.989 5.70367 72.989 5.489C72.989 5.24367 73.0657 5.04433 73.219 4.891C73.3877 4.72233 73.5947 4.638 73.84 4.638H76.416C76.6614 4.638 76.8607 4.72233 77.014 4.891C77.1827 5.04433 77.267 5.24367 77.267 5.489ZM88.564 10.319C88.564 11.1317 88.4106 11.8983 88.104 12.619C87.8126 13.3243 87.4063 13.9453 86.885 14.482C86.3636 15.0033 85.7503 15.425 85.045 15.747C84.355 16.0537 83.6113 16.207 82.814 16.207C82.0166 16.207 81.2653 16.0537 80.56 15.747C79.87 15.4403 79.2643 15.0263 78.743 14.505C78.2216 13.9683 77.8076 13.3473 77.501 12.642C77.1943 11.9213 77.041 11.147 77.041 10.319C77.041 9.46033 77.1943 8.67067 77.501 7.95C77.8076 7.214 78.2216 6.58533 78.743 6.064C79.2643 5.54267 79.87 5.13633 80.56 4.845C81.2653 4.55367 82.0166 4.408 82.814 4.408C83.6113 4.408 84.355 4.55367 85.045 4.845C85.7503 5.13633 86.3636 5.54267 86.885 6.064C87.4063 6.58533 87.8126 7.214 88.104 7.95C88.4106 8.67067 88.564 9.46033 88.564 10.319ZM83.297 14.873C83.5423 14.873 83.7646 14.7963 83.964 14.643C84.1786 14.4743 84.3473 14.206 84.47 13.838C84.608 13.47 84.6923 13.0023 84.723 12.435C84.769 11.8523 84.746 11.147 84.654 10.319C84.4853 8.72433 84.1786 7.56667 83.734 6.846C83.2893 6.11 82.814 5.742 82.308 5.742C81.802 5.742 81.411 6.10233 81.135 6.823C80.859 7.54367 80.8053 8.709 80.974 10.319C81.158 11.975 81.4646 13.148 81.894 13.838C82.3233 14.528 82.791 14.873 83.297 14.873ZM100.547 10.319C100.547 11.1317 100.394 11.8983 100.087 12.619C99.796 13.3243 99.3897 13.9453 98.8683 14.482C98.347 15.0033 97.7337 15.425 97.0283 15.747C96.3383 16.0537 95.5947 16.207 94.7973 16.207C94 16.207 93.2487 16.0537 92.5433 15.747C91.8533 15.4403 91.2477 15.0263 90.7263 14.505C90.205 13.9683 89.791 13.3473 89.4843 12.642C89.1777 11.9213 89.0243 11.147 89.0243 10.319C89.0243 9.46033 89.1777 8.67067 89.4843 7.95C89.791 7.214 90.205 6.58533 90.7263 6.064C91.2477 5.54267 91.8533 5.13633 92.5433 4.845C93.2487 4.55367 94 4.408 94.7973 4.408C95.5947 4.408 96.3383 4.55367 97.0283 4.845C97.7337 5.13633 98.347 5.54267 98.8683 6.064C99.3897 6.58533 99.796 7.214 100.087 7.95C100.394 8.67067 100.547 9.46033 100.547 10.319ZM95.2803 14.873C95.5257 14.873 95.748 14.7963 95.9473 14.643C96.162 14.4743 96.3307 14.206 96.4533 13.838C96.5913 13.47 96.6757 13.0023 96.7063 12.435C96.7523 11.8523 96.7293 11.147 96.6373 10.319C96.4687 8.72433 96.162 7.56667 95.7173 6.846C95.2727 6.11 94.7973 5.742 94.2913 5.742C93.7853 5.742 93.3943 6.10233 93.1183 6.823C92.8423 7.54367 92.7887 8.709 92.9573 10.319C93.1413 11.975 93.448 13.148 93.8773 13.838C94.3067 14.528 94.7743 14.873 95.2803 14.873ZM105.677 16.023C104.649 16.023 103.783 15.7393 103.078 15.172C102.388 14.5893 101.874 13.8687 101.537 13.01C101.199 12.1513 101.023 11.2237 101.008 10.227C101.008 9.215 101.184 8.27967 101.537 7.421C101.889 6.56233 102.403 5.84933 103.078 5.282C103.768 4.69933 104.634 4.408 105.677 4.408C106.321 4.408 106.827 4.523 107.195 4.753C107.578 4.96767 107.877 5.19767 108.092 5.443L108.069 4.178C108.069 3.93267 108 3.718 107.862 3.534C107.724 3.35 107.563 3.17367 107.379 3.005C107.21 2.83633 107.049 2.66 106.896 2.476C106.758 2.292 106.689 2.085 106.689 1.855C106.673 1.60967 106.765 1.42567 106.965 1.303C107.164 1.165 107.371 1.05767 107.586 0.980999L111.036 0.0609996C111.22 0.0149993 111.388 0.0533325 111.542 0.175999C111.695 0.283332 111.772 0.436666 111.772 0.635999V3.189L111.795 12.78C111.795 13.0407 111.864 13.2707 112.002 13.47C112.155 13.6693 112.316 13.861 112.485 14.045C112.653 14.2137 112.807 14.39 112.945 14.574C113.098 14.7427 113.175 14.9343 113.175 15.149C113.19 15.379 113.098 15.5783 112.899 15.747C112.699 15.9157 112.485 16 112.255 16H111.795C111.335 16 110.913 16 110.53 16C110.162 15.9847 109.832 15.9463 109.541 15.885C109.265 15.8083 109.027 15.6857 108.828 15.517C108.628 15.3483 108.475 15.0953 108.368 14.758C108.046 15.1567 107.662 15.471 107.218 15.701C106.773 15.9157 106.259 16.023 105.677 16.023ZM106.712 5.742C106.328 5.742 106.006 5.95667 105.746 6.386C105.5 6.8 105.309 7.329 105.171 7.973C105.048 8.60167 104.979 9.29167 104.964 10.043C104.964 10.779 105.017 11.469 105.125 12.113C105.247 12.7417 105.431 13.2707 105.677 13.7C105.922 14.114 106.236 14.321 106.62 14.321C106.988 14.321 107.271 14.2137 107.471 13.999C107.67 13.769 107.816 13.516 107.908 13.24C108 12.964 108.053 12.711 108.069 12.481C108.084 12.2357 108.092 12.1053 108.092 12.09V7.375C108.076 7.34433 108.038 7.24467 107.977 7.076C107.931 6.892 107.846 6.708 107.724 6.524C107.616 6.32467 107.478 6.14833 107.31 5.995C107.141 5.82633 106.942 5.742 106.712 5.742Z" fill="#122E70" style="fill:#122E70;fill:color(display-p3 0.0706 0.1804 0.4392);fill-opacity:1;"/>
</svg>
