<svg width="86" height="43" viewBox="0 0 86 43" fill="none" xmlns="http://www.w3.org/2000/svg">
<g clip-path="url(#clip0_2082_402)">
<path d="M7.41862 39.8442C5.60502 39.8083 4.23997 39.7209 2.92671 39.3536C1.17822 38.8651 0.328305 37.9166 0.185872 36.3649C0.109826 35.5408 0.395992 34.8142 0.804956 34.1241C2.42407 31.3916 4.05199 28.6627 5.70504 25.9473C6.90041 23.9831 8.13661 22.0402 9.56181 20.203C10.2722 19.2876 11.0993 18.491 12.1349 17.8724C13.3836 17.1266 14.6883 17.0122 16.0534 17.5454C16.9524 17.8965 17.8141 18.3048 18.5477 18.9208C19.8102 19.9811 20.3904 21.8212 19.7507 23.2524C19.485 23.8474 18.992 24.3695 18.5414 24.88C18.0819 25.4008 17.5697 25.887 17.0395 26.3499C16.6343 26.7037 16.5271 27.078 16.6707 27.5635C16.9288 28.4386 17.1812 29.3159 17.3867 30.2018C17.6573 31.3668 17.7698 32.5461 17.5802 33.7346C17.4245 34.7093 16.8997 35.5352 16.2825 36.3117C15.2558 37.6032 13.9469 38.5954 12.2954 39.1449C11.5356 39.3979 10.7269 39.5645 9.92393 39.6678C8.95076 39.7928 7.95985 39.8099 7.4186 39.8453L7.41862 39.8442ZM8.893 32.6129C9.47381 32.5433 10.0631 32.5091 10.6336 32.3962C11.6823 32.1891 12.5949 31.7685 13.1202 30.8504C13.5842 30.0393 13.466 29.3686 12.6819 28.8103C12.2481 28.5012 11.7311 28.2898 11.2564 28.0287C10.7986 27.777 10.3363 27.531 9.89777 27.2536C9.75535 27.1639 9.63654 26.9972 9.58329 26.844C9.3489 26.1668 9.62943 25.6043 10.124 25.1156C10.7456 24.501 11.5211 24.0874 12.3384 23.7228C13.0255 23.416 13.6953 23.0761 14.3669 22.7415C14.729 22.5612 14.889 22.2698 14.806 21.8985C14.7284 21.5525 14.4547 21.3346 14.0938 21.2879C13.7846 21.2482 13.439 21.2535 13.1467 21.3412C12.3428 21.5828 11.6711 22.0413 11.1225 22.6163C9.09702 24.74 7.5156 27.0978 6.6749 29.8304C6.52015 30.3333 6.46894 30.8425 6.68374 31.3507C7.06103 32.2438 7.69018 32.5959 8.89427 32.6129L8.893 32.6129Z" fill="#692800" style="fill:#692800;fill:color(display-p3 0.4137 0.1586 0.0000);fill-opacity:1;"/>
<path d="M39.4016 6.91675C39.3753 8.97872 39.0406 10.9957 38.1542 12.8994C37.071 15.2249 35.647 17.3564 33.5479 19.0524C32.0438 20.2676 30.2986 21.1167 28.3905 21.6708C27.3655 21.9686 26.3158 22.2086 25.2623 22.4053C24.4949 22.5487 23.6993 22.6107 22.9295 22.3526C22.2572 22.1273 22.0077 21.7264 22.0883 21.0804C22.2111 20.0991 22.5807 19.1988 23.0412 18.3094C23.957 16.5408 24.8005 14.7409 25.7025 12.9659C27.0852 10.2457 28.4854 7.53326 29.8958 4.82553C30.1599 4.31811 30.5108 3.84796 30.8164 3.3583C31.3144 2.56087 32.1081 2.10318 33.0053 1.75841C34.1958 1.30056 35.4306 1.28275 36.6434 1.59245C37.6805 1.85698 38.3267 2.59697 38.8253 3.43784C39.3164 4.26596 39.358 5.17601 39.4085 6.08328C39.4237 6.36053 39.4054 6.63914 39.4023 6.91676L39.4016 6.91675ZM30.8532 15.9471C30.842 16.6642 31.0452 16.8042 31.6739 16.6309C31.7937 16.5977 31.9111 16.5512 32.0204 16.496C33.4838 15.7537 34.5788 14.6877 35.3483 13.3386C35.7202 12.6866 35.7682 12.012 35.519 11.3111C35.2286 10.4967 34.4666 10.0999 33.6713 10.3704C33.2495 10.5137 32.9255 10.7825 32.7225 11.1345C32.3282 11.8167 31.93 12.5024 31.6143 13.216C31.2104 14.1291 30.9413 15.0829 30.8532 15.9471Z" fill="#692800" style="fill:#692800;fill:color(display-p3 0.4137 0.1586 0.0000);fill-opacity:1;"/>
<path d="M26.9697 25.1394C27.5851 25.1941 28.1996 25.2695 28.8166 25.2972C29.296 25.3187 29.7785 25.2786 30.2594 25.2713C30.7011 25.2648 31.1429 25.2542 31.5844 25.2678C32.3676 25.2916 32.8722 25.9343 32.5698 26.5911C32.1443 27.5149 31.6108 28.3799 30.5772 28.8787C29.8625 29.2238 29.0998 29.3984 28.3032 29.4966C27.4528 29.6011 26.6018 29.7137 25.7634 29.8748C25.4747 29.9303 25.1846 30.1045 24.9607 30.2897C24.5997 30.5887 24.7032 30.9389 25.1787 31.0215C25.6063 31.096 26.0521 31.1148 26.4888 31.1065C27.0645 31.0951 27.6378 31.022 28.2137 30.9979C28.4185 30.9893 28.6322 31.0291 28.8326 31.0775C29.2914 31.188 29.5216 31.4429 29.5345 31.8204C29.5536 32.3696 29.3578 32.6992 28.8634 32.8365C28.203 33.0198 27.5285 33.1614 26.8632 33.3302C25.7441 33.6149 24.6264 33.903 23.5104 34.1981C23.1175 34.302 22.8125 34.5111 22.7096 34.8965C22.6021 35.2991 22.8753 35.6726 23.3274 35.6943C23.5933 35.7071 23.8791 35.6867 24.1276 35.6077C24.8886 35.3651 25.6262 35.06 26.3914 34.8301C27.3379 34.5458 28.3023 34.4184 29.2929 34.7089C30.1544 34.9616 30.5947 35.4741 30.6188 36.316C30.6629 37.843 29.9535 39.0136 28.5278 39.7724C26.9056 40.6361 25.2016 41.3613 23.3648 41.7635C21.7072 42.1268 20.1528 41.7971 18.7374 40.9626C17.6533 40.3237 17.2486 39.117 17.736 37.9122C18.1299 36.9379 18.6074 35.991 19.0749 35.0423C20.2206 32.717 21.3682 30.3923 22.5435 28.0794C22.9376 27.3038 23.5301 26.6405 24.1603 26.0065C24.791 25.3718 25.6247 25.236 26.493 25.1657C26.6492 25.153 26.8082 25.1669 26.9662 25.1687C26.9663 25.1589 26.9677 25.1486 26.9684 25.1388L26.9697 25.1394Z" fill="#692800" style="fill:#692800;fill:color(display-p3 0.4137 0.1586 0.0000);fill-opacity:1;"/>
<path d="M60.3558 39.3636C58.7132 39.3452 57.8069 38.8039 57.4749 37.7598C57.3834 37.4719 57.4049 37.1317 57.4651 36.8311C57.8324 35.0114 58.2149 33.1937 58.6137 31.3796C58.9406 29.8924 59.2821 28.4077 59.6449 26.9279C59.8548 26.0708 60.1328 25.2323 60.6141 24.4583C61.2119 23.4973 62.1234 22.8952 63.2528 22.5858C64.727 22.1824 66.2507 22.0417 67.789 22.0624C68.1168 22.0667 68.4521 22.1442 68.7689 22.2318C69.1513 22.3375 69.3328 22.6034 69.3463 22.9711C69.3982 24.3144 68.6325 25.1584 67.0268 25.5096C66.3453 25.6586 65.6374 25.7377 64.9854 25.9567C64.5103 26.1162 64.0904 26.4323 63.6803 26.7192C63.4733 26.8638 63.3688 27.1086 63.4936 27.3651C63.614 27.6136 63.8529 27.7188 64.1304 27.7076C64.8296 27.6785 65.5277 27.6305 66.2263 27.5871C66.8118 27.5504 67.3964 27.481 67.9822 27.4772C68.9022 27.4714 69.4559 28.2414 69.1711 29.0712C68.9797 29.6284 68.509 29.91 67.9452 30.0402C67.2876 30.1918 66.6088 30.2642 65.9404 30.3777C64.8294 30.5663 63.7098 30.7311 62.6841 31.1983C62.2809 31.3822 62.0125 31.651 62.039 32.0978C62.0672 32.5733 62.3113 32.7823 62.8173 32.6757C63.2739 32.5794 63.7204 32.4318 64.1575 32.2748C64.7424 32.0648 65.3076 31.8102 65.8925 31.6007C66.7807 31.2823 67.6008 31.6176 67.9893 32.4152C68.4722 33.4062 68.406 34.3536 67.8129 35.2917C66.7175 37.022 65.0912 38.1408 63.0462 38.7947C62.0747 39.1053 61.09 39.3592 60.3551 39.3636L60.3558 39.3636Z" fill="#692800" style="fill:#692800;fill:color(display-p3 0.4137 0.1586 0.0000);fill-opacity:1;"/>
<path d="M70.515 24.2561C70.5545 23.6719 70.5916 22.6757 70.6993 21.6867C70.7874 20.8777 71.2716 20.2397 71.9527 19.7335C73.018 18.9413 74.2583 18.6609 75.6049 18.8143C76.6531 18.9338 77.4544 19.4842 78.0772 20.2286C78.9158 21.2311 79.57 22.3358 80.0559 23.5159C80.6008 24.8406 80.504 26.1465 79.7962 27.3973C79.5132 27.897 79.5705 28.3106 79.9793 28.7052C80.5425 29.2496 81.1024 29.7968 81.6771 30.3309C82.5982 31.1863 83.5384 32.0246 84.4512 32.888C84.665 33.0903 84.8366 33.3468 84.9651 33.6046C85.1987 34.0733 85.0553 34.404 84.5375 34.6056C83.524 35.0009 82.5187 34.947 81.5285 34.5085C80.7237 34.1521 80.0477 33.6422 79.4012 33.0871C78.2667 32.1129 77.1384 31.1348 76.1933 29.9986C76.0094 29.7776 75.8351 29.547 75.6894 29.304C75.2843 28.6283 75.3526 28.1809 75.9288 27.6177C76.2744 27.2799 76.5401 26.9183 76.5241 26.4267C76.5087 25.9433 76.2771 25.6365 75.792 25.5066C75.3296 25.3833 74.8143 25.5296 74.5895 25.9159C74.4374 26.1775 74.3354 26.484 74.3024 26.7785C74.1992 27.6933 74.4141 28.588 74.6114 29.4779C74.8351 30.4874 75.1171 31.4859 75.3218 32.4981C75.4056 32.9132 75.4101 33.3579 75.3491 33.7772C75.2259 34.6261 74.4475 34.899 73.6968 34.8503C72.5521 34.7764 72.0049 34.0484 71.7033 33.1729C71.4224 32.3569 71.224 31.5108 71.0724 30.6663C70.7162 28.6813 70.5751 26.6773 70.515 24.2561Z" fill="#692800" style="fill:#692800;fill:color(display-p3 0.4137 0.1586 0.0000);fill-opacity:1;"/>
<path d="M51.003 10.0782C50.8166 11.2581 50.6624 12.4437 50.4351 13.6168C50.1822 14.9239 49.8234 16.2091 49.2813 17.4467C48.5317 19.1572 47.3857 20.5522 45.4922 21.3271C45.1399 21.4712 44.7274 21.5743 44.3459 21.5648C43.4799 21.5435 43.2093 20.8279 43.2652 20.1252C43.3387 19.2032 43.9095 18.5074 44.5199 17.8322C45.2934 16.9762 46.0957 16.1396 46.6145 15.1206C47.0022 14.3594 47.2125 13.5737 46.9775 12.7335C46.684 11.6847 45.5406 11.222 44.4776 11.7469C43.5061 12.2268 42.873 12.9622 42.6463 13.9631C42.5838 14.2395 42.6201 14.4992 42.8833 14.6911C43.2073 14.9274 43.5259 14.9103 43.7964 14.627C43.9677 14.4475 44.114 14.2475 44.2722 14.0569C44.465 13.824 44.6579 13.5877 45.041 13.6784C45.3403 13.7497 45.627 14.1072 45.6496 14.4514C45.6846 14.9915 45.4671 15.454 45.0385 15.8115C44.4352 16.3145 43.7993 16.7861 43.1834 17.2769C41.9409 18.2664 41.2335 19.4768 41.3236 21.0222C41.3479 21.4424 41.1223 21.7867 40.7839 22.049C39.9049 22.7298 38.8786 23.0288 37.7266 22.9312C37.1913 22.886 36.83 22.5421 36.8615 22.0436C36.8883 21.6216 36.9603 21.1783 37.1365 20.792C37.8522 19.2251 38.6171 17.6766 39.3618 16.121C40.3582 14.0388 41.3452 11.9531 42.3498 9.87446C42.8828 8.77155 43.4818 7.70221 44.3082 6.74891C45.0641 5.87719 46.1232 5.47317 47.2374 5.17231C47.6183 5.06944 48.0463 5.04026 48.4427 5.07409C48.9793 5.12044 49.2715 5.54251 49.5785 5.8864C50.3136 6.71091 50.6894 7.67772 50.8173 8.72526C50.8716 9.17116 50.9026 9.6191 50.9444 10.0666L51.003 10.0793L51.003 10.0782Z" fill="#692800" style="fill:#692800;fill:color(display-p3 0.4137 0.1586 0.0000);fill-opacity:1;"/>
<path d="M62.0642 14.8321C61.9706 13.71 62.3434 12.641 62.5534 11.5524C62.8224 10.1619 63.0788 8.7673 63.4152 7.39028C63.6278 6.51937 63.9092 5.65097 64.2818 4.82737C64.7139 3.87252 65.599 3.32541 66.6968 3.1246C67.9935 2.88743 69.2692 2.60393 70.4852 2.11988C71.1459 1.85655 71.8106 1.8548 72.3767 2.30586C72.9923 2.79666 73.1049 3.45923 72.9386 4.14977C72.6702 5.2666 71.9402 6.01534 70.7152 6.34318C69.942 6.54994 69.1738 6.77116 68.4055 6.99296C68.0936 7.08335 67.8391 7.23603 67.7635 7.55892C67.6978 7.83872 67.7759 7.97266 68.088 8.0355C68.8022 8.17889 69.4791 7.99294 70.1564 7.826C70.3484 7.77861 70.5355 7.71677 70.7268 7.6688C71.2952 7.52656 71.8237 7.67075 72.1398 8.05103C72.4658 8.44353 72.4954 9.01185 72.2111 9.45798C71.8304 10.0574 71.1875 10.2524 70.4972 10.342C69.4791 10.474 68.4623 10.5974 67.5281 11.0247C67.1985 11.1754 66.8468 11.3183 66.7655 11.6936C66.6996 11.9981 66.7519 12.2885 67.0332 12.5053C67.3301 12.7345 67.6509 12.6914 67.9758 12.5672C68.6129 12.3232 69.2439 12.0641 69.8883 11.8381C70.2892 11.6974 70.7074 11.5949 71.1455 11.7445C71.7655 11.9559 72.1466 12.5046 72.1644 13.2306C72.1787 13.8091 72.014 14.3562 71.7146 14.8523C70.6388 16.6358 69.1108 18.008 67.0941 18.8967C66.3499 19.2242 65.5362 19.3303 64.7067 19.2645C63.7907 19.1914 63.1935 18.6899 62.7723 17.9951C62.1768 17.0126 61.9663 15.952 62.0623 14.8338L62.0642 14.8321Z" fill="#692800" style="fill:#692800;fill:color(display-p3 0.4137 0.1586 0.0000);fill-opacity:1;"/>
<path d="M37.3823 29.6429C37.2034 29.6513 37.0897 29.6436 36.9827 29.6638C35.3277 29.9701 34.7651 28.8635 35.0173 27.8421C35.29 26.738 35.8986 25.769 37.0357 25.2253C37.6252 24.9433 38.3075 24.7874 38.9684 24.6692C40.4043 24.4123 41.8868 24.3437 43.2573 23.8303C43.9045 23.5875 44.5042 23.2411 45.1471 22.9868C45.4219 22.8782 45.7534 22.8444 46.0566 22.8513C46.32 22.8571 46.5031 23.0332 46.564 23.2925C46.7058 23.8949 46.6555 24.4917 46.4733 25.0738C45.9437 26.7701 44.6102 27.7568 42.8688 28.3249C42.2454 28.5281 41.8812 28.7821 41.6549 29.408C40.9806 31.2732 40.2062 33.1102 39.4167 34.9389C38.6675 36.673 37.8138 38.368 36.7383 39.9591C36.2313 40.7097 35.7011 41.4503 34.8385 41.9159C34.2492 42.2342 33.6165 42.3694 32.9358 42.2183C32.1511 42.0441 31.79 41.5677 31.9951 40.8528C32.1477 40.3217 32.3967 39.8095 32.645 39.3065C34.0202 36.5206 35.4098 33.7412 36.7894 30.9571C36.995 30.5429 37.1697 30.1158 37.3823 29.6423L37.3823 29.6429Z" fill="#692800" style="fill:#692800;fill:color(display-p3 0.4137 0.1586 0.0000);fill-opacity:1;"/>
<path d="M48.7056 31.5754C48.2198 31.5699 47.8006 31.594 47.3878 31.5548C46.5067 31.4712 46.1078 31.0439 46.0309 30.2389C45.8828 28.6876 46.7078 27.6312 48.0737 26.8568C49.1146 26.2665 50.3017 26.0551 51.4839 25.8305C52.3114 25.6727 53.1442 25.5075 53.9412 25.2584C54.3933 25.1172 54.7809 24.8024 55.195 24.5622C55.6173 24.3175 56.0054 24.0183 56.5617 24.0522C57.159 24.0883 57.6138 24.3791 57.6918 24.9169C57.9398 26.6323 57.4101 28.1131 55.9873 29.2873C55.3151 29.8419 54.5088 30.1895 53.6407 30.4107C53.263 30.5067 53.0574 30.7043 52.9688 31.0489C52.6001 32.4878 52.2503 33.9315 51.8318 35.3583C51.5506 36.3154 51.1724 37.2489 50.822 38.188C50.6604 38.6205 50.4894 39.0535 50.2762 39.4665C49.6955 40.5942 48.885 41.539 47.5854 42.0394C46.9267 42.293 46.2374 42.2939 45.5586 42.0829C45.0077 41.9114 44.7239 41.5257 44.8712 41.0089C45.0679 40.3193 45.3251 39.6407 45.6061 38.9751C46.5831 36.6594 47.5826 34.352 48.5702 32.0399C48.6273 31.9057 48.6524 31.7608 48.7056 31.5765L48.7056 31.5754Z" fill="#692800" style="fill:#692800;fill:color(display-p3 0.4137 0.1586 0.0000);fill-opacity:1;"/>
<path d="M52.4593 19.4554C52.646 18.7529 52.8352 18.0511 53.0187 17.3481C53.5305 15.3815 54.0624 13.4185 54.5407 11.4451C54.766 10.5156 54.9201 9.56857 55.0457 8.62296C55.1237 8.03684 54.9483 7.95307 54.3084 7.99312C53.7881 8.02587 53.2647 7.99177 52.8003 7.7089C52.132 7.30104 51.8748 6.56715 52.1919 5.89673C52.5453 5.14952 53.2333 4.81565 54.0587 4.63482C54.903 4.45017 55.7431 4.24646 56.5801 4.03523C57.6921 3.75451 58.6225 3.16183 59.5523 2.57145C59.9506 2.31843 60.3359 2.04798 60.8707 2.13578C61.743 2.27864 62.4309 2.90965 62.6209 3.71249C62.7572 4.28892 62.5446 4.76639 62.1645 5.19876C61.5597 5.88612 60.7279 6.30478 59.9111 6.73744C59.648 6.87677 59.3606 6.98242 59.1162 7.1427C58.9927 7.22369 58.8784 7.38831 58.8655 7.52411C58.807 8.12024 58.8513 8.72962 58.7417 9.31654C58.3612 11.3567 57.9195 13.3875 57.5257 15.4257C57.2842 16.6765 56.8759 17.8707 56.2358 18.9983C55.655 20.0224 54.71 20.5676 53.4781 20.7249C53.0427 20.7805 52.6865 20.5432 52.58 20.1255C52.5261 19.9135 52.5274 19.6906 52.5039 19.472C52.4888 19.4661 52.4737 19.4601 52.458 19.4542L52.4593 19.4554Z" fill="#692800" style="fill:#692800;fill:color(display-p3 0.4137 0.1586 0.0000);fill-opacity:1;"/>
</g>
<defs>
<clipPath id="clip0_2082_402">
<rect width="85.103" height="41.0698" fill="white" style="fill:white;fill-opacity:1;" transform="translate(0.460938 0.932762) rotate(0.643247)"/>
</clipPath>
</defs>
</svg>
