<svg width="86" height="43" viewBox="0 0 86 43" fill="none" xmlns="http://www.w3.org/2000/svg">
<g clip-path="url(#clip0_2082_454)">
<path d="M7.41862 39.8441C5.60502 39.8082 4.23997 39.7209 2.92671 39.3536C1.17822 38.865 0.328305 37.9165 0.185872 36.3648C0.109826 35.5408 0.395992 34.8141 0.804956 34.124C2.42407 31.3915 4.05199 28.6626 5.70504 25.9472C6.90041 23.9831 8.13661 22.0401 9.56181 20.203C10.2722 19.2875 11.0993 18.4909 12.1349 17.8723C13.3836 17.1265 14.6883 17.0122 16.0534 17.5454C16.9524 17.8965 17.8141 18.3048 18.5477 18.9207C19.8102 19.981 20.3904 21.8211 19.7507 23.2523C19.485 23.8473 18.992 24.3694 18.5414 24.8799C18.0819 25.4007 17.5697 25.8869 17.0395 26.3498C16.6343 26.7036 16.5271 27.078 16.6707 27.5635C16.9288 28.4385 17.1812 29.3158 17.3867 30.2018C17.6573 31.3667 17.7698 32.546 17.5802 33.7345C17.4245 34.7092 16.8997 35.5351 16.2825 36.3116C15.2558 37.6031 13.9469 38.5954 12.2954 39.1448C11.5356 39.3978 10.7269 39.5644 9.92393 39.6677C8.95076 39.7928 7.95985 39.8099 7.4186 39.8453L7.41862 39.8441ZM8.893 32.6128C9.47381 32.5433 10.0631 32.509 10.6336 32.3962C11.6823 32.189 12.5949 31.7684 13.1202 30.8503C13.5842 30.0392 13.466 29.3686 12.6819 28.8102C12.2481 28.5012 11.7311 28.2897 11.2564 28.0286C10.7986 27.7769 10.3363 27.5309 9.89777 27.2536C9.75535 27.1638 9.63654 26.9972 9.58329 26.8439C9.3489 26.1667 9.62943 25.6042 10.124 25.1155C10.7456 24.5009 11.5211 24.0874 12.3384 23.7227C13.0255 23.4159 13.6953 23.076 14.3669 22.7414C14.729 22.5611 14.889 22.2697 14.806 21.8984C14.7284 21.5525 14.4547 21.3345 14.0938 21.2878C13.7846 21.2481 13.439 21.2534 13.1467 21.3412C12.3428 21.5827 11.6711 22.0412 11.1225 22.6163C9.09702 24.7399 7.5156 27.0978 6.6749 29.8303C6.52015 30.3332 6.46894 30.8425 6.68374 31.3506C7.06103 32.2437 7.69018 32.5958 8.89427 32.6128L8.893 32.6128Z" fill="#F6EAD5" style="fill:#F6EAD5;fill:color(display-p3 0.9636 0.9166 0.8370);fill-opacity:1;"/>
<path d="M39.4016 6.91674C39.3753 8.97871 39.0406 10.9957 38.1542 12.8994C37.071 15.2249 35.647 17.3564 33.5479 19.0523C32.0438 20.2676 30.2986 21.1167 28.3905 21.6708C27.3655 21.9686 26.3158 22.2086 25.2623 22.4053C24.4949 22.5487 23.6993 22.6106 22.9295 22.3526C22.2572 22.1273 22.0077 21.7264 22.0883 21.0804C22.2111 20.0991 22.5807 19.1988 23.0412 18.3094C23.957 16.5408 24.8005 14.7409 25.7025 12.9658C27.0852 10.2457 28.4854 7.53325 29.8958 4.82552C30.1599 4.3181 30.5108 3.84795 30.8164 3.35828C31.3144 2.56086 32.1081 2.10317 33.0053 1.7584C34.1958 1.30055 35.4306 1.28273 36.6434 1.59244C37.6805 1.85697 38.3267 2.59696 38.8253 3.43783C39.3164 4.26595 39.358 5.176 39.4085 6.08327C39.4237 6.36052 39.4054 6.63912 39.4023 6.91675L39.4016 6.91674ZM30.8532 15.9471C30.842 16.6642 31.0452 16.8042 31.6739 16.6309C31.7937 16.5977 31.9111 16.5512 32.0204 16.496C33.4838 15.7537 34.5788 14.6877 35.3483 13.3386C35.7202 12.6866 35.7682 12.012 35.519 11.311C35.2286 10.4967 34.4666 10.0999 33.6713 10.3703C33.2495 10.5137 32.9255 10.7825 32.7225 11.1345C32.3282 11.8167 31.93 12.5023 31.6143 13.216C31.2104 14.1291 30.9413 15.0829 30.8532 15.9471Z" fill="#F6EAD5" style="fill:#F6EAD5;fill:color(display-p3 0.9636 0.9166 0.8370);fill-opacity:1;"/>
<path d="M26.9697 25.1393C27.5851 25.1941 28.1996 25.2695 28.8166 25.2972C29.296 25.3187 29.7785 25.2786 30.2594 25.2713C30.7011 25.2648 31.1429 25.2542 31.5844 25.2678C32.3676 25.2915 32.8722 25.9343 32.5698 26.5911C32.1443 27.5149 31.6108 28.3799 30.5772 28.8787C29.8625 29.2238 29.0998 29.3984 28.3032 29.4966C27.4528 29.6011 26.6018 29.7137 25.7634 29.8748C25.4747 29.9303 25.1846 30.1044 24.9607 30.2897C24.5997 30.5887 24.7032 30.9389 25.1787 31.0214C25.6063 31.0959 26.0521 31.1148 26.4888 31.1064C27.0645 31.095 27.6378 31.022 28.2137 30.9979C28.4185 30.9893 28.6322 31.0291 28.8326 31.0774C29.2914 31.188 29.5216 31.4429 29.5345 31.8204C29.5536 32.3696 29.3578 32.6992 28.8634 32.8365C28.203 33.0197 27.5285 33.1614 26.8632 33.3302C25.7441 33.6148 24.6264 33.903 23.5104 34.1981C23.1175 34.302 22.8125 34.5111 22.7096 34.8965C22.6021 35.2991 22.8753 35.6725 23.3274 35.6943C23.5933 35.7071 23.8791 35.6867 24.1276 35.6077C24.8886 35.3651 25.6262 35.06 26.3914 34.8301C27.3379 34.5458 28.3023 34.4183 29.2929 34.7088C30.1544 34.9616 30.5947 35.4741 30.6188 36.3159C30.6629 37.843 29.9535 39.0136 28.5278 39.7724C26.9056 40.6361 25.2016 41.3612 23.3648 41.7634C21.7072 42.1267 20.1528 41.7971 18.7374 40.9626C17.6533 40.3237 17.2486 39.1169 17.736 37.9121C18.1299 36.9378 18.6074 35.991 19.0749 35.0423C20.2206 32.717 21.3682 30.3922 22.5435 28.0793C22.9376 27.3038 23.5301 26.6405 24.1603 26.0064C24.791 25.3718 25.6247 25.236 26.493 25.1657C26.6492 25.153 26.8082 25.1669 26.9662 25.1687C26.9663 25.1589 26.9677 25.1485 26.9684 25.1387L26.9697 25.1393Z" fill="#F6EAD5" style="fill:#F6EAD5;fill:color(display-p3 0.9636 0.9166 0.8370);fill-opacity:1;"/>
<path d="M60.3558 39.3635C58.7132 39.3451 57.8069 38.8038 57.4749 37.7597C57.3834 37.4718 57.4049 37.1316 57.4651 36.831C57.8324 35.0114 58.2149 33.1936 58.6137 31.3795C58.9406 29.8924 59.2821 28.4077 59.6449 26.9278C59.8548 26.0707 60.1328 25.2322 60.6141 24.4583C61.2119 23.4972 62.1234 22.8951 63.2528 22.5858C64.727 22.1824 66.2507 22.0416 67.789 22.0624C68.1168 22.0666 68.4521 22.1441 68.7689 22.2318C69.1513 22.3375 69.3328 22.6033 69.3463 22.971C69.3982 24.3144 68.6325 25.1583 67.0268 25.5095C66.3453 25.6586 65.6374 25.7376 64.9854 25.9567C64.5103 26.1161 64.0904 26.4322 63.6803 26.7191C63.4733 26.8637 63.3688 27.1085 63.4936 27.3651C63.614 27.6136 63.8529 27.7188 64.1304 27.7075C64.8296 27.6785 65.5277 27.6304 66.2263 27.587C66.8118 27.5504 67.3964 27.4809 67.9822 27.4771C68.9022 27.4713 69.4559 28.2414 69.1711 29.0711C68.9797 29.6283 68.509 29.9099 67.9452 30.0401C67.2876 30.1917 66.6088 30.2642 65.9404 30.3776C64.8294 30.5662 63.7098 30.7311 62.6841 31.1982C62.2809 31.3821 62.0125 31.651 62.039 32.0977C62.0672 32.5733 62.3113 32.7822 62.8173 32.6756C63.2739 32.5793 63.7204 32.4317 64.1575 32.2747C64.7424 32.0647 65.3076 31.8101 65.8925 31.6006C66.7807 31.2823 67.6008 31.6175 67.9893 32.4151C68.4722 33.4061 68.406 34.3536 67.8129 35.2916C66.7175 37.0219 65.0912 38.1408 63.0462 38.7947C62.0747 39.1052 61.09 39.3591 60.3551 39.3635L60.3558 39.3635Z" fill="#F6EAD5" style="fill:#F6EAD5;fill:color(display-p3 0.9636 0.9166 0.8370);fill-opacity:1;"/>
<path d="M70.515 24.2561C70.5545 23.6718 70.5916 22.6757 70.6993 21.6867C70.7874 20.8777 71.2716 20.2397 71.9527 19.7335C73.018 18.9413 74.2583 18.6609 75.6049 18.8143C76.6531 18.9337 77.4544 19.4842 78.0772 20.2286C78.9158 21.2311 79.57 22.3358 80.0559 23.5158C80.6008 24.8405 80.504 26.1465 79.7962 27.3972C79.5132 27.8969 79.5705 28.3106 79.9793 28.7052C80.5425 29.2495 81.1024 29.7967 81.6771 30.3309C82.5982 31.1863 83.5384 32.0246 84.4512 32.888C84.665 33.0903 84.8366 33.3468 84.9651 33.6046C85.1987 34.0732 85.0553 34.404 84.5375 34.6056C83.524 35.0009 82.5187 34.947 81.5285 34.5084C80.7237 34.152 80.0477 33.6421 79.4012 33.0871C78.2667 32.1129 77.1384 31.1348 76.1933 29.9985C76.0094 29.7776 75.8351 29.5469 75.6894 29.3039C75.2843 28.6283 75.3526 28.1809 75.9288 27.6176C76.2744 27.2799 76.5401 26.9183 76.5241 26.4267C76.5087 25.9432 76.2771 25.6365 75.792 25.5066C75.3296 25.3833 74.8143 25.5296 74.5895 25.9159C74.4374 26.1775 74.3354 26.4839 74.3024 26.7785C74.1992 27.6933 74.4141 28.588 74.6114 29.4779C74.8351 30.4873 75.1171 31.4859 75.3218 32.498C75.4056 32.9132 75.4101 33.3579 75.3491 33.7772C75.2259 34.626 74.4475 34.899 73.6968 34.8502C72.5521 34.7763 72.0049 34.0484 71.7033 33.1729C71.4224 32.3569 71.224 31.5108 71.0724 30.6663C70.7162 28.6813 70.5751 26.6773 70.515 24.2561Z" fill="#F6EAD5" style="fill:#F6EAD5;fill:color(display-p3 0.9636 0.9166 0.8370);fill-opacity:1;"/>
<path d="M51.003 10.0781C50.8166 11.2581 50.6624 12.4436 50.4351 13.6168C50.1822 14.9239 49.8234 16.209 49.2813 17.4466C48.5317 19.1572 47.3857 20.5522 45.4922 21.327C45.1399 21.4711 44.7274 21.5742 44.3459 21.5647C43.4799 21.5435 43.2093 20.8279 43.2652 20.1251C43.3387 19.2031 43.9095 18.5073 44.5199 17.8321C45.2934 16.9762 46.0957 16.1395 46.6145 15.1206C47.0022 14.3593 47.2125 13.5737 46.9775 12.7334C46.684 11.6846 45.5406 11.2219 44.4776 11.7468C43.5061 12.2267 42.873 12.9621 42.6463 13.9631C42.5838 14.2394 42.6201 14.4991 42.8833 14.691C43.2073 14.9273 43.5259 14.9102 43.7964 14.6269C43.9677 14.4474 44.114 14.2474 44.2722 14.0568C44.465 13.8239 44.6579 13.5876 45.041 13.6783C45.3403 13.7496 45.627 14.1071 45.6496 14.4513C45.6846 14.9914 45.4671 15.4539 45.0385 15.8114C44.4352 16.3144 43.7993 16.786 43.1834 17.2768C41.9409 18.2663 41.2335 19.4767 41.3236 21.0221C41.3479 21.4423 41.1223 21.7866 40.7839 22.0489C39.9049 22.7297 38.8786 23.0287 37.7266 22.9311C37.1913 22.8859 36.83 22.542 36.8615 22.0435C36.8883 21.6215 36.9603 21.1782 37.1365 20.7919C37.8522 19.225 38.6171 17.6766 39.3618 16.1209C40.3582 14.0388 41.3452 11.953 42.3498 9.87439C42.8828 8.77148 43.4818 7.70214 44.3082 6.74884C45.0641 5.87712 46.1232 5.4731 47.2374 5.17224C47.6183 5.06937 48.0463 5.04019 48.4427 5.07402C48.9793 5.12036 49.2715 5.54243 49.5785 5.88633C50.3136 6.71084 50.6894 7.67764 50.8173 8.72519C50.8716 9.17108 50.9026 9.61902 50.9444 10.0665L51.003 10.0793L51.003 10.0781Z" fill="#F6EAD5" style="fill:#F6EAD5;fill:color(display-p3 0.9636 0.9166 0.8370);fill-opacity:1;"/>
<path d="M62.0642 14.832C61.9706 13.71 62.3434 12.641 62.5534 11.5523C62.8224 10.1619 63.0788 8.76725 63.4152 7.39023C63.6278 6.51933 63.9092 5.65092 64.2818 4.82732C64.7139 3.87247 65.599 3.32537 66.6968 3.12456C67.9935 2.88738 69.2692 2.60388 70.4852 2.11983C71.1459 1.8565 71.8106 1.85475 72.3767 2.30582C72.9923 2.79661 73.1049 3.45918 72.9386 4.14973C72.6702 5.26656 71.9402 6.01529 70.7152 6.34313C69.942 6.5499 69.1738 6.77112 68.4055 6.99291C68.0936 7.0833 67.8391 7.23598 67.7635 7.55887C67.6978 7.83867 67.7759 7.97262 68.088 8.03545C68.8022 8.17884 69.4791 7.99289 70.1564 7.82595C70.3484 7.77857 70.5355 7.71673 70.7268 7.66876C71.2952 7.52652 71.8237 7.6707 72.1398 8.05099C72.4658 8.44348 72.4954 9.0118 72.2111 9.45793C71.8304 10.0574 71.1875 10.2523 70.4972 10.3419C69.4791 10.4739 68.4623 10.5973 67.5281 11.0246C67.1985 11.1753 66.8468 11.3183 66.7655 11.6935C66.6996 11.9981 66.7519 12.2884 67.0332 12.5053C67.3301 12.7344 67.6509 12.6914 67.9758 12.5671C68.6129 12.3231 69.2439 12.0641 69.8883 11.838C70.2892 11.6974 70.7074 11.5949 71.1455 11.7444C71.7655 11.9559 72.1466 12.5045 72.1644 13.2305C72.1787 13.8091 72.014 14.3562 71.7146 14.8523C70.6388 16.6357 69.1108 18.008 67.0941 18.8967C66.3499 19.2242 65.5362 19.3302 64.7067 19.2645C63.7907 19.1914 63.1935 18.6899 62.7723 17.995C62.1768 17.0125 61.9663 15.9519 62.0623 14.8337L62.0642 14.832Z" fill="#F6EAD5" style="fill:#F6EAD5;fill:color(display-p3 0.9636 0.9166 0.8370);fill-opacity:1;"/>
<path d="M37.3823 29.6428C37.2034 29.6512 37.0897 29.6436 36.9827 29.6637C35.3277 29.97 34.7651 28.8634 35.0173 27.842C35.29 26.7379 35.8986 25.7689 37.0357 25.2252C37.6252 24.9432 38.3075 24.7873 38.9684 24.6691C40.4043 24.4122 41.8868 24.3436 43.2573 23.8302C43.9045 23.5874 44.5042 23.2411 45.1471 22.9867C45.4219 22.8781 45.7534 22.8444 46.0566 22.8512C46.32 22.8571 46.5031 23.0331 46.564 23.2924C46.7058 23.8948 46.6555 24.4916 46.4733 25.0737C45.9437 26.77 44.6102 27.7568 42.8688 28.3248C42.2454 28.528 41.8812 28.782 41.6549 29.4079C40.9806 31.2731 40.2062 33.1101 39.4167 34.9388C38.6675 36.673 37.8138 38.3679 36.7383 39.959C36.2313 40.7096 35.7011 41.4503 34.8385 41.9158C34.2492 42.2341 33.6165 42.3693 32.9358 42.2182C32.1511 42.0441 31.79 41.5676 31.9951 40.8528C32.1477 40.3216 32.3967 39.8094 32.645 39.3064C34.0202 36.5206 35.4098 33.7412 36.7894 30.957C36.995 30.5429 37.1697 30.1157 37.3823 29.6422L37.3823 29.6428Z" fill="#F6EAD5" style="fill:#F6EAD5;fill:color(display-p3 0.9636 0.9166 0.8370);fill-opacity:1;"/>
<path d="M48.7056 31.5753C48.2198 31.5699 47.8006 31.594 47.3878 31.5548C46.5067 31.4711 46.1078 31.0438 46.0309 30.2388C45.8828 28.6876 46.7078 27.6311 48.0737 26.8567C49.1146 26.2664 50.3017 26.0551 51.4839 25.8304C52.3114 25.6727 53.1442 25.5075 53.9412 25.2584C54.3933 25.1171 54.7809 24.8023 55.195 24.5622C55.6173 24.3175 56.0054 24.0183 56.5617 24.0522C57.159 24.0882 57.6138 24.3791 57.6918 24.9168C57.9398 26.6322 57.4101 28.113 55.9873 29.2872C55.3151 29.8419 54.5088 30.1894 53.6407 30.4106C53.263 30.5066 53.0574 30.7042 52.9688 31.0489C52.6001 32.4877 52.2503 33.9314 51.8318 35.3582C51.5506 36.3153 51.1724 37.2489 50.822 38.1879C50.6604 38.6205 50.4894 39.0535 50.2762 39.4664C49.6955 40.5941 48.885 41.539 47.5854 42.0394C46.9267 42.2929 46.2374 42.2938 45.5586 42.0829C45.0077 41.9113 44.7239 41.5257 44.8712 41.0089C45.0679 40.3192 45.3251 39.6407 45.6061 38.975C46.5831 36.6593 47.5826 34.3519 48.5702 32.0398C48.6273 31.9057 48.6524 31.7608 48.7056 31.5765L48.7056 31.5753Z" fill="#F6EAD5" style="fill:#F6EAD5;fill:color(display-p3 0.9636 0.9166 0.8370);fill-opacity:1;"/>
<path d="M52.4593 19.4554C52.646 18.753 52.8352 18.0511 53.0187 17.3481C53.5305 15.3815 54.0624 13.4185 54.5407 11.4451C54.766 10.5156 54.9201 9.56859 55.0457 8.62297C55.1237 8.03685 54.9483 7.95308 54.3084 7.99314C53.7881 8.02589 53.2647 7.99179 52.8003 7.70892C52.132 7.30106 51.8748 6.56716 52.1919 5.89674C52.5453 5.14954 53.2333 4.81567 54.0587 4.63484C54.903 4.45019 55.7431 4.24648 56.5801 4.03525C57.6921 3.75453 58.6225 3.16185 59.5523 2.57146C59.9506 2.31844 60.3359 2.04799 60.8707 2.13579C61.743 2.27865 62.4309 2.90967 62.6209 3.71251C62.7572 4.28894 62.5446 4.7664 62.1645 5.19878C61.5597 5.88613 60.7279 6.3048 59.9111 6.73746C59.648 6.87679 59.3606 6.98244 59.1162 7.14271C58.9927 7.2237 58.8784 7.38832 58.8655 7.52413C58.807 8.12026 58.8513 8.72964 58.7417 9.31656C58.3612 11.3567 57.9195 13.3875 57.5257 15.4257C57.2842 16.6765 56.8759 17.8707 56.2358 18.9983C55.655 20.0224 54.71 20.5676 53.4781 20.7249C53.0427 20.7805 52.6865 20.5432 52.58 20.1255C52.5261 19.9135 52.5274 19.6906 52.5039 19.472C52.4888 19.4661 52.4737 19.4601 52.458 19.4542L52.4593 19.4554Z" fill="#F6EAD5" style="fill:#F6EAD5;fill:color(display-p3 0.9636 0.9166 0.8370);fill-opacity:1;"/>
</g>
<defs>
<clipPath id="clip0_2082_454">
<rect width="85.103" height="41.0698" fill="white" style="fill:white;fill-opacity:1;" transform="translate(0.460938 0.932739) rotate(0.643247)"/>
</clipPath>
</defs>
</svg>
