<svg width="29" height="29" viewBox="0 0 29 29" fill="none" xmlns="http://www.w3.org/2000/svg">
<circle cx="14.5" cy="14.5" r="14" stroke="#F6EAD5"/>
<path d="M20.132 9.63569C20.0152 9.57639 19.9015 9.51138 19.7913 9.44091C19.4709 9.23283 19.1771 8.98765 18.9163 8.71066C18.2637 7.97721 18.02 7.23315 17.9302 6.71219H17.9338C17.8588 6.27978 17.8898 6 17.8945 6H14.9222V17.2896C14.9222 17.4411 14.9222 17.5909 14.9157 17.739C14.9157 17.7574 14.9139 17.7744 14.9128 17.7942C14.9128 17.8024 14.9128 17.8109 14.911 17.8194C14.911 17.8215 14.911 17.8236 14.911 17.8257C14.8797 18.2308 14.7475 18.6221 14.5261 18.9652C14.3047 19.3083 14.0008 19.5927 13.6412 19.7934C13.2664 20.0028 12.8426 20.1127 12.4114 20.1121C11.0266 20.1121 9.9042 19.0029 9.9042 17.6331C9.9042 16.2632 11.0266 15.154 12.4114 15.154C12.6735 15.1538 12.9341 15.1943 13.1833 15.2741L13.1869 12.3014C12.4303 12.2054 11.6616 12.2644 10.9294 12.4748C10.1971 12.6853 9.51721 13.0425 8.93254 13.5239C8.42024 13.9611 7.98954 14.4828 7.65983 15.0655C7.53436 15.278 7.06097 16.1318 7.00365 17.5176C6.96759 18.3042 7.20807 19.1191 7.32272 19.4559V19.463C7.39483 19.6613 7.67425 20.3381 8.12962 20.9086C8.4968 21.3663 8.93063 21.7683 9.41711 22.1017V22.0947L9.42432 22.1017C10.8632 23.0622 12.4586 22.9992 12.4586 22.9992C12.7348 22.9882 13.66 22.9992 14.7106 22.5101C15.8758 21.9679 16.5392 21.1601 16.5392 21.1601C16.9631 20.6774 17.3001 20.1273 17.5358 19.5334C17.8047 18.839 17.8945 18.006 17.8945 17.6731V11.6837C17.9306 11.705 18.4108 12.017 18.4108 12.017C18.4108 12.017 19.1027 12.4526 20.1822 12.7363C20.9566 12.9381 22 12.9806 22 12.9806V10.0823C21.6344 10.1212 20.8921 10.0079 20.132 9.63569Z" fill="#F6EAD5"/>
</svg>
