<svg width="448" height="746" viewBox="0 0 448 746" fill="none" xmlns="http://www.w3.org/2000/svg">
<g clip-path="url(#clip0_9_99)">
<path d="M77.2032 664.297C77.544 662.991 77.9577 661.703 78.2146 660.373C78.8786 656.942 78.6835 653.446 77.302 649.867C75.4525 645.077 74.3994 640.303 75.3236 635.591C75.799 633.157 76.6971 630.914 78.7262 629.258C80.2519 628.014 82.1331 627.303 84.4304 627.391C86.1103 627.455 87.5637 628.181 88.8404 629.257C90.8192 630.922 92.2532 632.836 93.0805 635.035C93.1666 635.265 93.321 635.482 93.5714 635.699C94.6973 633.583 94.8273 631.327 94.0156 628.901C93.1778 626.395 91.4631 624.524 88.4729 623.457C91.8494 621.396 95.6072 621.008 100.088 622.721C99.7559 621.015 98.5295 619.809 97.0912 618.874C92.9476 616.177 89.0357 615.936 85.6312 618.558C85.0992 617.448 84.691 616.377 84.0871 615.375C82.7093 613.09 80.3339 611.891 77.7616 610.915C75.75 610.153 73.7554 609.77 71.7711 610.168C71.4354 610.235 71.1741 610.477 70.8785 610.636C71.1959 610.856 71.4895 611.177 71.8346 611.28C73.6 611.81 75.2347 612.473 76.4888 613.85C77.7137 615.195 78.5306 616.641 78.9113 618.227C78.957 618.418 78.9378 618.611 78.9448 618.731C77.526 618.096 76.1585 617.432 74.7494 616.883C74.2424 616.686 73.6159 616.694 73.0724 616.727C69.2344 616.967 66.9521 618.858 65.6222 621.717C65.4341 622.12 65.3954 622.592 65.288 623.032C65.3888 623.102 65.4887 623.172 65.5913 623.243C66.0262 623.059 66.4764 622.898 66.8904 622.688C68.3615 621.938 69.9827 621.513 71.8224 621.596C73.8361 621.688 75.1936 622.743 75.2336 624.475C75.2628 625.731 75.1031 627.037 74.6184 628.144C73.8277 629.948 72.8152 631.671 71.6941 633.31C69.7154 636.198 68.8393 639.442 69.3289 642.994C69.8244 646.595 70.7503 650.208 71.5552 653.815C72.2951 657.127 72.3737 660.321 71.1063 663.285C70.7776 664.052 70.197 664.711 69.7312 665.421C69.6128 665.599 69.4924 665.777 69.3239 666.028C69.5577 666.079 69.6987 666.146 69.7932 666.123C71.618 665.681 73.4223 665.198 75.2657 664.798C75.7404 664.695 76.323 664.847 76.8547 664.883C76.9708 664.688 77.087 664.493 77.2032 664.297Z" fill="white" fill-opacity="0.1"/>
</g>
<g clip-path="url(#clip1_9_99)">
<path d="M71.3929 708.178C71.6523 708.15 71.9142 708.122 72.1736 708.094C72.9932 708.441 73.8145 708.782 74.6298 709.137C76.0951 709.778 77.5696 709.791 79.0502 709.174C80.1619 708.71 81.2696 708.235 82.3807 707.767C83.82 707.159 85.3189 706.935 86.8376 707.38C91.5258 708.754 96.2033 710.171 100.365 712.683C105.635 715.862 109.401 719.969 109.878 726.119C110.032 728.096 111.059 729.724 112.611 731.078C113.863 732.171 114.888 733.407 115.259 735.025C115.764 737.232 114.589 738.551 112.187 738.313C108.548 737.953 105.2 738.602 102.097 740.463C100.894 741.183 99.5815 741.764 98.2722 742.306C96.1285 743.19 93.9232 743.717 91.5491 743.134C86.3775 741.866 81.6128 739.836 77.7054 736.401C73.5068 732.709 70.9521 728.279 71.7069 722.686C71.9489 720.888 72.5108 719.125 72.9278 717.347C73.4672 715.046 73.2869 712.895 71.8745 710.825C71.4003 710.129 71.5379 709.07 71.3956 708.178L71.3929 708.178Z" fill="white" fill-opacity="0.1"/>
</g>
<g clip-path="url(#clip2_9_99)">
<path d="M214 723.643C211.406 727.801 206.889 728.908 201.898 729.691C202.335 729.891 202.756 730.122 203.209 730.289C204.823 730.88 206.512 731.347 208.047 732.067C208.962 732.495 209.861 733.193 210.382 733.967C211.356 735.417 211.772 737.115 210.598 738.598C209.377 740.139 207.358 740.037 205.503 739.828C202.763 739.521 200.874 737.964 199.185 736.192C198.499 735.472 197.827 734.742 196.794 734.113C196.897 735.102 196.994 736.09 197.103 737.079C197.653 741.979 195.87 743.569 191.038 745.769C189.605 746.423 187.838 745.66 187.476 744.075C187.133 742.567 186.908 740.817 187.448 739.416C188.566 736.524 190.223 733.794 191.665 730.998C191.89 730.564 192.137 730.138 192.374 729.71C192.287 729.617 192.199 729.523 192.112 729.43C191.219 729.806 190.326 730.188 189.43 730.556C186.231 731.866 182.969 732.934 179.348 732.825C176.523 732.739 174.609 731.795 174.147 730.163C173.613 728.29 174.587 726.944 177.397 725.661C181.611 723.739 187.951 724.692 191.253 727.741C191.494 727.96 191.787 728.136 192.358 728.205C192.174 727.752 191.993 727.296 191.803 726.845C190.523 723.849 189.118 720.888 188.013 717.842C187.592 716.677 187.735 715.318 187.816 714.057C187.941 711.994 190.585 710.159 193.454 710.008C195.592 709.896 196.882 711.049 197.525 713.351C198.358 716.353 197.584 719.199 196.713 722.055C196.357 723.222 196.02 724.392 195.674 725.56C195.876 725.703 196.076 725.848 196.279 725.991C196.582 725.532 196.81 725.019 197.197 724.626C199.629 722.165 202.366 720.053 206.009 719.102C209.705 718.138 212.184 719.069 214 722.008V723.645V723.643Z" fill="white" fill-opacity="0.1"/>
</g>
<g clip-path="url(#clip3_9_99)">
<path d="M80.2184 529.761C78.7816 528.637 77.5019 527.174 75.88 526.455C71.1623 524.358 66.4143 525.396 61.7336 526.666C57.4545 527.83 53.2325 529.255 48.8828 530.108C44.3129 531.001 40.6424 529.191 38.0413 525.29C36.829 523.473 35.4699 521.749 34.1425 520.009C33.6076 519.305 32.8253 518.825 32.1477 519.686C29.7224 522.777 26.278 524.43 22.8448 526.125C22.6055 526.245 22.4111 526.448 22.2381 526.578C22.2682 526.74 22.263 526.821 22.2887 526.832C27.5888 529.155 29.5104 534.229 32.2375 538.579C36.3326 545.121 40.5118 551.571 46.1679 556.984C49.9769 560.628 54.1633 563.674 59.4926 564.85C62.0851 565.422 64.625 565.164 67.0373 564.268C67.7247 564.012 68.5117 563.12 68.5597 562.461C68.5971 561.946 67.6598 561.078 66.9843 560.825C64.6317 559.951 62.1744 559.359 59.8178 558.503C57.1846 557.546 55.4988 555.653 54.7723 552.986C53.8802 549.707 55.9207 546.701 59.4473 546.155C62.3821 545.699 65.1554 546.236 67.7271 547.736C70.1106 549.127 71.3354 551.961 70.79 554.582C70.6224 555.385 70.5322 556.224 70.5377 557.047C70.5753 561.27 73.5064 561.37 76.1597 560.024C78.5059 558.833 79.4049 556.179 78.9173 552.989C78.3605 549.376 75.8398 547.127 73.2015 544.929C70.8081 542.933 67.8682 542.45 64.9314 541.961C64.5369 541.893 64.1424 541.824 63.7518 541.737C63.6844 541.723 63.6433 541.604 63.3506 541.209C64.725 541.182 65.9277 540.938 67.0212 541.178C70.4032 541.922 73.7484 542.849 77.1075 543.709C77.5946 543.835 78.0697 544.017 78.5645 544.087C80.484 544.366 81.7241 543.089 81.1665 541.264C80.3807 538.696 78.5007 536.872 76.0812 535.868C71.5018 533.964 66.7084 533.194 61.7637 534.058C61.2712 534.147 60.7719 534.211 60.2766 534.255C60.1531 534.268 60.0119 534.165 59.4286 533.951C60.6883 533.517 61.5968 533.141 62.5403 532.894C67.412 531.626 72.2682 531.874 77.1087 533.32C79.3121 533.978 79.7824 533.757 80.7615 531.767L80.2195 529.765L80.2184 529.761Z" fill="white" fill-opacity="0.1"/>
</g>
<g clip-path="url(#clip4_9_99)">
<path d="M299 707.095C297.249 709.867 294.2 710.605 290.831 711.127C291.126 711.261 291.41 711.415 291.716 711.526C292.805 711.92 293.945 712.231 294.982 712.711C295.599 712.997 296.206 713.462 296.558 713.978C297.215 714.945 297.496 716.077 296.703 717.065C295.88 718.093 294.516 718.025 293.265 717.886C291.415 717.681 290.14 716.642 289 715.461C288.536 714.982 288.083 714.495 287.386 714.075C287.455 714.734 287.521 715.394 287.595 716.053C287.965 719.319 286.762 720.38 283.5 721.846C282.533 722.282 281.341 721.773 281.096 720.717C280.865 719.711 280.713 718.545 281.077 717.611C281.832 715.683 282.951 713.863 283.924 711.999C284.076 711.709 284.242 711.426 284.402 711.14C284.343 711.078 284.284 711.015 284.225 710.953C283.623 711.204 283.02 711.459 282.415 711.704C280.256 712.577 278.054 713.29 275.609 713.216C273.703 713.16 272.411 712.53 272.099 711.442C271.739 710.193 272.396 709.296 274.293 708.441C277.137 707.159 281.417 707.795 283.646 709.827C283.808 709.974 284.006 710.091 284.392 710.137C284.267 709.834 284.145 709.53 284.017 709.23C283.153 707.232 282.205 705.259 281.459 703.228C281.174 702.451 281.271 701.545 281.326 700.705C281.41 699.329 283.195 698.106 285.131 698.006C286.575 697.931 287.445 698.7 287.879 700.234C288.442 702.235 287.919 704.132 287.331 706.037C287.091 706.815 286.863 707.595 286.629 708.373C286.766 708.468 286.901 708.565 287.038 708.661C287.243 708.355 287.396 708.012 287.658 707.751C289.299 706.11 291.147 704.702 293.606 704.068C296.101 703.426 297.774 704.046 299 706.006V707.097V707.095Z" fill="white" fill-opacity="0.1"/>
</g>
<g clip-path="url(#clip5_9_99)">
<path d="M37.6318 422.748C38.6246 423.71 39.5633 424.721 40.6213 425.628C43.3504 427.969 46.5908 429.653 50.5307 430.424C55.8023 431.456 60.6415 433.121 64.3838 436.346C66.3179 438.01 67.8584 439.915 68.2757 442.42C68.5896 444.305 68.2371 446.194 66.9487 447.998C66.0066 449.317 64.5906 450.106 62.9529 450.568C60.4166 451.285 57.9435 451.432 55.535 450.941C55.2835 450.89 55.0067 450.899 54.6803 450.987C55.9866 453.008 57.9432 454.3 60.5479 454.924C63.2378 455.568 65.8194 455.172 68.3514 453.325C68.4233 457.13 66.7936 460.361 62.8969 463.068C64.6026 463.698 66.3304 463.345 67.9274 462.68C72.5288 460.762 74.8049 457.738 74.2437 453.615C75.52 453.771 76.6963 454.006 77.9129 454.047C80.689 454.14 83.0162 452.859 85.2461 451.3C86.9889 450.081 88.3827 448.676 89.0699 446.869C89.1869 446.563 89.1074 446.225 89.1198 445.903C88.7556 446.043 88.3128 446.111 88.0388 446.334C86.6339 447.477 85.1781 448.445 83.2818 448.73C81.4305 449.009 79.7028 448.906 78.0783 448.377C77.8831 448.313 77.7201 448.196 77.6088 448.139C78.9258 447.33 80.2415 446.578 81.4757 445.732C81.9194 445.428 82.2419 444.919 82.4982 444.464C84.3039 441.246 83.8077 438.412 81.9425 435.836C81.68 435.473 81.2761 435.192 80.9378 434.874C80.8226 434.919 80.7065 434.962 80.5894 435.008C80.5256 435.455 80.4325 435.902 80.4035 436.346C80.3017 437.926 79.8302 439.456 78.7866 440.893C77.6443 442.467 75.9826 443.005 74.4074 442.126C73.2649 441.488 72.1768 440.672 71.4381 439.698C70.2359 438.112 69.222 436.389 68.3416 434.624C66.7916 431.51 64.3417 429.096 60.8956 427.62C57.4037 426.124 53.6735 424.968 50.0129 423.717C46.6503 422.569 43.7424 420.951 41.7501 418.37C41.2349 417.701 40.9485 416.887 40.5572 416.138C40.4592 415.949 40.3631 415.758 40.2269 415.49C40.0578 415.652 39.923 415.73 39.894 415.818C39.3307 417.521 38.814 419.228 38.2025 420.924C38.0448 421.36 37.6015 421.749 37.2893 422.158C37.4035 422.355 37.5176 422.551 37.6318 422.748Z" fill="white" fill-opacity="0.1"/>
</g>
<g clip-path="url(#clip6_9_99)">
<path d="M57.0424 307.162C53.6324 303.483 53.7725 299.026 54.3637 294.241C54.0453 294.575 53.7013 294.884 53.4113 295.242C52.3843 296.521 51.4592 297.908 50.3256 299.075C49.6506 299.77 48.7131 300.365 47.8029 300.593C46.0993 301.017 44.3037 300.855 43.1554 299.317C41.9629 297.718 42.6166 295.915 43.3312 294.296C44.3865 291.903 46.4468 290.682 48.6646 289.71C49.5657 289.315 50.4734 288.937 51.3796 288.198C50.3716 287.977 49.3654 287.751 48.3557 287.536C43.35 286.478 42.2624 284.353 41.4056 279.262C41.1502 277.753 42.3906 276.39 44.0601 276.564C45.6483 276.731 47.4434 277.083 48.6835 278.019C51.2433 279.953 53.4946 282.327 55.8702 284.526C56.2387 284.868 56.593 285.228 56.9526 285.58C57.069 285.53 57.1855 285.48 57.302 285.43C57.1736 284.499 57.0398 283.567 56.9204 282.636C56.4984 279.311 56.333 276.007 57.4334 272.751C58.2913 270.211 59.7515 268.772 61.4946 268.871C63.4969 268.981 64.5637 270.294 65.0654 273.254C65.8165 277.695 63.136 283.154 59.2108 285.187C58.9272 285.335 58.6727 285.546 58.4482 286.044C58.9477 286.02 59.4491 286.001 59.9475 285.971C63.2672 285.76 66.5857 285.424 69.9064 285.387C71.1758 285.374 72.4836 285.937 73.7106 286.411C75.7202 287.18 76.8142 290.166 76.1783 292.821C75.7044 294.8 74.2083 295.605 71.7516 295.458C68.5487 295.262 65.9412 293.654 63.3493 291.955C62.2901 291.261 61.2231 290.583 60.1613 289.897C59.9642 290.036 59.7653 290.171 59.5682 290.31C59.9398 290.731 60.3863 291.101 60.6695 291.578C62.4421 294.57 63.7853 297.729 63.7294 301.342C63.6726 305.007 62.0713 306.964 58.6618 307.681L57.0397 307.161L57.0424 307.162Z" fill="white" fill-opacity="0.1"/>
</g>
<g clip-path="url(#clip7_9_99)">
<path d="M72.9085 375.413C72.7074 375.387 72.5043 375.361 72.3032 375.335C71.7345 374.976 71.1633 374.621 70.5991 374.258C69.5852 373.604 68.4684 373.346 67.2507 373.488C66.3364 373.594 65.4233 373.708 64.5087 373.818C63.3238 373.96 62.1523 373.849 61.068 373.31C57.7208 371.646 54.3884 369.956 51.6143 367.659C48.1016 364.752 45.8721 361.51 46.4496 357.526C46.635 356.246 46.1043 355.04 45.134 353.918C44.3511 353.013 43.7622 352.056 43.7283 350.967C43.6821 349.481 44.7756 348.842 46.5612 349.399C49.2676 350.243 51.9069 350.397 54.5458 349.74C55.5684 349.487 56.6531 349.339 57.7292 349.217C59.4908 349.019 61.2447 349.056 62.9568 349.828C66.687 351.506 69.9921 353.599 72.4319 356.439C75.0533 359.491 76.3147 362.734 74.8872 366.155C74.4289 367.255 73.7331 368.279 73.1451 369.336C72.3842 370.705 72.1922 372.101 72.9475 373.653C73.201 374.174 72.9349 374.823 72.9064 375.413L72.9085 375.413Z" fill="white" fill-opacity="0.1"/>
</g>
<g clip-path="url(#clip8_9_99)">
<path d="M408.322 241.496C405.034 245.131 400.392 245.422 395.341 245.31C395.736 245.585 396.11 245.887 396.526 246.131C398.01 246.998 399.589 247.756 400.974 248.735C401.798 249.319 402.56 250.164 402.936 251.019C403.639 252.618 403.747 254.362 402.33 255.615C400.856 256.916 398.886 256.459 397.098 255.926C394.455 255.139 392.871 253.272 391.522 251.23C390.973 250.4 390.442 249.563 389.536 248.761C389.463 249.752 389.383 250.743 389.316 251.735C388.991 256.655 386.956 257.906 381.811 259.217C380.285 259.607 378.681 258.544 378.604 256.92C378.533 255.375 378.621 253.613 379.4 252.33C381.011 249.681 383.125 247.286 385.038 244.789C385.336 244.402 385.654 244.026 385.963 243.646C385.894 243.539 385.824 243.432 385.755 243.324C384.81 243.537 383.863 243.755 382.917 243.959C379.536 244.683 376.136 245.158 372.592 244.41C369.826 243.827 368.11 242.559 367.943 240.872C367.749 238.934 368.945 237.781 371.937 237.015C376.425 235.867 382.496 237.926 385.208 241.51C385.406 241.769 385.664 241.994 386.214 242.162C386.113 241.684 386.015 241.203 385.907 240.726C385.177 237.55 384.318 234.388 383.768 231.194C383.559 229.974 383.941 228.661 384.244 227.434C384.731 225.426 387.658 224.088 390.508 224.446C392.632 224.713 393.697 226.076 393.924 228.455C394.214 231.557 392.949 234.221 391.587 236.879C391.03 237.965 390.492 239.057 389.944 240.145C390.119 240.321 390.29 240.5 390.464 240.676C390.843 240.278 391.158 239.813 391.609 239.495C394.437 237.502 397.505 235.907 401.258 235.615C405.066 235.319 407.342 236.674 408.61 239.887L408.321 241.499L408.322 241.496Z" fill="white" fill-opacity="0.1"/>
</g>
<g clip-path="url(#clip9_9_99)">
<path d="M381.485 17.45C381.703 17.5123 381.924 17.5752 382.142 17.6374C382.662 18.2213 383.187 18.7991 383.7 19.3886C384.622 20.4491 385.796 20.9561 387.221 20.9067C388.291 20.8694 389.362 20.8202 390.434 20.7784C391.822 20.7235 393.108 21.0285 394.149 21.9334C397.363 24.7278 400.551 27.5568 402.9 31.1832C405.875 35.7733 407.286 40.6806 405.269 46.2952C404.621 48.0998 404.808 49.8887 405.521 51.6109C406.096 53.0009 406.434 54.4414 406.099 56.0005C405.642 58.128 404.188 58.9025 402.36 57.8843C399.59 56.3414 396.659 55.7917 393.451 56.399C392.209 56.6332 390.932 56.7076 389.674 56.7478C387.615 56.8108 385.645 56.5375 383.974 55.2217C380.332 52.3594 377.313 48.9582 375.527 44.5988C373.609 39.9135 373.294 35.1262 376.079 30.4199C376.973 28.9072 378.11 27.5325 379.137 26.0968C380.466 24.2376 381.161 22.2691 380.838 19.959C380.73 19.1823 381.253 18.2899 381.487 17.4507L381.485 17.45Z" fill="white" fill-opacity="0.1"/>
</g>
<path d="M96.2632 62.4253C91.9428 59.8766 90.8012 55.5663 89.9979 50.8123C89.7883 51.223 89.5474 51.6181 89.3721 52.0443C88.7541 53.5638 88.2646 55.157 87.5126 56.5998C87.0648 57.459 86.337 58.2978 85.53 58.7765C84.0191 59.6707 82.2523 60.0295 80.7118 58.8846C79.1115 57.694 79.2217 55.7792 79.443 54.0235C79.7691 51.4285 81.3935 49.6684 83.2403 48.1023C83.9905 47.4654 84.7521 46.8436 85.4087 45.876C84.3798 45.9532 83.3509 46.0245 82.322 46.1076C77.223 46.5271 75.5725 44.8022 73.2944 40.1699C72.6175 38.7963 73.4158 37.1352 75.0653 36.8245C76.6348 36.53 78.4556 36.353 79.9117 36.8948C82.9181 38.0156 85.7547 39.6457 88.6604 41.0728C89.1114 41.2951 89.5538 41.5381 89.999 41.7721C90.0964 41.6911 90.1937 41.6101 90.2911 41.5291C89.9016 40.6739 89.5064 39.8185 89.1255 38.9605C87.7695 35.8963 86.6652 32.7779 86.7875 29.3432C86.8824 26.6636 87.8696 24.867 89.568 24.4624C91.5179 23.9947 92.9159 24.9471 94.2441 27.6404C96.235 31.6803 95.2294 37.6781 92.0503 40.7494C91.8212 40.973 91.6377 41.2479 91.565 41.7886C92.0368 41.6233 92.5116 41.4609 92.9806 41.2895C96.101 40.1371 99.1844 38.8654 102.356 37.8799C103.568 37.5041 104.982 37.6687 106.294 37.772C108.44 37.9334 110.342 40.4812 110.493 43.2072C110.606 45.2391 109.403 46.4388 107.007 47.0013C103.882 47.7299 100.923 46.9359 97.9532 46.0498C96.7395 45.6878 95.523 45.3434 94.3093 44.9903C94.1603 45.1799 94.0084 45.3665 93.8594 45.5561C94.3359 45.853 94.8697 46.08 95.2775 46.4556C97.8324 48.8149 100.024 51.4573 101.004 54.9347C101.999 58.4629 101.025 60.796 97.9634 62.4593L96.2603 62.4252L96.2632 62.4253Z" fill="white" fill-opacity="0.1"/>
<g clip-path="url(#clip10_9_99)">
<path d="M445.868 195.861C445.668 195.894 445.466 195.927 445.266 195.959C444.618 195.778 443.969 195.602 443.324 195.415C442.166 195.079 441.022 195.152 439.896 195.636C439.05 195.999 438.208 196.37 437.363 196.737C436.268 197.212 435.114 197.441 433.921 197.235C430.237 196.599 426.561 195.934 423.245 194.527C419.047 192.747 415.983 190.279 415.396 186.297C415.207 185.017 414.353 184.013 413.103 183.216C412.093 182.573 411.255 181.824 410.911 180.791C410.441 179.38 411.306 178.455 413.176 178.478C416.011 178.511 418.584 177.903 420.924 176.519C421.832 175.983 422.829 175.532 423.825 175.106C425.456 174.412 427.147 173.946 429.009 174.195C433.063 174.735 436.829 175.795 439.98 177.817C443.365 179.991 445.502 182.737 445.114 186.424C444.989 187.609 444.616 188.789 444.355 189.97C444.018 191.5 444.233 192.892 445.401 194.163C445.793 194.59 445.724 195.288 445.866 195.861L445.868 195.861Z" fill="white" fill-opacity="0.1"/>
</g>
<path d="M436.749 329.213C436.549 329.246 436.347 329.279 436.146 329.312C435.499 329.13 434.85 328.954 434.205 328.767C433.047 328.431 431.903 328.504 430.777 328.988C429.931 329.352 429.089 329.723 428.244 330.089C427.149 330.565 425.995 330.794 424.802 330.588C421.118 329.951 417.442 329.286 414.126 327.879C409.928 326.099 406.864 323.631 406.277 319.649C406.088 318.369 405.234 317.365 403.983 316.569C402.974 315.926 402.136 315.177 401.792 314.143C401.322 312.732 402.187 311.808 404.057 311.83C406.892 311.864 409.465 311.256 411.805 309.871C412.713 309.335 413.71 308.884 414.706 308.459C416.337 307.764 418.028 307.298 419.89 307.548C423.944 308.088 427.71 309.147 430.86 311.17C434.246 313.344 436.383 316.09 435.994 319.777C435.87 320.961 435.497 322.142 435.236 323.323C434.899 324.852 435.114 326.244 436.282 327.515C436.674 327.943 436.605 328.64 436.747 329.214L436.749 329.213Z" fill="white" fill-opacity="0.1"/>
<path d="M244.749 457.213C244.549 457.246 244.347 457.279 244.146 457.312C243.499 457.13 242.85 456.954 242.205 456.767C241.047 456.431 239.903 456.504 238.777 456.988C237.931 457.352 237.089 457.723 236.244 458.089C235.149 458.565 233.995 458.794 232.802 458.588C229.118 457.951 225.442 457.286 222.126 455.879C217.928 454.099 214.864 451.631 214.277 447.649C214.088 446.369 213.234 445.365 211.983 444.569C210.974 443.926 210.136 443.177 209.792 442.143C209.322 440.732 210.187 439.808 212.057 439.83C214.892 439.864 217.465 439.256 219.805 437.871C220.713 437.335 221.71 436.884 222.706 436.459C224.337 435.764 226.028 435.298 227.89 435.548C231.944 436.088 235.71 437.147 238.86 439.17C242.246 441.344 244.383 444.09 243.994 447.777C243.87 448.961 243.497 450.142 243.236 451.323C242.899 452.852 243.114 454.244 244.282 455.515C244.674 455.943 244.605 456.64 244.747 457.214L244.749 457.213Z" fill="white" fill-opacity="0.1"/>
<path d="M331.749 481.213C331.549 481.246 331.347 481.279 331.146 481.312C330.499 481.13 329.85 480.954 329.205 480.767C328.047 480.431 326.903 480.504 325.777 480.988C324.931 481.352 324.089 481.723 323.244 482.089C322.149 482.565 320.995 482.794 319.802 482.588C316.118 481.951 312.442 481.286 309.126 479.879C304.928 478.099 301.864 475.631 301.277 471.649C301.088 470.369 300.234 469.365 298.983 468.569C297.974 467.926 297.136 467.177 296.792 466.143C296.322 464.732 297.187 463.808 299.057 463.83C301.892 463.864 304.465 463.256 306.805 461.871C307.713 461.335 308.71 460.884 309.706 460.459C311.337 459.764 313.028 459.298 314.89 459.548C318.944 460.088 322.71 461.147 325.86 463.17C329.246 465.344 331.383 468.09 330.994 471.777C330.87 472.961 330.497 474.142 330.236 475.323C329.899 476.852 330.114 478.244 331.282 479.515C331.674 479.943 331.605 480.64 331.747 481.214L331.749 481.213Z" fill="white" fill-opacity="0.1"/>
<g clip-path="url(#clip11_9_99)">
<path d="M404.194 538.651C404.76 537.426 405.395 536.23 405.883 534.967C407.142 531.708 407.568 528.232 406.841 524.465C405.867 519.424 405.674 514.539 407.416 510.064C408.314 507.753 409.594 505.703 411.884 504.433C413.606 503.477 415.583 503.11 417.829 503.603C419.471 503.963 420.773 504.933 421.84 506.218C423.493 508.207 424.566 510.345 424.992 512.655C425.036 512.896 425.15 513.138 425.358 513.395C426.84 511.512 427.366 509.314 426.996 506.782C426.614 504.168 425.257 502.023 422.503 500.445C426.19 499.013 429.957 499.295 434.065 501.773C434.04 500.035 433.046 498.632 431.795 497.456C428.193 494.07 424.386 493.141 420.571 495.121C420.244 493.934 420.031 492.808 419.614 491.715C418.662 489.223 416.535 487.622 414.176 486.207C412.331 485.102 410.435 484.372 408.412 484.414C408.07 484.42 407.77 484.612 407.451 484.717C407.724 484.989 407.956 485.357 408.278 485.519C409.922 486.353 411.414 487.294 412.405 488.872C413.373 490.411 413.921 491.979 414.016 493.608C414.027 493.804 413.974 493.99 413.96 494.109C412.675 493.233 411.447 492.338 410.157 491.549C409.692 491.266 409.074 491.163 408.534 491.1C404.714 490.657 402.133 492.116 400.319 494.694C400.063 495.058 399.941 495.516 399.758 495.93C399.845 496.016 399.93 496.103 400.019 496.191C400.48 496.086 400.951 496.008 401.396 495.874C402.976 495.396 404.647 495.264 406.443 495.671C408.409 496.117 409.558 497.396 409.292 499.107C409.099 500.349 408.711 501.606 408.038 502.61C406.941 504.246 405.64 505.763 404.247 507.178C401.789 509.671 400.353 512.709 400.208 516.292C400.059 519.923 400.332 523.643 400.487 527.335C400.63 530.727 400.143 533.884 398.372 536.577C397.913 537.274 397.225 537.821 396.641 538.436C396.493 538.591 396.343 538.745 396.133 538.962C396.354 539.054 396.481 539.145 396.578 539.139C398.452 539.026 400.313 538.869 402.198 538.801C402.684 538.784 403.23 539.037 403.747 539.166C403.896 538.995 404.045 538.823 404.194 538.651Z" fill="white" fill-opacity="0.1"/>
</g>
<g clip-path="url(#clip12_9_99)">
<path d="M387.255 720.819C387.822 719.594 388.456 718.398 388.944 717.135C390.204 713.876 390.63 710.4 389.902 706.633C388.928 701.592 388.735 696.707 390.478 692.233C391.376 689.921 392.656 687.871 394.946 686.601C396.667 685.645 398.645 685.278 400.89 685.771C402.532 686.131 403.835 687.101 404.901 688.386C406.554 690.375 407.628 692.513 408.053 694.823C408.098 695.064 408.211 695.306 408.419 695.563C409.901 693.68 410.428 691.482 410.058 688.95C409.676 686.336 408.319 684.191 405.564 682.613C409.252 681.181 413.019 681.463 417.126 683.941C417.101 682.203 416.107 680.8 414.857 679.624C411.255 676.238 407.447 675.309 403.633 677.289C403.305 676.102 403.093 674.976 402.675 673.883C401.723 671.391 399.597 669.79 397.238 668.375C395.392 667.27 393.497 666.54 391.473 666.582C391.131 666.588 390.831 666.78 390.512 666.885C390.786 667.157 391.018 667.525 391.339 667.687C392.983 668.521 394.475 669.462 395.466 671.04C396.434 672.579 396.983 674.147 397.077 675.776C397.088 675.972 397.035 676.158 397.021 676.277C395.737 675.401 394.508 674.506 393.218 673.717C392.754 673.434 392.136 673.331 391.595 673.268C387.775 672.825 385.195 674.284 383.38 676.862C383.124 677.226 383.003 677.684 382.819 678.098C382.906 678.184 382.992 678.271 383.08 678.359C383.541 678.254 384.012 678.176 384.457 678.042C386.038 677.564 387.708 677.432 389.504 677.839C391.47 678.285 392.62 679.564 392.353 681.275C392.16 682.517 391.772 683.774 391.099 684.778C390.003 686.414 388.701 687.931 387.308 689.346C384.851 691.839 383.415 694.877 383.269 698.46C383.121 702.091 383.394 705.811 383.548 709.503C383.691 712.895 383.204 716.052 381.433 718.745C380.974 719.442 380.286 719.989 379.702 720.605C379.554 720.759 379.404 720.913 379.194 721.13C379.415 721.222 379.542 721.313 379.639 721.307C381.513 721.194 383.375 721.037 385.26 720.969C385.745 720.952 386.292 721.205 386.809 721.334C386.958 721.163 387.106 720.991 387.255 720.819Z" fill="white" fill-opacity="0.1"/>
</g>
<g clip-path="url(#clip13_9_99)">
<path d="M376.031 581.131C376.291 581.149 376.554 581.168 376.814 581.186C377.56 581.673 378.308 582.153 379.048 582.647C380.377 583.537 381.826 583.81 383.392 583.464C384.568 583.205 385.742 582.932 386.919 582.668C388.443 582.324 389.958 582.368 391.374 583.075C395.745 585.255 400.099 587.477 403.752 590.685C408.377 594.745 411.357 599.452 410.741 605.59C410.543 607.563 411.266 609.347 412.554 610.954C413.593 612.251 414.384 613.649 414.463 615.306C414.57 617.569 413.18 618.659 410.859 618C407.34 617.003 403.93 617.05 400.547 618.333C399.236 618.83 397.841 619.17 396.457 619.472C394.191 619.963 391.927 620.093 389.693 619.098C384.827 616.937 380.496 614.097 377.257 610.026C373.777 605.65 372.045 600.838 373.777 595.466C374.332 593.739 375.197 592.103 375.922 590.428C376.859 588.258 377.062 586.108 376.037 583.822C375.694 583.053 376.016 582.035 376.034 581.132L376.031 581.131Z" fill="white" fill-opacity="0.1"/>
</g>
<g clip-path="url(#clip14_9_99)">
<path d="M420.934 406.346C419.718 404.986 418.717 403.319 417.248 402.325C412.975 399.427 408.118 399.61 403.286 400.034C398.869 400.423 394.462 401.079 390.03 401.15C385.374 401.221 382.081 398.792 380.21 394.492C379.338 392.489 378.305 390.553 377.306 388.605C376.904 387.818 376.219 387.207 375.4 387.935C372.466 390.549 368.784 391.567 365.105 392.629C364.849 392.705 364.621 392.87 364.428 392.968C364.429 393.132 364.41 393.211 364.433 393.227C369.239 396.45 370.234 401.783 372.15 406.547C375.024 413.709 377.998 420.796 382.609 427.123C385.714 431.383 389.296 435.121 394.334 437.22C396.784 438.241 399.33 438.437 401.863 437.98C402.584 437.85 403.517 437.111 403.68 436.471C403.808 435.971 403.039 434.951 402.419 434.582C400.258 433.306 397.944 432.289 395.775 431.03C393.353 429.623 392.028 427.462 391.784 424.709C391.485 421.324 394.025 418.725 397.593 418.811C400.562 418.881 403.196 419.9 405.463 421.831C407.563 423.62 408.268 426.626 407.268 429.11C406.961 429.871 406.724 430.68 406.584 431.492C405.875 435.655 408.742 436.271 411.591 435.416C414.111 434.658 415.465 432.205 415.549 428.978C415.639 425.323 413.555 422.665 411.347 420.035C409.344 417.648 406.536 416.652 403.731 415.652C403.355 415.515 402.979 415.379 402.61 415.224C402.546 415.198 402.527 415.074 402.308 414.633C403.666 414.849 404.893 414.822 405.927 415.251C409.124 416.581 412.253 418.084 415.407 419.525C415.864 419.734 416.3 419.997 416.774 420.154C418.614 420.768 420.061 419.73 419.834 417.835C419.515 415.168 417.986 413.041 415.782 411.625C411.612 408.942 407.03 407.337 402.01 407.314C401.51 407.315 401.007 407.289 400.511 407.246C400.388 407.236 400.267 407.109 399.731 406.796C401.047 406.591 402.008 406.382 402.98 406.305C407.999 405.918 412.735 407.021 417.244 409.299C419.296 410.336 419.798 410.202 421.114 408.416L420.934 406.35L420.934 406.346Z" fill="white" fill-opacity="0.1"/>
</g>
<g clip-path="url(#clip15_9_99)">
<path d="M313.013 34.1585C312.158 33.1923 311.454 32.0084 310.421 31.3014C307.417 29.2422 304.005 29.3698 300.61 29.6681C297.507 29.9426 294.411 30.4068 291.297 30.4549C288.026 30.5035 285.711 28.7765 284.393 25.7224C283.779 24.2999 283.052 22.9242 282.349 21.5409C282.066 20.9816 281.584 20.5478 281.009 21.0642C278.95 22.919 276.363 23.6405 273.779 24.3924C273.599 24.4463 273.44 24.5634 273.304 24.633C273.305 24.7494 273.291 24.8055 273.307 24.8167C276.686 27.1077 277.389 30.8954 278.738 34.2788C280.762 39.3662 282.856 44.4002 286.1 48.8952C288.284 51.9212 290.804 54.5772 294.345 56.0702C296.067 56.7966 297.856 56.9363 299.635 56.6135C300.142 56.5214 300.796 55.9971 300.911 55.5424C301 55.1873 300.459 54.4627 300.023 54.2009C298.504 53.2935 296.878 52.5705 295.353 51.6756C293.65 50.6751 292.718 49.1401 292.545 47.1848C292.333 44.7811 294.116 42.937 296.622 42.9994C298.708 43.0504 300.56 43.7751 302.154 45.1472C303.631 46.4191 304.128 48.554 303.427 50.3171C303.211 50.8576 303.046 51.432 302.948 52.0084C302.452 54.9641 304.467 55.4029 306.468 54.7967C308.238 54.2598 309.188 52.5185 309.245 50.2272C309.306 47.6321 307.84 45.7431 306.287 43.8748C304.878 42.1787 302.904 41.4706 300.933 40.7593C300.669 40.6619 300.404 40.5645 300.145 40.4545C300.1 40.4358 300.086 40.3477 299.933 40.035C300.887 40.1887 301.749 40.17 302.475 40.4755C304.723 41.4214 306.922 42.4899 309.139 43.5144C309.46 43.6636 309.767 43.8504 310.1 43.962C311.393 44.3986 312.409 43.6623 312.249 42.3165C312.022 40.4227 310.947 38.9118 309.398 37.905C306.465 35.9978 303.245 34.8564 299.718 34.8377C299.367 34.8376 299.013 34.8192 298.665 34.7882C298.578 34.7812 298.493 34.6913 298.116 34.4689C299.041 34.3237 299.716 34.1754 300.399 34.1216C303.925 33.849 307.254 34.6343 310.423 36.2541C311.866 36.9914 312.218 36.8963 313.141 35.6289L313.014 34.1615L313.013 34.1585Z" fill="white" fill-opacity="0.1"/>
</g>
<path d="M71.9933 185.642C69.3992 189.8 64.8823 190.907 59.8909 191.69C60.3279 191.89 60.7493 192.121 61.2019 192.289C62.8158 192.879 64.5046 193.346 66.0404 194.066C66.955 194.494 67.854 195.192 68.3753 195.966C69.3493 197.417 69.7644 199.114 68.5907 200.597C67.3702 202.138 65.3505 202.036 63.4963 201.828C60.7555 201.52 58.867 199.963 57.1782 198.191C56.4915 197.471 55.8203 196.741 54.7871 196.112C54.8901 197.101 54.9869 198.089 55.0961 199.078C55.6455 203.978 53.8631 205.569 49.0309 207.769C47.5981 208.422 45.8312 207.659 45.4691 206.074C45.1258 204.566 44.901 202.816 45.441 201.416C46.5586 198.523 48.2161 195.793 49.6583 192.997C49.8831 192.563 50.1297 192.138 50.3669 191.709C50.2795 191.616 50.1921 191.522 50.1047 191.429C49.2119 191.805 48.3191 192.187 47.4233 192.555C44.2236 193.865 40.9616 194.934 37.3405 194.824C34.5155 194.739 32.602 193.794 32.14 192.162C31.6062 190.289 32.5801 188.943 35.3895 187.661C39.6037 185.738 45.9436 186.691 49.2463 189.74C49.4866 189.959 49.7801 190.135 50.3513 190.204C50.1671 189.751 49.9861 189.295 49.7957 188.844C48.5158 185.848 47.1111 182.887 46.0061 179.841C45.5846 178.676 45.7282 177.317 45.8094 176.056C45.9343 173.993 48.5782 172.159 51.447 172.008C53.5853 171.895 54.8745 173.048 55.5175 175.35C56.351 178.352 55.5768 181.198 54.7059 184.054C54.3501 185.222 54.0129 186.392 53.6664 187.559C53.8693 187.702 54.0691 187.847 54.272 187.99C54.5748 187.531 54.8027 187.018 55.1898 186.625C57.6215 184.164 60.3591 182.052 64.002 181.102C67.698 180.138 70.1765 181.069 71.9933 184.008V185.645V185.642Z" fill="white" fill-opacity="0.1"/>
<path d="M332.993 121.642C330.399 125.8 325.882 126.907 320.891 127.69C321.328 127.89 321.749 128.121 322.202 128.289C323.816 128.879 325.505 129.346 327.04 130.066C327.955 130.494 328.854 131.192 329.375 131.966C330.349 133.417 330.764 135.114 329.591 136.597C328.37 138.138 326.351 138.036 324.496 137.828C321.756 137.52 319.867 135.963 318.178 134.191C317.491 133.471 316.82 132.741 315.787 132.112C315.89 133.101 315.987 134.089 316.096 135.078C316.646 139.978 314.863 141.569 310.031 143.769C308.598 144.422 306.831 143.659 306.469 142.074C306.126 140.566 305.901 138.816 306.441 137.416C307.559 134.523 309.216 131.793 310.658 128.997C310.883 128.563 311.13 128.138 311.367 127.709C311.28 127.616 311.192 127.522 311.105 127.429C310.212 127.805 309.319 128.187 308.423 128.555C305.224 129.865 301.962 130.934 298.341 130.824C295.515 130.739 293.602 129.794 293.14 128.162C292.606 126.289 293.58 124.943 296.39 123.661C300.604 121.738 306.944 122.691 310.246 125.74C310.487 125.959 310.78 126.135 311.351 126.204C311.167 125.751 310.986 125.295 310.796 124.844C309.516 121.848 308.111 118.887 307.006 115.841C306.585 114.676 306.728 113.317 306.809 112.056C306.934 109.993 309.578 108.159 312.447 108.008C314.585 107.895 315.874 109.048 316.518 111.35C317.351 114.352 316.577 117.198 315.706 120.054C315.35 121.222 315.013 122.392 314.666 123.559C314.869 123.702 315.069 123.847 315.272 123.99C315.575 123.531 315.803 123.018 316.19 122.625C318.621 120.164 321.359 118.052 325.002 117.102C328.698 116.138 331.176 117.069 332.993 120.008V121.645V121.642Z" fill="white" fill-opacity="0.1"/>
<path d="M245.993 614.642C243.399 618.8 238.882 619.907 233.891 620.69C234.328 620.89 234.749 621.121 235.202 621.289C236.816 621.879 238.505 622.346 240.04 623.066C240.955 623.494 241.854 624.192 242.375 624.966C243.349 626.417 243.764 628.114 242.591 629.597C241.37 631.138 239.351 631.036 237.496 630.828C234.756 630.52 232.867 628.963 231.178 627.191C230.491 626.471 229.82 625.741 228.787 625.112C228.89 626.101 228.987 627.089 229.096 628.078C229.646 632.978 227.863 634.569 223.031 636.769C221.598 637.422 219.831 636.659 219.469 635.074C219.126 633.566 218.901 631.816 219.441 630.416C220.559 627.523 222.216 624.793 223.658 621.997C223.883 621.563 224.13 621.138 224.367 620.709C224.28 620.616 224.192 620.522 224.105 620.429C223.212 620.805 222.319 621.187 221.423 621.555C218.224 622.865 214.962 623.934 211.341 623.824C208.515 623.739 206.602 622.794 206.14 621.162C205.606 619.289 206.58 617.943 209.39 616.661C213.604 614.738 219.944 615.691 223.246 618.74C223.487 618.959 223.78 619.135 224.351 619.204C224.167 618.751 223.986 618.295 223.796 617.844C222.516 614.848 221.111 611.887 220.006 608.841C219.585 607.676 219.728 606.317 219.809 605.056C219.934 602.993 222.578 601.159 225.447 601.008C227.585 600.895 228.874 602.048 229.518 604.35C230.351 607.352 229.577 610.198 228.706 613.054C228.35 614.222 228.013 615.392 227.666 616.559C227.869 616.702 228.069 616.847 228.272 616.99C228.575 616.531 228.803 616.018 229.19 615.625C231.621 613.164 234.359 611.052 238.002 610.102C241.698 609.138 244.176 610.069 245.993 613.008V614.645V614.642Z" fill="white" fill-opacity="0.1"/>
<path d="M29.5997 147.867C24.8969 146.122 23.0117 142.082 21.381 137.544C21.2473 137.986 21.0799 138.417 20.9827 138.868C20.643 140.472 20.4427 142.127 19.9574 143.68C19.6684 144.605 19.1003 145.559 18.3906 146.173C17.0615 147.32 15.3859 147.985 13.6674 147.13C11.8819 146.241 11.652 144.337 11.5596 142.57C11.422 139.958 12.7098 137.939 14.2508 136.071C14.8767 135.312 15.5164 134.565 15.9917 133.497C14.9926 133.754 13.9925 134.006 12.9945 134.27C8.04989 135.584 6.12055 134.178 3.05975 130.021C2.15079 128.789 2.64301 127.013 4.2117 126.415C5.70447 125.848 7.46526 125.352 8.99418 125.628C12.1514 126.2 15.2314 127.303 18.3436 128.194C18.8267 128.334 19.3051 128.494 19.7847 128.646C19.8662 128.549 19.9477 128.452 20.0292 128.355C19.4947 127.582 18.9545 126.81 18.428 126.033C16.552 123.257 14.914 120.383 14.4275 116.98C14.0474 114.326 14.7016 112.383 16.3017 111.685C18.1384 110.88 19.6827 111.571 21.4659 113.987C24.1393 117.611 24.2093 123.692 21.623 127.277C21.4369 127.538 21.3049 127.841 21.3289 128.386C21.7641 128.14 22.2027 127.896 22.6341 127.644C25.5017 125.959 28.3119 124.162 31.2592 122.632C32.3863 122.048 33.8072 121.96 35.1162 121.83C37.2567 121.609 39.5798 123.781 40.21 126.437C40.6796 128.417 39.7076 129.811 37.4487 130.788C34.5015 132.057 31.4492 131.798 28.3695 131.451C27.111 131.309 25.8528 131.185 24.5958 131.052C24.4826 131.265 24.3661 131.476 24.2529 131.689C24.7744 131.897 25.3399 132.026 25.8076 132.323C28.7392 134.194 31.363 136.408 32.9426 139.657C34.5452 142.954 33.9986 145.422 31.2791 147.601L29.5969 147.868L29.5997 147.867Z" fill="white" fill-opacity="0.1"/>
<g clip-path="url(#clip16_9_99)">
<path d="M225.068 19.7477C224.076 20.7099 223.137 21.7214 222.079 22.6283C219.35 24.9692 216.109 26.6525 212.17 27.4242C206.898 28.4558 202.059 30.121 198.316 33.346C196.382 35.0103 194.842 36.9147 194.424 39.4205C194.111 41.3047 194.463 43.194 195.752 44.998C196.694 46.3172 198.11 47.1061 199.747 47.568C202.284 48.285 204.757 48.4322 207.165 47.9412C207.417 47.8896 207.693 47.8993 208.02 47.9868C206.714 50.0076 204.757 51.3002 202.152 51.9237C199.462 52.5681 196.881 52.1719 194.349 50.3253C194.277 54.1296 195.907 57.3609 199.803 60.0678C198.098 60.6984 196.37 60.3454 194.773 59.6796C190.171 57.7617 187.895 54.7379 188.456 50.6153C187.18 50.7712 186.004 51.0063 184.787 51.0471C182.011 51.1403 179.684 49.8586 177.454 48.3005C175.711 47.0813 174.317 45.6764 173.63 43.8685C173.513 43.563 173.593 43.2253 173.58 42.9032C173.945 43.0432 174.387 43.1106 174.661 43.3345C176.066 44.4775 177.522 45.4449 179.418 45.73C181.27 46.0088 182.997 45.9056 184.622 45.3769C184.817 45.3133 184.98 45.1962 185.091 45.1388C183.774 44.3304 182.459 43.5784 181.225 42.7323C180.781 42.4277 180.458 41.9187 180.202 41.4635C178.396 38.2463 178.892 35.4121 180.758 32.836C181.02 32.4725 181.424 32.1925 181.762 31.8743C181.878 31.919 181.994 31.9623 182.111 32.008C182.175 32.4551 182.268 32.9021 182.297 33.3465C182.398 34.9259 182.87 36.4558 183.914 37.8934C185.056 39.4672 186.718 40.0051 188.293 39.1256C189.435 38.4879 190.523 37.6717 191.262 36.6983C192.464 35.1121 193.478 33.3891 194.359 31.6235C195.909 28.5095 198.359 26.0962 201.805 24.6202C205.297 23.1239 209.027 21.9675 212.687 20.7171C216.05 19.5691 218.958 17.9509 220.95 15.37C221.465 14.7015 221.752 13.8865 222.143 13.138C222.241 12.9485 222.337 12.7581 222.473 12.4904C222.642 12.6517 222.777 12.7298 222.806 12.818C223.369 14.5209 223.886 16.2283 224.498 17.9236C224.655 18.36 225.099 18.7492 225.411 19.1585C225.297 19.3549 225.183 19.5513 225.068 19.7477Z" fill="white" fill-opacity="0.1"/>
</g>
<g clip-path="url(#clip17_9_99)">
<path d="M237.694 141.081C238.035 139.774 238.449 138.486 238.706 137.156C239.37 133.726 239.175 130.23 237.793 126.65C235.944 121.861 234.891 117.086 235.815 112.374C236.29 109.94 237.188 107.697 239.217 106.042C240.743 104.797 242.624 104.086 244.922 104.174C246.602 104.239 248.055 104.964 249.332 106.04C251.31 107.705 252.744 109.62 253.572 111.818C253.658 112.048 253.812 112.266 254.063 112.483C255.188 110.367 255.319 108.11 254.507 105.684C253.669 103.178 251.954 101.307 248.964 100.24C252.341 98.1794 256.098 97.7908 260.579 99.5044C260.247 97.7986 259.021 96.5928 257.582 95.657C253.439 92.9604 249.527 92.7191 246.122 95.3414C245.59 94.2313 245.182 93.1602 244.578 92.1588C243.201 89.8737 240.825 88.6739 238.253 87.6981C236.241 86.9363 234.247 86.5532 232.262 86.9514C231.927 87.018 231.665 87.2598 231.37 87.4195C231.687 87.6391 231.981 87.9603 232.326 88.0631C234.091 88.5929 235.726 89.2562 236.98 90.6336C238.205 91.9779 239.022 93.4238 239.403 95.0105C239.448 95.2013 239.429 95.3942 239.436 95.514C238.017 94.8789 236.65 94.215 235.241 93.6664C234.734 93.4694 234.107 93.4776 233.564 93.5107C229.726 93.75 227.443 95.6418 226.113 98.5003C225.925 98.903 225.887 99.3758 225.779 99.8158C225.88 99.885 225.98 99.9557 226.083 100.026C226.517 99.842 226.968 99.6817 227.382 99.4711C228.853 98.7216 230.474 98.296 232.314 98.3797C234.327 98.4712 235.685 99.5265 235.725 101.258C235.754 102.514 235.594 103.82 235.11 104.928C234.319 106.731 233.306 108.455 232.185 110.093C230.207 112.981 229.331 116.225 229.82 119.778C230.316 123.378 231.241 126.991 232.046 130.598C232.786 133.911 232.865 137.105 231.597 140.068C231.269 140.835 230.688 141.495 230.222 142.204C230.104 142.383 229.984 142.56 229.815 142.811C230.049 142.862 230.19 142.93 230.284 142.907C232.109 142.464 233.914 141.981 235.757 141.581C236.232 141.478 236.814 141.631 237.346 141.667C237.462 141.471 237.578 141.276 237.694 141.081Z" fill="white" fill-opacity="0.1"/>
</g>
<g clip-path="url(#clip18_9_99)">
<path d="M358.068 184.748C357.076 185.71 356.137 186.721 355.079 187.628C352.35 189.969 349.109 191.653 345.17 192.424C339.898 193.456 335.059 195.121 331.316 198.346C329.382 200.01 327.842 201.915 327.424 204.42C327.111 206.305 327.463 208.194 328.752 209.998C329.694 211.317 331.11 212.106 332.747 212.568C335.284 213.285 337.757 213.432 340.165 212.941C340.417 212.89 340.693 212.899 341.02 212.987C339.714 215.008 337.757 216.3 335.152 216.924C332.462 217.568 329.881 217.172 327.349 215.325C327.277 219.13 328.907 222.361 332.803 225.068C331.098 225.698 329.37 225.345 327.773 224.68C323.171 222.762 320.895 219.738 321.456 215.615C320.18 215.771 319.004 216.006 317.787 216.047C315.011 216.14 312.684 214.859 310.454 213.3C308.711 212.081 307.317 210.676 306.63 208.869C306.513 208.563 306.593 208.225 306.58 207.903C306.945 208.043 307.387 208.111 307.661 208.334C309.066 209.477 310.522 210.445 312.418 210.73C314.27 211.009 315.997 210.906 317.622 210.377C317.817 210.313 317.98 210.196 318.091 210.139C316.774 209.33 315.459 208.578 314.225 207.732C313.781 207.428 313.458 206.919 313.202 206.464C311.396 203.246 311.892 200.412 313.758 197.836C314.02 197.473 314.424 197.192 314.762 196.874C314.878 196.919 314.994 196.962 315.111 197.008C315.175 197.455 315.268 197.902 315.297 198.346C315.398 199.926 315.87 201.456 316.914 202.893C318.056 204.467 319.718 205.005 321.293 204.126C322.435 203.488 323.523 202.672 324.262 201.698C325.464 200.112 326.478 198.389 327.359 196.624C328.909 193.51 331.359 191.096 334.805 189.62C338.297 188.124 342.027 186.968 345.687 185.717C349.05 184.569 351.958 182.951 353.95 180.37C354.465 179.701 354.752 178.887 355.143 178.138C355.241 177.949 355.337 177.758 355.473 177.49C355.642 177.652 355.777 177.73 355.806 177.818C356.369 179.521 356.886 181.228 357.498 182.924C357.655 183.36 358.099 183.749 358.411 184.158C358.297 184.355 358.183 184.551 358.068 184.748Z" fill="white" fill-opacity="0.1"/>
</g>
<g clip-path="url(#clip19_9_99)">
<path d="M239.75 339.214C239.55 339.247 239.348 339.28 239.148 339.312C238.5 339.131 237.851 338.955 237.207 338.768C236.048 338.432 234.904 338.505 233.778 338.989C232.932 339.352 232.09 339.723 231.245 340.09C230.151 340.565 228.996 340.794 227.803 340.588C224.12 339.952 220.443 339.287 217.127 337.88C212.929 336.1 209.865 333.632 209.278 329.65C209.089 328.37 208.236 327.366 206.985 326.569C205.976 325.926 205.137 325.177 204.793 324.144C204.323 322.733 205.188 321.808 207.059 321.831C209.893 321.864 212.466 321.256 214.807 319.872C215.714 319.336 216.711 318.885 217.707 318.459C219.338 317.765 221.03 317.299 222.891 317.548C226.945 318.088 230.711 319.148 233.862 321.17C237.247 323.344 239.384 326.09 238.996 329.777C238.872 330.962 238.498 332.142 238.237 333.323C237.9 334.853 238.116 336.245 239.284 337.516C239.676 337.943 239.606 338.641 239.748 339.214L239.75 339.214Z" fill="white" fill-opacity="0.1"/>
</g>
<g clip-path="url(#clip20_9_99)">
<path d="M337.068 366.748C336.076 367.71 335.137 368.721 334.079 369.628C331.35 371.969 328.109 373.653 324.17 374.424C318.898 375.456 314.059 377.121 310.316 380.346C308.382 382.01 306.842 383.915 306.424 386.42C306.111 388.305 306.463 390.194 307.752 391.998C308.694 393.317 310.11 394.106 311.747 394.568C314.284 395.285 316.757 395.432 319.165 394.941C319.417 394.89 319.693 394.899 320.02 394.987C318.714 397.008 316.757 398.3 314.152 398.924C311.462 399.568 308.881 399.172 306.349 397.325C306.277 401.13 307.907 404.361 311.803 407.068C310.098 407.698 308.37 407.345 306.773 406.68C302.171 404.762 299.895 401.738 300.456 397.615C299.18 397.771 298.004 398.006 296.787 398.047C294.011 398.14 291.684 396.859 289.454 395.3C287.711 394.081 286.317 392.676 285.63 390.869C285.513 390.563 285.593 390.225 285.58 389.903C285.945 390.043 286.387 390.111 286.661 390.334C288.066 391.477 289.522 392.445 291.418 392.73C293.27 393.009 294.997 392.906 296.622 392.377C296.817 392.313 296.98 392.196 297.091 392.139C295.774 391.33 294.459 390.578 293.225 389.732C292.781 389.428 292.458 388.919 292.202 388.464C290.396 385.246 290.892 382.412 292.758 379.836C293.02 379.473 293.424 379.192 293.762 378.874C293.878 378.919 293.994 378.962 294.111 379.008C294.175 379.455 294.268 379.902 294.297 380.346C294.398 381.926 294.87 383.456 295.914 384.893C297.056 386.467 298.718 387.005 300.293 386.126C301.435 385.488 302.523 384.672 303.262 383.698C304.464 382.112 305.478 380.389 306.359 378.624C307.909 375.51 310.359 373.096 313.805 371.62C317.297 370.124 321.027 368.968 324.687 367.717C328.05 366.569 330.958 364.951 332.95 362.37C333.465 361.701 333.752 360.887 334.143 360.138C334.241 359.949 334.337 359.758 334.473 359.49C334.642 359.652 334.777 359.73 334.806 359.818C335.369 361.521 335.886 363.228 336.498 364.924C336.655 365.36 337.099 365.749 337.411 366.158C337.297 366.355 337.183 366.551 337.068 366.748Z" fill="white" fill-opacity="0.1"/>
</g>
<g clip-path="url(#clip21_9_99)">
<path d="M306.485 275.45C306.703 275.512 306.924 275.575 307.142 275.637C307.662 276.221 308.187 276.799 308.7 277.389C309.622 278.449 310.796 278.956 312.221 278.907C313.291 278.869 314.362 278.82 315.434 278.778C316.822 278.723 318.108 279.029 319.149 279.933C322.363 282.728 325.551 285.557 327.9 289.183C330.875 293.773 332.286 298.681 330.269 304.295C329.621 306.1 329.808 307.889 330.521 309.611C331.096 311.001 331.434 312.441 331.099 314.001C330.642 316.128 329.188 316.903 327.36 315.884C324.59 314.341 321.659 313.792 318.451 314.399C317.209 314.633 315.932 314.708 314.674 314.748C312.615 314.811 310.645 314.538 308.974 313.222C305.332 310.359 302.313 306.958 300.527 302.599C298.609 297.914 298.294 293.126 301.079 288.42C301.973 286.907 303.11 285.533 304.137 284.097C305.466 282.238 306.161 280.269 305.838 277.959C305.73 277.182 306.253 276.29 306.487 275.451L306.485 275.45Z" fill="white" fill-opacity="0.1"/>
</g>
<path d="M155.156 410.451C151.746 406.772 151.886 402.316 152.478 397.531C152.159 397.864 151.815 398.174 151.525 398.532C150.498 399.811 149.573 401.197 148.44 402.365C147.765 403.06 146.827 403.655 145.917 403.883C144.213 404.307 142.418 404.145 141.269 402.607C140.077 401.008 140.731 399.205 141.445 397.586C142.501 395.193 144.561 393.972 146.779 393C147.68 392.604 148.587 392.226 149.494 391.487C148.486 391.267 147.479 391.04 146.47 390.826C141.464 389.768 140.376 387.643 139.52 382.552C139.264 381.042 140.505 379.679 142.174 379.854C143.762 380.021 145.557 380.372 146.798 381.308C149.357 383.243 151.609 385.617 153.984 387.816C154.353 388.158 154.707 388.517 155.067 388.869C155.183 388.819 155.3 388.77 155.416 388.72C155.288 387.789 155.154 386.856 155.034 385.925C154.612 382.601 154.447 379.297 155.547 376.041C156.405 373.501 157.866 372.062 159.609 372.16C161.611 372.271 162.678 373.583 163.179 376.544C163.93 380.985 161.25 386.444 157.325 388.476C157.041 388.625 156.787 388.836 156.562 389.333C157.062 389.31 157.563 389.29 158.062 389.26C161.381 389.049 164.7 388.713 168.02 388.677C169.29 388.664 170.598 389.227 171.825 389.701C173.834 390.47 174.928 393.456 174.292 396.111C173.818 398.09 172.322 398.895 169.866 398.748C166.663 398.552 164.055 396.944 161.463 395.245C160.404 394.55 159.337 393.872 158.275 393.187C158.078 393.326 157.879 393.461 157.682 393.6C158.054 394.021 158.5 394.391 158.783 394.868C160.556 397.86 161.899 401.019 161.843 404.631C161.787 408.297 160.185 410.253 156.776 410.97L155.154 410.45L155.156 410.451Z" fill="white" fill-opacity="0.1"/>
<g clip-path="url(#clip22_9_99)">
<path d="M237.934 201.346C236.718 199.986 235.717 198.319 234.248 197.325C229.975 194.427 225.118 194.61 220.286 195.034C215.869 195.423 211.462 196.079 207.03 196.15C202.374 196.221 199.081 193.792 197.21 189.492C196.338 187.489 195.305 185.553 194.306 183.605C193.904 182.818 193.219 182.207 192.4 182.935C189.466 185.549 185.784 186.567 182.105 187.629C181.849 187.705 181.621 187.87 181.428 187.968C181.429 188.132 181.41 188.211 181.433 188.227C186.239 191.45 187.234 196.783 189.15 201.547C192.024 208.709 194.998 215.796 199.609 222.123C202.714 226.383 206.296 230.121 211.334 232.22C213.784 233.241 216.33 233.437 218.863 232.98C219.584 232.85 220.517 232.111 220.68 231.471C220.808 230.971 220.039 229.951 219.419 229.582C217.258 228.306 214.944 227.289 212.775 226.03C210.353 224.623 209.028 222.462 208.784 219.709C208.485 216.324 211.025 213.725 214.593 213.811C217.562 213.881 220.196 214.9 222.463 216.831C224.563 218.62 225.268 221.626 224.268 224.11C223.961 224.871 223.724 225.68 223.584 226.492C222.875 230.655 225.742 231.271 228.591 230.416C231.111 229.658 232.465 227.205 232.549 223.978C232.639 220.323 230.555 217.665 228.347 215.035C226.344 212.648 223.536 211.652 220.731 210.652C220.355 210.515 219.979 210.379 219.61 210.224C219.546 210.198 219.527 210.074 219.308 209.633C220.666 209.849 221.893 209.822 222.927 210.251C226.124 211.581 229.253 213.084 232.407 214.525C232.864 214.734 233.3 214.997 233.774 215.154C235.614 215.768 237.061 214.73 236.834 212.835C236.515 210.168 234.986 208.041 232.782 206.625C228.612 203.942 224.03 202.337 219.01 202.314C218.51 202.315 218.007 202.289 217.511 202.246C217.388 202.236 217.267 202.109 216.731 201.796C218.047 201.591 219.008 201.382 219.98 201.305C224.999 200.918 229.735 202.021 234.244 204.299C236.296 205.336 236.798 205.202 238.114 203.416L237.934 201.35L237.934 201.346Z" fill="white" fill-opacity="0.1"/>
</g>
<g clip-path="url(#clip23_9_99)">
<path d="M147.255 306.819C147.822 305.594 148.457 304.398 148.944 303.135C150.204 299.876 150.63 296.4 149.903 292.633C148.928 287.592 148.736 282.707 150.478 278.233C151.376 275.921 152.656 273.871 154.946 272.601C156.668 271.645 158.645 271.278 160.89 271.771C162.532 272.131 163.835 273.101 164.901 274.386C166.555 276.375 167.628 278.513 168.054 280.823C168.098 281.064 168.211 281.306 168.419 281.563C169.902 279.68 170.428 277.482 170.058 274.95C169.676 272.336 168.319 270.191 165.564 268.613C169.252 267.181 173.019 267.463 177.127 269.941C177.101 268.203 176.107 266.8 174.857 265.624C171.255 262.238 167.447 261.309 163.633 263.289C163.306 262.102 163.093 260.976 162.676 259.883C161.723 257.391 159.597 255.79 157.238 254.375C155.392 253.27 153.497 252.54 151.474 252.582C151.131 252.588 150.831 252.78 150.512 252.885C150.786 253.157 151.018 253.525 151.34 253.687C152.984 254.521 154.475 255.462 155.466 257.04C156.434 258.579 156.983 260.147 157.077 261.776C157.089 261.972 157.036 262.158 157.021 262.277C155.737 261.401 154.508 260.506 153.218 259.717C152.754 259.434 152.136 259.331 151.595 259.268C147.775 258.825 145.195 260.284 143.381 262.862C143.124 263.226 143.003 263.684 142.819 264.098C142.906 264.184 142.992 264.271 143.081 264.359C143.541 264.254 144.013 264.176 144.457 264.042C146.038 263.564 147.709 263.432 149.505 263.839C151.471 264.285 152.62 265.564 152.354 267.275C152.16 268.517 151.772 269.774 151.1 270.778C150.003 272.414 148.702 273.931 147.309 275.346C144.851 277.839 143.415 280.877 143.269 284.46C143.121 288.091 143.394 291.811 143.549 295.503C143.692 298.895 143.205 302.052 141.433 304.745C140.974 305.442 140.286 305.989 139.703 306.605C139.554 306.759 139.405 306.913 139.194 307.13C139.416 307.222 139.542 307.313 139.639 307.307C141.514 307.194 143.375 307.037 145.26 306.969C145.745 306.952 146.292 307.205 146.809 307.334C146.958 307.163 147.107 306.991 147.255 306.819Z" fill="white" fill-opacity="0.1"/>
</g>
<g clip-path="url(#clip24_9_99)">
<path d="M320.068 630.748C319.076 631.71 318.137 632.721 317.079 633.628C314.35 635.969 311.109 637.653 307.17 638.424C301.898 639.456 297.059 641.121 293.316 644.346C291.382 646.01 289.842 647.915 289.424 650.42C289.111 652.305 289.463 654.194 290.752 655.998C291.694 657.317 293.11 658.106 294.747 658.568C297.284 659.285 299.757 659.432 302.165 658.941C302.417 658.89 302.693 658.899 303.02 658.987C301.714 661.008 299.757 662.3 297.152 662.924C294.462 663.568 291.881 663.172 289.349 661.325C289.277 665.13 290.907 668.361 294.803 671.068C293.098 671.698 291.37 671.345 289.773 670.68C285.171 668.762 282.895 665.738 283.456 661.615C282.18 661.771 281.004 662.006 279.787 662.047C277.011 662.14 274.684 660.859 272.454 659.3C270.711 658.081 269.317 656.676 268.63 654.869C268.513 654.563 268.593 654.225 268.58 653.903C268.945 654.043 269.387 654.111 269.661 654.334C271.066 655.477 272.522 656.445 274.418 656.73C276.27 657.009 277.997 656.906 279.622 656.377C279.817 656.313 279.98 656.196 280.091 656.139C278.774 655.33 277.459 654.578 276.225 653.732C275.781 653.428 275.458 652.919 275.202 652.464C273.396 649.246 273.892 646.412 275.758 643.836C276.02 643.473 276.424 643.192 276.762 642.874C276.878 642.919 276.994 642.962 277.111 643.008C277.175 643.455 277.268 643.902 277.297 644.346C277.398 645.926 277.87 647.456 278.914 648.893C280.056 650.467 281.718 651.005 283.293 650.126C284.435 649.488 285.523 648.672 286.262 647.698C287.464 646.112 288.478 644.389 289.359 642.624C290.909 639.51 293.359 637.096 296.805 635.62C300.297 634.124 304.027 632.968 307.687 631.717C311.05 630.569 313.958 628.951 315.95 626.37C316.465 625.701 316.752 624.887 317.143 624.138C317.241 623.949 317.337 623.758 317.473 623.49C317.642 623.652 317.777 623.73 317.806 623.818C318.369 625.521 318.886 627.228 319.498 628.924C319.655 629.36 320.099 629.749 320.411 630.158C320.297 630.355 320.183 630.551 320.068 630.748Z" fill="white" fill-opacity="0.1"/>
</g>
<path d="M170.995 663.095C169.244 665.867 166.196 666.605 162.826 667.127C163.121 667.26 163.406 667.414 163.711 667.526C164.801 667.919 165.941 668.231 166.977 668.71C167.595 668.996 168.201 669.461 168.553 669.978C169.211 670.944 169.491 672.076 168.699 673.065C167.875 674.092 166.512 674.024 165.26 673.885C163.41 673.68 162.135 672.642 160.995 671.461C160.532 670.981 160.079 670.494 159.381 670.075C159.451 670.734 159.516 671.393 159.59 672.052C159.961 675.319 158.758 676.379 155.496 677.846C154.529 678.282 153.336 677.772 153.092 676.716C152.86 675.711 152.708 674.544 153.073 673.61C153.827 671.682 154.946 669.862 155.919 667.998C156.071 667.709 156.238 667.425 156.398 667.139C156.339 667.077 156.28 667.015 156.221 666.953C155.618 667.203 155.015 667.458 154.411 667.703C152.251 668.577 150.049 669.289 147.605 669.216C145.698 669.159 144.406 668.529 144.094 667.441C143.734 666.193 144.392 665.295 146.288 664.44C149.132 663.159 153.412 663.794 155.641 665.826C155.803 665.973 156.002 666.09 156.387 666.136C156.263 665.834 156.141 665.53 156.012 665.23C155.148 663.232 154.2 661.258 153.454 659.227C153.17 658.451 153.267 657.544 153.321 656.704C153.406 655.329 155.19 654.106 157.127 654.005C158.57 653.93 159.44 654.699 159.874 656.233C160.437 658.235 159.914 660.132 159.326 662.036C159.086 662.814 158.859 663.594 158.625 664.373C158.762 664.468 158.897 664.565 159.034 664.66C159.238 664.354 159.392 664.012 159.653 663.75C161.294 662.109 163.142 660.701 165.601 660.068C168.096 659.425 169.769 660.046 170.995 662.005V663.096V663.095Z" fill="white" fill-opacity="0.1"/>
<path d="M315.218 532.684C313.782 531.56 312.502 530.097 310.88 529.378C306.162 527.281 301.414 528.319 296.734 529.589C292.454 530.753 288.232 532.178 283.883 533.031C279.313 533.924 275.642 532.114 273.041 528.213C271.829 526.396 270.47 524.672 269.142 522.932C268.608 522.228 267.825 521.748 267.148 522.609C264.722 525.7 261.278 527.353 257.845 529.048C257.606 529.168 257.411 529.37 257.238 529.501C257.268 529.663 257.263 529.744 257.289 529.755C262.589 532.078 264.51 537.152 267.238 541.502C271.333 548.044 275.512 554.494 281.168 559.907C284.977 563.551 289.163 566.597 294.493 567.773C297.085 568.345 299.625 568.087 302.037 567.191C302.725 566.935 303.512 566.043 303.56 565.384C303.597 564.869 302.66 564.001 301.984 563.748C299.632 562.874 297.174 562.282 294.818 561.426C292.185 560.469 290.499 558.576 289.772 555.909C288.88 552.63 290.921 549.624 294.447 549.077C297.382 548.622 300.155 549.159 302.727 550.659C305.111 552.049 306.335 554.884 305.79 557.505C305.622 558.308 305.532 559.147 305.538 559.97C305.575 564.193 308.506 564.293 311.16 562.947C313.506 561.756 314.405 559.102 313.917 555.912C313.361 552.299 310.84 550.05 308.201 547.852C305.808 545.856 302.868 545.373 299.931 544.884C299.537 544.816 299.142 544.747 298.752 544.66C298.684 544.646 298.643 544.527 298.351 544.132C299.725 544.105 300.928 543.861 302.021 544.101C305.403 544.845 308.748 545.772 312.108 546.632C312.595 546.758 313.07 546.94 313.565 547.01C315.484 547.289 316.724 546.012 316.167 544.187C315.381 541.618 313.501 539.795 311.081 538.79C306.502 536.887 301.708 536.117 296.764 536.981C296.271 537.07 295.772 537.134 295.277 537.178C295.153 537.191 295.012 537.088 294.429 536.874C295.688 536.44 296.597 536.064 297.54 535.817C302.412 534.549 307.268 534.797 312.109 536.243C314.312 536.901 314.782 536.68 315.761 534.69L315.22 532.688L315.218 532.684Z" fill="white" fill-opacity="0.1"/>
<path d="M110.031 115.131C110.291 115.149 110.554 115.168 110.814 115.186C111.559 115.673 112.308 116.153 113.047 116.647C114.376 117.537 115.825 117.81 117.392 117.464C118.568 117.205 119.742 116.932 120.918 116.668C122.442 116.324 123.957 116.368 125.374 117.074C129.745 119.255 134.099 121.477 137.751 124.685C142.377 128.745 145.357 133.452 144.74 139.59C144.543 141.563 145.266 143.347 146.554 144.954C147.593 146.251 148.384 147.649 148.462 149.306C148.57 151.568 147.18 152.659 144.858 152C141.34 151.003 137.93 151.05 134.547 152.333C133.236 152.83 131.841 153.17 130.457 153.472C128.191 153.963 125.927 154.092 123.693 153.098C118.827 150.937 114.496 148.097 111.257 144.026C107.777 139.65 106.045 134.838 107.776 129.466C108.332 127.739 109.197 126.103 109.921 124.427C110.859 122.258 111.062 120.108 110.037 117.822C109.693 117.053 110.016 116.035 110.033 115.131L110.031 115.131Z" fill="white" fill-opacity="0.1"/>
<g clip-path="url(#clip25_9_99)">
<path d="M148.255 549.819C148.822 548.594 149.457 547.398 149.944 546.135C151.204 542.876 151.63 539.4 150.903 535.633C149.928 530.592 149.736 525.707 151.478 521.233C152.376 518.921 153.656 516.871 155.946 515.601C157.668 514.645 159.645 514.278 161.89 514.771C163.532 515.131 164.835 516.101 165.901 517.386C167.555 519.375 168.628 521.513 169.054 523.823C169.098 524.064 169.211 524.306 169.419 524.563C170.902 522.68 171.428 520.482 171.058 517.95C170.676 515.336 169.319 513.191 166.564 511.613C170.252 510.181 174.019 510.463 178.127 512.941C178.101 511.203 177.107 509.8 175.857 508.624C172.255 505.238 168.447 504.309 164.633 506.289C164.306 505.102 164.093 503.976 163.676 502.883C162.723 500.391 160.597 498.79 158.238 497.375C156.392 496.27 154.497 495.54 152.474 495.582C152.131 495.588 151.831 495.78 151.512 495.885C151.786 496.157 152.018 496.525 152.34 496.687C153.984 497.521 155.475 498.462 156.466 500.04C157.434 501.579 157.983 503.147 158.077 504.776C158.089 504.972 158.036 505.158 158.021 505.277C156.737 504.401 155.508 503.506 154.218 502.717C153.754 502.434 153.136 502.331 152.595 502.268C148.775 501.825 146.195 503.284 144.381 505.862C144.124 506.226 144.003 506.684 143.819 507.098C143.906 507.184 143.992 507.271 144.081 507.359C144.541 507.254 145.013 507.176 145.457 507.042C147.038 506.564 148.709 506.432 150.505 506.839C152.471 507.285 153.62 508.564 153.354 510.275C153.16 511.517 152.772 512.774 152.1 513.778C151.003 515.414 149.702 516.931 148.309 518.346C145.851 520.839 144.415 523.877 144.269 527.46C144.121 531.091 144.394 534.811 144.549 538.503C144.692 541.895 144.205 545.052 142.433 547.745C141.974 548.442 141.286 548.989 140.703 549.605C140.554 549.759 140.405 549.913 140.194 550.13C140.416 550.222 140.542 550.313 140.639 550.307C142.514 550.194 144.375 550.037 146.26 549.969C146.745 549.952 147.292 550.205 147.809 550.334C147.958 550.163 148.107 549.991 148.255 549.819Z" fill="white" fill-opacity="0.1"/>
</g>
<defs>
<clipPath id="clip0_9_99">
<rect width="32.8897" height="54.7956" fill="white" transform="matrix(-0.882265 -0.470753 -0.51103 0.859563 102.528 621.7)"/>
</clipPath>
<clipPath id="clip1_9_99">
<rect width="37.4444" height="42.2483" fill="white" transform="matrix(0.119918 0.992784 -0.994175 0.107775 111.52 703.828)"/>
</clipPath>
<clipPath id="clip2_9_99">
<rect width="40" height="36" fill="white" transform="translate(174 710)"/>
</clipPath>
<clipPath id="clip3_9_99">
<rect width="55.1792" height="51.9597" fill="white" transform="matrix(0.971733 -0.236083 -0.261297 -0.965258 34.5771 572.261)"/>
</clipPath>
<clipPath id="clip4_9_99">
<rect width="27" height="24" fill="white" transform="translate(272 698)"/>
</clipPath>
<clipPath id="clip5_9_99">
<rect width="32.9037" height="54.771" fill="white" transform="matrix(0.886569 -0.462597 -0.502615 -0.86451 62.5288 465.571)"/>
</clipPath>
<clipPath id="clip6_9_99">
<rect width="37.9666" height="37.4603" fill="white" transform="matrix(-0.288497 0.957481 -0.952237 -0.305359 81.5137 275.144)"/>
</clipPath>
<clipPath id="clip7_9_99">
<rect width="24.4518" height="32.8355" fill="white" transform="matrix(0.0929901 -0.995667 0.991752 0.12817 41.7979 371.393)"/>
</clipPath>
<clipPath id="clip8_9_99">
<rect width="40" height="36" fill="white" transform="translate(371.361 221) rotate(10.1776)"/>
</clipPath>
<clipPath id="clip9_9_99">
<rect width="36.1575" height="36.7774" fill="white" transform="matrix(-0.301626 0.953426 -0.961703 -0.274094 415.275 27.0804)"/>
</clipPath>
<clipPath id="clip10_9_99">
<rect width="24.4518" height="32.8355" fill="white" transform="matrix(-0.19592 -0.98062 0.986939 -0.161092 414.908 200.914)"/>
</clipPath>
<clipPath id="clip11_9_99">
<rect width="32.8897" height="54.7956" fill="white" transform="matrix(-0.7852 -0.619242 -0.654874 0.755738 436.647 501.199)"/>
</clipPath>
<clipPath id="clip12_9_99">
<rect width="32.8897" height="54.7956" fill="white" transform="matrix(-0.7852 -0.619242 -0.654874 0.755738 419.709 683.367)"/>
</clipPath>
<clipPath id="clip13_9_99">
<rect width="37.4444" height="42.2483" fill="white" transform="matrix(-0.0573945 0.998352 -0.997575 -0.0695923 416.295 583.94)"/>
</clipPath>
<clipPath id="clip14_9_99">
<rect width="55.1792" height="51.9597" fill="white" transform="matrix(0.998158 -0.0606617 -0.0866238 -0.996241 368.501 440.112)"/>
</clipPath>
<clipPath id="clip15_9_99">
<rect width="38.7667" height="36.8987" fill="white" transform="matrix(0.998158 -0.0606617 -0.0866238 -0.996241 276.196 58.1116)"/>
</clipPath>
<clipPath id="clip16_9_99">
<rect width="32.9037" height="54.771" fill="white" transform="matrix(-0.886569 -0.462597 0.502615 -0.86451 200.171 62.5712)"/>
</clipPath>
<clipPath id="clip17_9_99">
<rect width="32.8897" height="54.7956" fill="white" transform="matrix(-0.882265 -0.470753 -0.51103 0.859563 263.02 98.4829)"/>
</clipPath>
<clipPath id="clip18_9_99">
<rect width="32.9037" height="54.771" fill="white" transform="matrix(-0.886569 -0.462597 0.502615 -0.86451 333.171 227.571)"/>
</clipPath>
<clipPath id="clip19_9_99">
<rect width="24.4518" height="32.8355" fill="white" transform="matrix(-0.19592 -0.98062 0.986939 -0.161092 208.791 344.267)"/>
</clipPath>
<clipPath id="clip20_9_99">
<rect width="32.9037" height="54.771" fill="white" transform="matrix(-0.886569 -0.462597 0.502615 -0.86451 312.171 409.571)"/>
</clipPath>
<clipPath id="clip21_9_99">
<rect width="36.1575" height="36.7774" fill="white" transform="matrix(-0.301626 0.953426 -0.961703 -0.274094 340.275 285.08)"/>
</clipPath>
<clipPath id="clip22_9_99">
<rect width="55.1792" height="51.9597" fill="white" transform="matrix(0.998158 -0.0606617 -0.0866238 -0.996241 185.501 235.112)"/>
</clipPath>
<clipPath id="clip23_9_99">
<rect width="32.8897" height="54.7956" fill="white" transform="matrix(-0.7852 -0.619242 -0.654874 0.755738 179.709 269.367)"/>
</clipPath>
<clipPath id="clip24_9_99">
<rect width="32.9037" height="54.771" fill="white" transform="matrix(-0.886569 -0.462597 0.502615 -0.86451 295.171 673.571)"/>
</clipPath>
<clipPath id="clip25_9_99">
<rect width="32.8897" height="54.7956" fill="white" transform="matrix(-0.7852 -0.619242 -0.654874 0.755738 180.709 512.367)"/>
</clipPath>
</defs>
</svg>
