<svg width="393" height="736" viewBox="0 0 393 736" fill="none" xmlns="http://www.w3.org/2000/svg">
<g clip-path="url(#clip0_1573_4162)">
<path d="M34.203 664.297C34.5439 662.991 34.9576 661.703 35.2145 660.373C35.8785 656.942 35.6834 653.446 34.3018 649.867C32.4523 645.077 31.3993 640.303 32.3234 635.591C32.7989 633.157 33.6969 630.914 35.7261 629.258C37.2518 628.014 39.133 627.303 41.4303 627.391C43.1102 627.455 44.5636 628.181 45.8403 629.257C47.819 630.922 49.2531 632.836 50.0803 635.035C50.1665 635.265 50.3209 635.482 50.5713 635.699C51.6971 633.583 51.8272 631.327 51.0154 628.901C50.1777 626.395 48.463 624.524 45.4728 623.457C48.8492 621.396 52.607 621.008 57.0878 622.721C56.7558 621.015 55.5294 619.809 54.0911 618.874C49.9475 616.177 46.0355 615.936 42.6311 618.558C42.0991 617.448 41.6909 616.377 41.087 615.375C39.7092 613.09 37.3337 611.891 34.7615 610.915C32.7498 610.153 30.7553 609.77 28.771 610.168C28.4353 610.235 28.174 610.477 27.8784 610.636C28.1957 610.856 28.4894 611.177 28.8345 611.28C30.5999 611.81 32.2346 612.473 33.4887 613.85C34.7135 615.195 35.5304 616.641 35.9112 618.227C35.9569 618.418 35.9376 618.611 35.9447 618.731C34.5259 618.096 33.1583 617.432 31.7493 616.883C31.2423 616.686 30.6157 616.694 30.0723 616.727C26.2343 616.967 23.952 618.858 22.6221 621.717C22.434 622.12 22.3953 622.592 22.2879 623.032C22.3886 623.102 22.4886 623.172 22.5912 623.243C23.0261 623.059 23.4763 622.898 23.8903 622.688C25.3614 621.938 26.9826 621.513 28.8222 621.596C30.836 621.688 32.1935 622.743 32.2335 624.475C32.2627 625.731 32.103 627.037 31.6183 628.144C30.8276 629.948 29.8151 631.671 28.694 633.31C26.7153 636.198 25.8392 639.442 26.3288 642.994C26.8243 646.595 27.7502 650.208 28.5551 653.815C29.295 657.127 29.3736 660.321 28.1062 663.285C27.7775 664.052 27.1968 664.711 26.7311 665.421C26.6126 665.599 26.4923 665.777 26.3237 666.028C26.5576 666.079 26.6986 666.146 26.7931 666.123C28.6178 665.681 30.4222 665.198 32.2656 664.798C32.7403 664.695 33.3229 664.847 33.8546 664.883C33.9707 664.688 34.0869 664.493 34.203 664.297Z" fill="white" fill-opacity="0.1" style="fill:white;fill-opacity:0.1;"/>
</g>
<g clip-path="url(#clip1_1573_4162)">
<path d="M28.3928 708.178C28.6522 708.15 28.9141 708.122 29.1735 708.093C29.9931 708.441 30.8144 708.782 31.6296 709.137C33.095 709.778 34.5694 709.791 36.0501 709.174C37.1618 708.71 38.2694 708.235 39.3806 707.767C40.8199 707.159 42.3188 706.935 43.8375 707.38C48.5257 708.754 53.2031 710.171 57.3653 712.683C62.635 715.862 66.4006 719.968 66.8782 726.119C67.032 728.096 68.0593 729.724 69.6109 731.078C70.8628 732.171 71.8879 733.407 72.2585 735.025C72.764 737.232 71.5884 738.551 69.1871 738.313C65.5475 737.953 62.1998 738.602 59.0966 740.463C57.8938 741.183 56.5814 741.764 55.2721 742.306C53.1284 743.19 50.923 743.717 48.5489 743.134C43.3774 741.866 38.6127 739.836 34.7052 736.401C30.5067 732.709 27.952 728.279 28.7068 722.685C28.9487 720.888 29.5107 719.125 29.9277 717.347C30.4671 715.046 30.2868 712.895 28.8744 710.825C28.4002 710.129 28.5377 709.07 28.3954 708.178L28.3928 708.178Z" fill="white" fill-opacity="0.1" style="fill:white;fill-opacity:0.1;"/>
</g>
<g clip-path="url(#clip2_1573_4162)">
<path d="M171 723.643C168.406 727.801 163.889 728.908 158.898 729.691C159.335 729.891 159.756 730.122 160.209 730.289C161.823 730.88 163.512 731.347 165.047 732.066C165.962 732.495 166.861 733.193 167.382 733.967C168.356 735.417 168.771 737.115 167.598 738.598C166.377 740.139 164.357 740.037 162.503 739.828C159.763 739.521 157.874 737.963 156.185 736.192C155.498 735.472 154.827 734.742 153.794 734.113C153.897 735.102 153.994 736.09 154.103 737.079C154.652 741.979 152.87 743.569 148.038 745.769C146.605 746.423 144.838 745.66 144.476 744.075C144.133 742.567 143.908 740.817 144.448 739.416C145.566 736.524 147.223 733.794 148.665 730.998C148.89 730.564 149.137 730.138 149.374 729.71C149.286 729.616 149.199 729.523 149.112 729.43C148.219 729.806 147.326 730.188 146.43 730.556C143.231 731.866 139.969 732.934 136.347 732.825C133.522 732.739 131.609 731.795 131.147 730.163C130.613 728.29 131.587 726.944 134.396 725.661C138.611 723.739 144.951 724.692 148.253 727.741C148.494 727.96 148.787 728.136 149.358 728.205C149.174 727.752 148.993 727.296 148.803 726.845C147.523 723.849 146.118 720.888 145.013 717.842C144.592 716.677 144.735 715.318 144.816 714.057C144.941 711.994 147.585 710.159 150.454 710.008C152.592 709.896 153.881 711.049 154.524 713.351C155.358 716.353 154.584 719.199 153.713 722.055C153.357 723.222 153.02 724.392 152.673 725.56C152.876 725.703 153.076 725.848 153.279 725.991C153.582 725.532 153.81 725.019 154.197 724.626C156.628 722.165 159.366 720.053 163.009 719.102C166.705 718.138 169.183 719.069 171 722.008V723.645V723.643Z" fill="white" fill-opacity="0.1" style="fill:white;fill-opacity:0.1;"/>
</g>
<g clip-path="url(#clip3_1573_4162)">
<path d="M37.2184 529.761C35.7816 528.637 34.5019 527.174 32.88 526.455C28.1623 524.358 23.4143 525.396 18.7336 526.667C14.4545 527.83 10.2325 529.255 5.88277 530.108C1.31286 531.001 -2.3576 529.191 -4.95874 525.29C-6.17098 523.473 -7.53013 521.749 -8.85751 520.009C-9.39242 519.305 -10.1747 518.825 -10.8523 519.686C-13.2776 522.777 -16.722 524.43 -20.1552 526.125C-20.3945 526.245 -20.5889 526.448 -20.7619 526.578C-20.7318 526.74 -20.737 526.821 -20.7113 526.832C-15.4112 529.155 -13.4896 534.229 -10.7625 538.579C-6.66737 545.121 -2.48825 551.571 3.16792 556.984C6.97689 560.628 11.1633 563.674 16.4926 564.85C19.0851 565.422 21.625 565.164 24.0373 564.268C24.7247 564.012 25.5117 563.12 25.5597 562.461C25.5971 561.946 24.6598 561.078 23.9843 560.825C21.6317 559.951 19.1744 559.359 16.8178 558.503C14.1846 557.546 12.4988 555.653 11.7723 552.986C10.8802 549.707 12.9207 546.701 16.4473 546.155C19.3821 545.699 22.1554 546.236 24.7271 547.736C27.1106 549.127 28.3354 551.961 27.79 554.582C27.6224 555.386 27.5322 556.224 27.5377 557.047C27.5753 561.27 30.5064 561.37 33.1597 560.024C35.5058 558.833 36.4049 556.18 35.9172 552.989C35.3605 549.376 32.8398 547.127 30.2015 544.929C27.8081 542.933 24.8682 542.45 21.9314 541.961C21.5369 541.893 21.1424 541.824 20.7518 541.737C20.6844 541.723 20.6433 541.604 20.3506 541.209C21.725 541.182 22.9277 540.938 24.0212 541.178C27.4032 541.922 30.7484 542.849 34.1075 543.709C34.5946 543.835 35.0697 544.017 35.5645 544.087C37.484 544.366 38.7241 543.089 38.1665 541.264C37.3807 538.696 35.5007 536.872 33.0812 535.868C28.5018 533.964 23.7084 533.194 18.7637 534.058C18.2712 534.147 17.7719 534.211 17.2766 534.256C17.1531 534.268 17.0119 534.165 16.4286 533.951C17.6883 533.517 18.5968 533.141 19.5403 532.894C24.412 531.626 29.2682 531.874 34.1087 533.32C36.3121 533.978 36.7824 533.757 37.7615 531.767L37.2195 529.765L37.2184 529.761Z" fill="white" fill-opacity="0.1" style="fill:white;fill-opacity:0.1;"/>
</g>
<g clip-path="url(#clip4_1573_4162)">
<path d="M256 707.095C254.249 709.867 251.2 710.605 247.831 711.127C248.126 711.261 248.41 711.415 248.716 711.526C249.805 711.92 250.945 712.231 251.982 712.711C252.599 712.997 253.206 713.462 253.558 713.978C254.215 714.945 254.496 716.077 253.703 717.065C252.88 718.093 251.516 718.025 250.265 717.886C248.415 717.681 247.14 716.642 246 715.461C245.536 714.982 245.083 714.494 244.386 714.075C244.455 714.734 244.521 715.394 244.595 716.053C244.965 719.319 243.762 720.38 240.5 721.846C239.533 722.282 238.341 721.773 238.096 720.716C237.865 719.711 237.713 718.545 238.077 717.611C238.832 715.683 239.951 713.863 240.924 711.999C241.076 711.709 241.242 711.426 241.402 711.14C241.343 711.078 241.284 711.015 241.225 710.953C240.623 711.204 240.02 711.459 239.415 711.704C237.256 712.577 235.054 713.29 232.609 713.216C230.703 713.16 229.411 712.53 229.099 711.442C228.739 710.193 229.396 709.296 231.293 708.441C234.137 707.159 238.417 707.795 240.646 709.827C240.808 709.974 241.006 710.091 241.392 710.136C241.267 709.834 241.145 709.53 241.017 709.23C240.153 707.232 239.205 705.258 238.459 703.228C238.174 702.451 238.271 701.545 238.326 700.705C238.41 699.329 240.195 698.106 242.131 698.006C243.575 697.93 244.445 698.7 244.879 700.234C245.442 702.235 244.919 704.132 244.331 706.037C244.091 706.815 243.863 707.595 243.629 708.373C243.766 708.468 243.901 708.565 244.038 708.661C244.243 708.355 244.396 708.012 244.658 707.751C246.299 706.11 248.147 704.702 250.606 704.068C253.101 703.426 254.774 704.046 256 706.006V707.097V707.095Z" fill="white" fill-opacity="0.1" style="fill:white;fill-opacity:0.1;"/>
</g>
<g clip-path="url(#clip5_1573_4162)">
<path d="M-5.36828 422.748C-4.37554 423.71 -3.43687 424.721 -2.37886 425.628C0.350304 427.969 3.5907 429.653 7.53056 430.424C12.8022 431.456 17.6414 433.121 21.3836 436.346C23.3178 438.01 24.8583 439.915 25.2756 442.42C25.5895 444.305 25.2369 446.194 23.9486 447.998C23.0065 449.317 21.5905 450.106 19.9528 450.568C17.4165 451.285 14.9433 451.432 12.5349 450.941C12.2834 450.89 12.0066 450.899 11.6801 450.987C12.9864 453.008 14.9431 454.3 17.5478 454.924C20.2377 455.568 22.8193 455.172 25.3513 453.325C25.4231 457.13 23.7935 460.361 19.8968 463.068C21.6024 463.698 23.3303 463.345 24.9273 462.68C29.5287 460.762 31.8048 457.738 31.2436 453.615C32.5199 453.771 33.6961 454.006 34.9128 454.047C37.6888 454.14 40.0161 452.859 42.246 451.3C43.9888 450.081 45.3826 448.676 46.0698 446.869C46.1868 446.563 46.1073 446.225 46.1197 445.903C45.7555 446.043 45.3127 446.111 45.0387 446.334C43.6338 447.477 42.178 448.445 40.2817 448.73C38.4304 449.009 36.7027 448.906 35.0782 448.377C34.883 448.313 34.72 448.196 34.6087 448.139C35.9256 447.33 37.2414 446.578 38.4756 445.732C38.9193 445.428 39.2417 444.919 39.4981 444.464C41.3038 441.246 40.8076 438.412 38.9423 435.836C38.6799 435.473 38.276 435.192 37.9377 434.874C37.8225 434.919 37.7064 434.962 37.5893 435.008C37.5255 435.455 37.4324 435.902 37.4034 436.346C37.3016 437.926 36.8301 439.456 35.7865 440.893C34.6442 442.467 32.9825 443.005 31.4072 442.126C30.2648 441.488 29.1767 440.672 28.4379 439.698C27.2358 438.112 26.2219 436.389 25.3414 434.624C23.7915 431.51 21.3415 429.096 17.8955 427.62C14.4035 426.124 10.6734 424.968 7.01275 423.717C3.65022 422.569 0.742304 420.951 -1.25001 418.37C-1.76527 417.701 -2.05159 416.887 -2.44297 416.138C-2.54095 415.949 -2.63707 415.758 -2.77323 415.49C-2.94234 415.652 -3.07714 415.73 -3.10615 415.818C-3.6694 417.521 -4.18616 419.228 -4.79763 420.924C-4.95533 421.36 -5.3986 421.749 -5.71086 422.158C-5.59667 422.355 -5.48248 422.551 -5.36828 422.748Z" fill="white" fill-opacity="0.1" style="fill:white;fill-opacity:0.1;"/>
</g>
<g clip-path="url(#clip6_1573_4162)">
<path d="M14.0423 307.162C10.6323 303.483 10.7724 299.026 11.3635 294.241C11.0452 294.575 10.7012 294.884 10.4112 295.242C9.38417 296.521 8.45907 297.908 7.32548 299.075C6.65046 299.77 5.71302 300.365 4.80279 300.593C3.09913 301.017 1.30354 300.855 0.155314 299.317C-1.03724 297.718 -0.383496 295.915 0.331084 294.296C1.3864 291.903 3.44665 290.682 5.66448 289.71C6.56558 289.315 7.47328 288.937 8.37945 288.198C7.37149 287.977 6.36524 287.751 5.35557 287.536C0.34992 286.478 -0.737762 284.353 -1.5945 279.262C-1.84987 277.753 -0.609478 276.39 1.06 276.564C2.64815 276.731 4.44331 277.083 5.68341 278.019C8.24317 279.953 10.4945 282.327 12.8701 284.526C13.2385 284.868 13.5928 285.228 13.9524 285.58C14.0689 285.53 14.1854 285.48 14.3018 285.43C14.1735 284.499 14.0396 283.567 13.9203 282.636C13.4983 279.311 13.3328 276.007 14.4333 272.751C15.2912 270.211 16.7514 268.772 18.4945 268.871C20.4967 268.981 21.5636 270.294 22.0652 273.254C22.8164 277.695 20.1359 283.154 16.2106 285.187C15.9271 285.335 15.6726 285.546 15.4481 286.044C15.9476 286.02 16.4489 286.001 16.9474 285.971C20.2671 285.76 23.5855 285.424 26.9063 285.387C28.1756 285.374 29.4835 285.937 30.7104 286.411C32.7201 287.18 33.8141 290.166 33.1782 292.821C32.7043 294.8 31.2082 295.605 28.7515 295.458C25.5486 295.262 22.9411 293.654 20.3492 291.955C19.29 291.261 18.2229 290.583 17.1612 289.897C16.9641 290.036 16.7651 290.171 16.5681 290.31C16.9396 290.731 17.3862 291.101 17.6693 291.578C19.442 294.57 20.7852 297.729 20.7293 301.342C20.6725 305.007 19.0712 306.964 15.6616 307.681L14.0396 307.161L14.0423 307.162Z" fill="white" fill-opacity="0.1" style="fill:white;fill-opacity:0.1;"/>
</g>
<g clip-path="url(#clip7_1573_4162)">
<path d="M29.9085 375.413C29.7074 375.387 29.5043 375.361 29.3032 375.335C28.7345 374.976 28.1633 374.621 27.5991 374.258C26.5852 373.604 25.4684 373.346 24.2507 373.488C23.3364 373.594 22.4233 373.708 21.5087 373.818C20.3238 373.96 19.1523 373.849 18.068 373.31C14.7208 371.646 11.3884 369.956 8.61425 367.659C5.10164 364.752 2.87206 361.51 3.44962 357.526C3.63497 356.246 3.10429 355.04 2.13399 353.918C1.35109 353.013 0.762201 352.056 0.728253 350.967C0.682056 349.481 1.77558 348.842 3.56119 349.399C6.26758 350.243 8.90685 350.397 11.5458 349.74C12.5684 349.487 13.6531 349.339 14.7292 349.217C16.4908 349.019 18.2447 349.056 19.9568 349.828C23.687 351.506 26.9921 353.599 29.4319 356.439C32.0533 359.491 33.3147 362.734 31.8872 366.155C31.4289 367.255 30.7331 368.279 30.1451 369.336C29.3842 370.705 29.1922 372.101 29.9475 373.653C30.201 374.174 29.9349 374.823 29.9064 375.413L29.9085 375.413Z" fill="white" fill-opacity="0.1" style="fill:white;fill-opacity:0.1;"/>
</g>
<g clip-path="url(#clip8_1573_4162)">
<path d="M365.321 241.496C362.033 245.131 357.392 245.422 352.341 245.31C352.736 245.585 353.11 245.887 353.525 246.131C355.01 246.998 356.589 247.756 357.974 248.735C358.798 249.319 359.56 250.164 359.936 251.019C360.638 252.618 360.747 254.362 359.33 255.615C357.856 256.916 355.886 256.459 354.098 255.926C351.455 255.139 349.871 253.272 348.522 251.23C347.973 250.4 347.442 249.563 346.536 248.761C346.463 249.752 346.383 250.743 346.316 251.735C345.991 256.655 343.956 257.906 338.811 259.217C337.285 259.607 335.681 258.544 335.604 256.92C335.533 255.375 335.621 253.613 336.4 252.33C338.011 249.681 340.125 247.286 342.038 244.789C342.336 244.402 342.654 244.026 342.963 243.646C342.894 243.539 342.824 243.432 342.755 243.324C341.81 243.537 340.863 243.755 339.917 243.959C336.536 244.683 333.136 245.158 329.592 244.41C326.826 243.827 325.11 242.559 324.943 240.872C324.749 238.934 325.945 237.781 328.937 237.015C333.425 235.867 339.496 237.926 342.208 241.51C342.406 241.769 342.664 241.994 343.214 242.162C343.113 241.684 343.015 241.203 342.907 240.726C342.177 237.55 341.318 234.388 340.768 231.194C340.559 229.974 340.941 228.661 341.243 227.434C341.731 225.426 344.657 224.088 347.508 224.446C349.632 224.713 350.697 226.076 350.924 228.455C351.213 231.557 349.949 234.221 348.587 236.879C348.03 237.965 347.492 239.057 346.944 240.145C347.119 240.321 347.29 240.5 347.464 240.676C347.843 240.278 348.158 239.813 348.609 239.495C351.437 237.502 354.505 235.907 358.258 235.615C362.066 235.319 364.341 236.674 365.61 239.887L365.321 241.499L365.321 241.496Z" fill="white" fill-opacity="0.1" style="fill:white;fill-opacity:0.1;"/>
</g>
<g clip-path="url(#clip9_1573_4162)">
<path d="M338.485 17.45C338.704 17.5123 338.924 17.5752 339.143 17.6374C339.662 18.2213 340.187 18.7991 340.7 19.3886C341.622 20.4491 342.796 20.9561 344.221 20.9067C345.291 20.8694 346.362 20.8202 347.434 20.7784C348.822 20.7235 350.108 21.0285 351.149 21.9334C354.363 24.7278 357.551 27.5568 359.9 31.1832C362.876 35.7733 364.286 40.6806 362.269 46.2952C361.621 48.0998 361.808 49.8887 362.521 51.6109C363.096 53.0009 363.434 54.4414 363.099 56.0005C362.643 58.128 361.188 58.9025 359.36 57.8843C356.59 56.3414 353.659 55.7917 350.452 56.399C349.209 56.6332 347.932 56.7076 346.674 56.7478C344.615 56.8108 342.645 56.5375 340.974 55.2217C337.332 52.3594 334.313 48.9582 332.527 44.5988C330.609 39.9135 330.294 35.1262 333.079 30.4199C333.973 28.9072 335.11 27.5325 336.137 26.0968C337.466 24.2376 338.161 22.2691 337.838 19.959C337.73 19.1823 338.253 18.2899 338.487 17.4507L338.485 17.45Z" fill="white" fill-opacity="0.1" style="fill:white;fill-opacity:0.1;"/>
</g>
<path d="M53.2632 62.4253C48.9428 59.8766 47.8012 55.5663 46.9979 50.8123C46.7883 51.223 46.5474 51.6181 46.3721 52.0443C45.7541 53.5638 45.2646 55.157 44.5126 56.5998C44.0648 57.459 43.337 58.2978 42.53 58.7765C41.0191 59.6707 39.2523 60.0295 37.7118 58.8846C36.1115 57.694 36.2217 55.7792 36.443 54.0235C36.7691 51.4285 38.3935 49.6684 40.2403 48.1023C40.9905 47.4655 41.7521 46.8436 42.4087 45.876C41.3798 45.9532 40.3509 46.0245 39.322 46.1076C34.223 46.5271 32.5725 44.8022 30.2944 40.1699C29.6175 38.7963 30.4158 37.1352 32.0653 36.8245C33.6348 36.53 35.4556 36.353 36.9117 36.8948C39.9181 38.0156 42.7547 39.6457 45.6604 41.0728C46.1114 41.2951 46.5538 41.5381 46.999 41.7721C47.0964 41.6911 47.1937 41.6101 47.2911 41.5291C46.9016 40.6739 46.5064 39.8185 46.1255 38.9605C44.7695 35.8963 43.6652 32.7779 43.7875 29.3432C43.8824 26.6636 44.8696 24.867 46.568 24.4624C48.5179 23.9947 49.9159 24.9471 51.2441 27.6404C53.235 31.6803 52.2294 37.6781 49.0503 40.7494C48.8212 40.973 48.6377 41.2479 48.565 41.7886C49.0368 41.6233 49.5116 41.4609 49.9806 41.2895C53.101 40.1371 56.1844 38.8654 59.3558 37.8799C60.5683 37.5041 61.9824 37.6687 63.2938 37.772C65.4395 37.9334 67.3424 40.4812 67.4932 43.2072C67.6057 45.2391 66.4027 46.4388 64.0067 47.0013C60.8816 47.7299 57.923 46.9359 54.9532 46.0498C53.7395 45.6878 52.523 45.3434 51.3093 44.9903C51.1603 45.1799 51.0084 45.3665 50.8594 45.5561C51.3359 45.853 51.8697 46.08 52.2775 46.4556C54.8324 48.8149 57.0237 51.4573 58.0043 54.9347C58.9991 58.4629 58.0249 60.796 54.9634 62.4593L53.2603 62.4252L53.2632 62.4253Z" fill="white" fill-opacity="0.1" style="fill:white;fill-opacity:0.1;"/>
<g clip-path="url(#clip10_1573_4162)">
<path d="M402.868 195.861C402.668 195.894 402.466 195.927 402.266 195.959C401.618 195.778 400.969 195.602 400.324 195.415C399.166 195.079 398.022 195.152 396.896 195.636C396.05 195.999 395.208 196.37 394.363 196.737C393.268 197.212 392.114 197.441 390.921 197.235C387.237 196.599 383.561 195.934 380.245 194.527C376.047 192.747 372.983 190.279 372.396 186.297C372.207 185.017 371.353 184.013 370.103 183.216C369.093 182.573 368.255 181.824 367.911 180.791C367.441 179.38 368.306 178.455 370.176 178.478C373.011 178.511 375.584 177.903 377.924 176.519C378.832 175.983 379.829 175.532 380.825 175.106C382.456 174.412 384.147 173.946 386.009 174.195C390.063 174.735 393.829 175.795 396.98 177.817C400.365 179.991 402.502 182.737 402.114 186.424C401.989 187.609 401.616 188.789 401.355 189.97C401.018 191.5 401.233 192.892 402.401 194.163C402.793 194.59 402.724 195.288 402.866 195.861L402.868 195.861Z" fill="white" fill-opacity="0.1" style="fill:white;fill-opacity:0.1;"/>
</g>
<path d="M393.749 329.213C393.549 329.246 393.347 329.279 393.146 329.312C392.499 329.13 391.85 328.954 391.205 328.767C390.047 328.431 388.903 328.504 387.777 328.988C386.931 329.352 386.089 329.723 385.244 330.089C384.149 330.565 382.995 330.794 381.802 330.588C378.118 329.951 374.442 329.286 371.126 327.879C366.928 326.099 363.864 323.631 363.277 319.649C363.088 318.369 362.234 317.365 360.983 316.569C359.974 315.926 359.136 315.177 358.792 314.143C358.322 312.732 359.187 311.808 361.057 311.83C363.892 311.864 366.465 311.256 368.805 309.871C369.713 309.335 370.71 308.884 371.706 308.459C373.337 307.764 375.028 307.298 376.89 307.548C380.944 308.088 384.71 309.147 387.86 311.17C391.246 313.344 393.383 316.09 392.994 319.777C392.87 320.961 392.497 322.142 392.236 323.323C391.899 324.852 392.114 326.244 393.282 327.515C393.674 327.943 393.605 328.64 393.747 329.214L393.749 329.213Z" fill="white" fill-opacity="0.1" style="fill:white;fill-opacity:0.1;"/>
<g clip-path="url(#clip11_1573_4162)">
<path d="M361.194 538.651C361.76 537.426 362.395 536.23 362.883 534.967C364.142 531.708 364.568 528.232 363.841 524.465C362.867 519.424 362.674 514.539 364.416 510.064C365.314 507.753 366.594 505.703 368.884 504.433C370.606 503.477 372.583 503.11 374.829 503.603C376.471 503.963 377.773 504.933 378.84 506.218C380.493 508.207 381.566 510.345 381.992 512.654C382.036 512.896 382.15 513.138 382.358 513.395C383.84 511.511 384.366 509.313 383.996 506.782C383.614 504.168 382.257 502.023 379.503 500.444C383.19 499.013 386.957 499.294 391.065 501.773C391.04 500.035 390.046 498.632 388.795 497.456C385.193 494.07 381.386 493.141 377.571 495.121C377.244 493.934 377.031 492.808 376.614 491.715C375.662 489.223 373.535 487.622 371.176 486.207C369.331 485.102 367.435 484.372 365.412 484.414C365.07 484.42 364.77 484.612 364.451 484.717C364.724 484.989 364.956 485.357 365.278 485.519C366.922 486.353 368.414 487.294 369.405 488.872C370.373 490.411 370.921 491.979 371.016 493.608C371.027 493.804 370.974 493.99 370.96 494.109C369.675 493.233 368.447 492.338 367.157 491.549C366.692 491.266 366.074 491.163 365.534 491.1C361.714 490.657 359.133 492.116 357.319 494.694C357.063 495.058 356.941 495.516 356.758 495.93C356.845 496.016 356.93 496.103 357.019 496.191C357.48 496.086 357.951 496.008 358.396 495.874C359.976 495.396 361.647 495.264 363.443 495.671C365.409 496.117 366.558 497.396 366.292 499.107C366.099 500.349 365.711 501.606 365.038 502.61C363.941 504.246 362.64 505.763 361.247 507.178C358.789 509.671 357.353 512.709 357.208 516.292C357.059 519.923 357.332 523.643 357.487 527.335C357.63 530.727 357.143 533.884 355.372 536.577C354.913 537.274 354.225 537.821 353.641 538.436C353.493 538.591 353.343 538.745 353.133 538.962C353.354 539.054 353.481 539.145 353.578 539.139C355.452 539.026 357.313 538.869 359.198 538.801C359.684 538.784 360.23 539.037 360.747 539.166C360.896 538.995 361.045 538.823 361.194 538.651Z" fill="white" fill-opacity="0.1" style="fill:white;fill-opacity:0.1;"/>
</g>
<g clip-path="url(#clip12_1573_4162)">
<path d="M344.255 720.819C344.822 719.594 345.456 718.398 345.944 717.135C347.204 713.876 347.63 710.4 346.902 706.633C345.928 701.592 345.735 696.707 347.478 692.232C348.376 689.921 349.656 687.871 351.946 686.601C353.667 685.645 355.645 685.278 357.89 685.771C359.532 686.131 360.835 687.101 361.901 688.386C363.554 690.375 364.628 692.513 365.053 694.823C365.098 695.064 365.211 695.306 365.419 695.563C366.901 693.68 367.428 691.482 367.058 688.95C366.676 686.336 365.319 684.191 362.564 682.613C366.252 681.181 370.019 681.463 374.126 683.941C374.101 682.203 373.107 680.8 371.857 679.624C368.255 676.238 364.447 675.309 360.633 677.289C360.305 676.102 360.093 674.976 359.675 673.883C358.723 671.391 356.597 669.79 354.238 668.375C352.392 667.27 350.497 666.54 348.473 666.582C348.131 666.588 347.831 666.78 347.512 666.885C347.786 667.157 348.018 667.525 348.339 667.687C349.983 668.521 351.475 669.462 352.466 671.04C353.434 672.579 353.983 674.147 354.077 675.776C354.088 675.972 354.035 676.158 354.021 676.277C352.737 675.401 351.508 674.506 350.218 673.717C349.754 673.434 349.136 673.331 348.595 673.268C344.775 672.825 342.195 674.284 340.38 676.862C340.124 677.226 340.003 677.684 339.819 678.098C339.906 678.184 339.992 678.271 340.08 678.359C340.541 678.254 341.012 678.176 341.457 678.042C343.038 677.564 344.708 677.432 346.504 677.839C348.47 678.285 349.62 679.564 349.353 681.275C349.16 682.517 348.772 683.774 348.099 684.778C347.003 686.414 345.701 687.931 344.308 689.346C341.851 691.839 340.415 694.877 340.269 698.46C340.121 702.091 340.394 705.811 340.548 709.503C340.691 712.895 340.204 716.052 338.433 718.745C337.974 719.442 337.286 719.989 336.702 720.604C336.554 720.759 336.404 720.913 336.194 721.13C336.415 721.222 336.542 721.313 336.639 721.307C338.513 721.194 340.375 721.037 342.26 720.969C342.745 720.952 343.292 721.205 343.809 721.334C343.958 721.163 344.106 720.991 344.255 720.819Z" fill="white" fill-opacity="0.1" style="fill:white;fill-opacity:0.1;"/>
</g>
<g clip-path="url(#clip13_1573_4162)">
<path d="M333.031 581.131C333.291 581.149 333.554 581.168 333.814 581.186C334.56 581.673 335.308 582.153 336.047 582.647C337.376 583.537 338.825 583.81 340.392 583.464C341.568 583.205 342.742 582.932 343.919 582.668C345.443 582.324 346.958 582.368 348.374 583.075C352.745 585.255 357.099 587.477 360.752 590.685C365.377 594.745 368.357 599.452 367.741 605.59C367.543 607.563 368.266 609.347 369.554 610.954C370.593 612.251 371.384 613.649 371.463 615.306C371.57 617.569 370.18 618.659 367.858 618C364.34 617.003 360.93 617.05 357.547 618.333C356.236 618.83 354.841 619.17 353.457 619.472C351.191 619.963 348.927 620.093 346.693 619.098C341.827 616.937 337.496 614.097 334.257 610.026C330.777 605.65 329.045 600.838 330.777 595.466C331.332 593.739 332.197 592.103 332.921 590.428C333.859 588.258 334.062 586.108 333.037 583.822C332.694 583.053 333.016 582.035 333.034 581.132L333.031 581.131Z" fill="white" fill-opacity="0.1" style="fill:white;fill-opacity:0.1;"/>
</g>
<g clip-path="url(#clip14_1573_4162)">
<path d="M377.934 406.346C376.718 404.986 375.717 403.319 374.248 402.325C369.975 399.427 365.118 399.61 360.287 400.034C355.869 400.423 351.462 401.079 347.03 401.15C342.374 401.221 339.081 398.792 337.21 394.492C336.338 392.489 335.305 390.553 334.306 388.605C333.904 387.818 333.219 387.207 332.4 387.935C329.466 390.549 325.784 391.567 322.105 392.629C321.849 392.705 321.622 392.87 321.428 392.968C321.429 393.132 321.41 393.211 321.433 393.227C326.239 396.45 327.234 401.783 329.15 406.547C332.024 413.709 334.998 420.796 339.609 427.123C342.714 431.383 346.296 435.121 351.334 437.22C353.784 438.241 356.33 438.437 358.863 437.98C359.584 437.85 360.517 437.111 360.68 436.471C360.808 435.971 360.039 434.951 359.419 434.582C357.258 433.306 354.944 432.289 352.775 431.03C350.353 429.623 349.028 427.462 348.784 424.709C348.486 421.324 351.025 418.725 354.593 418.811C357.562 418.881 360.197 419.9 362.463 421.831C364.563 423.62 365.268 426.626 364.268 429.11C363.961 429.871 363.724 430.68 363.584 431.492C362.875 435.655 365.742 436.271 368.591 435.416C371.111 434.658 372.465 432.205 372.549 428.978C372.639 425.323 370.556 422.665 368.347 420.035C366.344 417.648 363.536 416.652 360.732 415.652C360.355 415.516 359.979 415.379 359.61 415.224C359.546 415.198 359.527 415.074 359.308 414.633C360.666 414.849 361.893 414.822 362.927 415.251C366.124 416.581 369.253 418.084 372.407 419.525C372.864 419.735 373.3 419.997 373.774 420.154C375.614 420.768 377.061 419.73 376.834 417.835C376.515 415.168 374.987 413.041 372.783 411.625C368.612 408.942 364.03 407.338 359.01 407.314C358.51 407.315 358.007 407.289 357.512 407.246C357.388 407.236 357.267 407.109 356.731 406.796C358.047 406.591 359.008 406.382 359.98 406.305C364.999 405.918 369.735 407.021 374.244 409.299C376.297 410.336 376.798 410.202 378.114 408.416L377.934 406.35L377.934 406.346Z" fill="white" fill-opacity="0.1" style="fill:white;fill-opacity:0.1;"/>
</g>
<g clip-path="url(#clip15_1573_4162)">
<path d="M270.013 34.1585C269.158 33.1923 268.454 32.0084 267.421 31.3014C264.417 29.2422 261.005 29.3699 257.61 29.6682C254.507 29.9426 251.411 30.4068 248.297 30.455C245.026 30.5035 242.711 28.7766 241.393 25.7224C240.779 24.3 240.052 22.9242 239.349 21.5409C239.066 20.9816 238.584 20.5478 238.009 21.0642C235.95 22.919 233.363 23.6405 230.779 24.3925C230.599 24.4464 230.44 24.5634 230.304 24.633C230.305 24.7495 230.291 24.8055 230.307 24.8168C233.686 27.1077 234.389 30.8954 235.738 34.2788C237.762 39.3662 239.856 44.4003 243.1 48.8953C245.284 51.9212 247.804 54.5773 251.345 56.0703C253.067 56.7967 254.856 56.9364 256.635 56.6136C257.142 56.5214 257.796 55.9971 257.911 55.5424C258 55.1873 257.459 54.4627 257.023 54.201C255.504 53.2935 253.878 52.5705 252.353 51.6756C250.65 50.6751 249.718 49.1401 249.545 47.1849C249.333 44.7812 251.116 42.9371 253.622 42.9994C255.708 43.0505 257.56 43.7752 259.154 45.1473C260.631 46.4192 261.128 48.5541 260.427 50.3171C260.211 50.8577 260.046 51.432 259.948 52.0084C259.452 54.9642 261.467 55.4029 263.468 54.7968C265.238 54.2599 266.188 52.5185 266.245 50.2273C266.306 47.6321 264.84 45.7432 263.287 43.8749C261.878 42.1787 259.904 41.4706 257.933 40.7593C257.669 40.6619 257.404 40.5645 257.145 40.4546C257.1 40.4358 257.086 40.3477 256.933 40.0351C257.887 40.1887 258.749 40.17 259.475 40.4755C261.723 41.4215 263.922 42.49 266.139 43.5145C266.46 43.6636 266.767 43.8505 267.1 43.9621C268.393 44.3987 269.409 43.6623 269.249 42.3165C269.022 40.4228 267.947 38.9118 266.398 37.905C263.465 35.9978 260.245 34.8564 256.718 34.8377C256.367 34.8376 256.013 34.8192 255.665 34.7882C255.578 34.7812 255.493 34.6913 255.116 34.4689C256.041 34.3238 256.716 34.1754 257.399 34.1216C260.925 33.8491 264.254 34.6343 267.423 36.2541C268.866 36.9914 269.218 36.8964 270.141 35.6289L270.014 34.1616L270.013 34.1585Z" fill="white" fill-opacity="0.1" style="fill:white;fill-opacity:0.1;"/>
</g>
<path d="M28.9933 185.642C26.3992 189.8 21.8823 190.907 16.8909 191.69C17.3279 191.89 17.7493 192.121 18.2019 192.289C19.8158 192.879 21.5046 193.346 23.0404 194.066C23.955 194.494 24.854 195.192 25.3753 195.966C26.3493 197.417 26.7644 199.114 25.5907 200.597C24.3702 202.138 22.3505 202.036 20.4963 201.828C17.7555 201.52 15.867 199.963 14.1782 198.191C13.4915 197.471 12.8203 196.741 11.7871 196.112C11.8901 197.101 11.9869 198.089 12.0961 199.078C12.6455 203.978 10.8631 205.569 6.03087 207.769C4.59806 208.422 2.83124 207.659 2.46914 206.074C2.12576 204.566 1.90101 202.816 2.44105 201.416C3.55857 198.523 5.21614 195.793 6.65831 192.997C6.88306 192.563 7.12967 192.138 7.36691 191.709C7.2795 191.616 7.1921 191.522 7.1047 191.429C6.21192 191.805 5.31915 192.187 4.42325 192.555C1.22363 193.865 -2.03843 194.934 -5.65947 194.824C-8.4845 194.739 -10.398 193.794 -10.86 192.162C-11.3938 190.289 -10.4199 188.943 -7.61046 187.661C-3.39632 185.738 2.94362 186.691 6.24626 189.74C6.48662 189.959 6.78005 190.135 7.3513 190.204C7.16713 189.751 6.98607 189.295 6.79566 188.844C5.51581 185.848 4.11109 182.887 3.00605 179.841C2.58464 178.676 2.72823 177.317 2.80939 176.056C2.93426 173.993 5.57824 172.159 8.44698 172.008C10.5853 171.895 11.8745 173.048 12.5175 175.35C13.351 178.352 12.5768 181.198 11.7059 184.054C11.3501 185.222 11.0129 186.392 10.6664 187.559C10.8693 187.702 11.0691 187.847 11.272 187.99C11.5748 187.531 11.8027 187.018 12.1898 186.625C14.6215 184.164 17.3591 182.052 21.002 181.102C24.698 180.138 27.1765 181.069 28.9933 184.008V185.645V185.642Z" fill="white" fill-opacity="0.1" style="fill:white;fill-opacity:0.1;"/>
<path d="M-13.4003 147.867C-18.1031 146.122 -19.9883 142.082 -21.619 137.544C-21.7527 137.986 -21.9201 138.417 -22.0173 138.868C-22.357 140.472 -22.5573 142.127 -23.0426 143.68C-23.3316 144.605 -23.8997 145.559 -24.6094 146.173C-25.9385 147.32 -27.6141 147.985 -29.3326 147.13C-31.1181 146.241 -31.348 144.337 -31.4404 142.57C-31.578 139.958 -30.2902 137.939 -28.7492 136.071C-28.1233 135.312 -27.4836 134.565 -27.0083 133.497C-28.0074 133.754 -29.0075 134.006 -30.0055 134.27C-34.9501 135.584 -36.8794 134.178 -39.9403 130.021C-40.8492 128.789 -40.357 127.013 -38.7883 126.415C-37.2955 125.848 -35.5347 125.352 -34.0058 125.628C-30.8486 126.2 -27.7686 127.303 -24.6564 128.194C-24.1733 128.334 -23.6949 128.494 -23.2153 128.646C-23.1338 128.549 -23.0523 128.452 -22.9708 128.355C-23.5053 127.582 -24.0455 126.81 -24.572 126.033C-26.448 123.257 -28.086 120.383 -28.5725 116.98C-28.9526 114.326 -28.2984 112.383 -26.6983 111.685C-24.8616 110.88 -23.3173 111.571 -21.5341 113.987C-18.8607 117.611 -18.7907 123.692 -21.377 127.277C-21.5631 127.538 -21.6951 127.841 -21.6711 128.386C-21.2359 128.14 -20.7973 127.896 -20.3659 127.644C-17.4983 125.959 -14.6881 124.162 -11.7408 122.632C-10.6137 122.048 -9.19278 121.96 -7.88377 121.83C-5.74333 121.609 -3.42016 123.781 -2.79004 126.437C-2.32036 128.417 -3.29244 129.811 -5.55133 130.788C-8.49847 132.057 -11.5508 131.798 -14.6305 131.451C-15.889 131.309 -17.1472 131.185 -18.4042 131.052C-18.5174 131.265 -18.6339 131.476 -18.7471 131.689C-18.2256 131.897 -17.6601 132.026 -17.1924 132.323C-14.2608 134.194 -11.637 136.408 -10.0574 139.657C-8.45484 142.954 -9.00142 145.422 -11.7209 147.601L-13.4031 147.868L-13.4003 147.867Z" fill="white" fill-opacity="0.1" style="fill:white;fill-opacity:0.1;"/>
<g clip-path="url(#clip16_1573_4162)">
<path d="M182.068 19.7477C181.076 20.7099 180.137 21.7214 179.079 22.6283C176.35 24.9692 173.109 26.6525 169.17 27.4242C163.898 28.4558 159.059 30.121 155.317 33.346C153.382 35.0103 151.842 36.9147 151.425 39.4205C151.111 41.3047 151.463 43.194 152.752 44.998C153.694 46.3172 155.11 47.1061 156.747 47.568C159.284 48.285 161.757 48.4322 164.165 47.9412C164.417 47.8896 164.694 47.8993 165.02 47.9868C163.714 50.0076 161.757 51.3002 159.152 51.9237C156.462 52.5681 153.881 52.1719 151.349 50.3253C151.277 54.1296 152.907 57.3609 156.803 60.0678C155.098 60.6984 153.37 60.3454 151.773 59.6796C147.171 57.7617 144.895 54.7379 145.457 50.6153C144.18 50.7712 143.004 51.0063 141.787 51.0471C139.011 51.1403 136.684 49.8586 134.454 48.3005C132.711 47.0813 131.318 45.6764 130.63 43.8685C130.513 43.563 130.593 43.2253 130.581 42.9032C130.945 43.0432 131.388 43.1106 131.662 43.3345C133.066 44.4775 134.522 45.4449 136.419 45.73C138.27 46.0088 139.998 45.9056 141.622 45.3769C141.817 45.3133 141.98 45.1962 142.092 45.1388C140.775 44.3304 139.459 43.5784 138.225 42.7323C137.781 42.4277 137.458 41.9187 137.202 41.4635C135.396 38.2463 135.893 35.4121 137.758 32.836C138.02 32.4725 138.424 32.1925 138.763 31.8743C138.878 31.919 138.994 31.9623 139.111 32.008C139.175 32.4551 139.268 32.9021 139.297 33.3465C139.399 34.9259 139.87 36.4558 140.914 37.8934C142.056 39.4672 143.718 40.0051 145.293 39.1256C146.435 38.4879 147.523 37.6717 148.262 36.6983C149.464 35.1121 150.478 33.3891 151.359 31.6235C152.909 28.5095 155.359 26.0962 158.805 24.6202C162.297 23.1239 166.027 21.9675 169.687 20.7171C173.05 19.5691 175.958 17.9509 177.95 15.37C178.465 14.7015 178.752 13.8865 179.143 13.138C179.241 12.9485 179.337 12.7581 179.473 12.4904C179.643 12.6517 179.777 12.7298 179.806 12.818C180.37 14.5209 180.886 16.2283 181.498 17.9236C181.656 18.36 182.099 18.7492 182.411 19.1585C182.297 19.3549 182.183 19.5513 182.068 19.7477Z" fill="white" fill-opacity="0.1" style="fill:white;fill-opacity:0.1;"/>
</g>
<defs>
<clipPath id="clip0_1573_4162">
<rect width="32.8897" height="54.7956" fill="white" style="fill:white;fill-opacity:1;" transform="matrix(-0.882265 -0.470753 -0.51103 0.859563 59.5283 621.7)"/>
</clipPath>
<clipPath id="clip1_1573_4162">
<rect width="37.4444" height="42.2483" fill="white" style="fill:white;fill-opacity:1;" transform="matrix(0.119918 0.992784 -0.994175 0.107775 68.5195 703.828)"/>
</clipPath>
<clipPath id="clip2_1573_4162">
<rect width="40" height="36" fill="white" style="fill:white;fill-opacity:1;" transform="translate(131 710)"/>
</clipPath>
<clipPath id="clip3_1573_4162">
<rect width="55.1792" height="51.9597" fill="white" style="fill:white;fill-opacity:1;" transform="matrix(0.971733 -0.236083 -0.261297 -0.965258 -8.42285 572.261)"/>
</clipPath>
<clipPath id="clip4_1573_4162">
<rect width="27" height="24" fill="white" style="fill:white;fill-opacity:1;" transform="translate(229 698)"/>
</clipPath>
<clipPath id="clip5_1573_4162">
<rect width="32.9037" height="54.771" fill="white" style="fill:white;fill-opacity:1;" transform="matrix(0.886569 -0.462597 -0.502615 -0.86451 19.5288 465.571)"/>
</clipPath>
<clipPath id="clip6_1573_4162">
<rect width="37.9666" height="37.4603" fill="white" style="fill:white;fill-opacity:1;" transform="matrix(-0.288497 0.957481 -0.952237 -0.305359 38.5137 275.144)"/>
</clipPath>
<clipPath id="clip7_1573_4162">
<rect width="24.4518" height="32.8355" fill="white" style="fill:white;fill-opacity:1;" transform="matrix(0.0929901 -0.995667 0.991752 0.12817 -1.20215 371.393)"/>
</clipPath>
<clipPath id="clip8_1573_4162">
<rect width="40" height="36" fill="white" style="fill:white;fill-opacity:1;" transform="translate(328.361 221) rotate(10.1776)"/>
</clipPath>
<clipPath id="clip9_1573_4162">
<rect width="36.1575" height="36.7774" fill="white" style="fill:white;fill-opacity:1;" transform="matrix(-0.301626 0.953426 -0.961703 -0.274094 372.275 27.0804)"/>
</clipPath>
<clipPath id="clip10_1573_4162">
<rect width="24.4518" height="32.8355" fill="white" style="fill:white;fill-opacity:1;" transform="matrix(-0.19592 -0.98062 0.986939 -0.161092 371.908 200.914)"/>
</clipPath>
<clipPath id="clip11_1573_4162">
<rect width="32.8897" height="54.7956" fill="white" style="fill:white;fill-opacity:1;" transform="matrix(-0.7852 -0.619242 -0.654874 0.755738 393.647 501.199)"/>
</clipPath>
<clipPath id="clip12_1573_4162">
<rect width="32.8897" height="54.7956" fill="white" style="fill:white;fill-opacity:1;" transform="matrix(-0.7852 -0.619242 -0.654874 0.755738 376.709 683.367)"/>
</clipPath>
<clipPath id="clip13_1573_4162">
<rect width="37.4444" height="42.2483" fill="white" style="fill:white;fill-opacity:1;" transform="matrix(-0.0573945 0.998352 -0.997575 -0.0695923 373.295 583.94)"/>
</clipPath>
<clipPath id="clip14_1573_4162">
<rect width="55.1792" height="51.9597" fill="white" style="fill:white;fill-opacity:1;" transform="matrix(0.998158 -0.0606617 -0.0866238 -0.996241 325.501 440.112)"/>
</clipPath>
<clipPath id="clip15_1573_4162">
<rect width="38.7667" height="36.8987" fill="white" style="fill:white;fill-opacity:1;" transform="matrix(0.998158 -0.0606617 -0.0866238 -0.996241 233.196 58.1116)"/>
</clipPath>
<clipPath id="clip16_1573_4162">
<rect width="32.9037" height="54.771" fill="white" style="fill:white;fill-opacity:1;" transform="matrix(-0.886569 -0.462597 0.502615 -0.86451 157.171 62.5712)"/>
</clipPath>
</defs>
</svg>
