<svg width="393" height="723" viewBox="0 0 393 723" fill="none" xmlns="http://www.w3.org/2000/svg">
<g clip-path="url(#clip0_1573_2860)">
<path d="M29.6941 663.08C30.035 661.774 30.4486 660.486 30.7056 659.156C31.3696 655.726 31.1744 652.229 29.7929 648.65C27.9434 643.861 26.8904 639.086 27.8145 634.374C28.29 631.94 29.188 629.697 31.2172 628.042C32.7429 626.797 34.6241 626.086 36.9214 626.174C38.6013 626.239 40.0547 626.964 41.3314 628.04C43.3101 629.705 44.7442 631.62 45.5714 633.818C45.6575 634.048 45.8119 634.266 46.0624 634.482C47.1882 632.366 47.3183 630.11 46.5065 627.684C45.6687 625.178 43.9541 623.307 40.9639 622.24C44.3403 620.179 48.0981 619.791 52.5789 621.504C52.2469 619.799 51.0205 618.593 49.5822 617.657C45.4386 614.96 41.5266 614.719 38.1222 617.341C37.5902 616.231 37.182 615.16 36.5781 614.159C35.2003 611.874 32.8248 610.674 30.2526 609.698C28.2409 608.936 26.2464 608.553 24.2621 608.951C23.9263 609.018 23.6651 609.26 23.3695 609.419C23.6868 609.639 23.9805 609.96 24.3256 610.063C26.091 610.593 27.7257 611.256 28.9798 612.634C30.2046 613.978 31.0215 615.424 31.4023 617.01C31.448 617.201 31.4287 617.394 31.4358 617.514C30.0169 616.879 28.6494 616.215 27.2404 615.666C26.7334 615.469 26.1068 615.478 25.5634 615.511C21.7254 615.75 19.443 617.642 18.1132 620.5C17.9251 620.903 17.8863 621.376 17.779 621.816C17.8797 621.885 17.9796 621.956 18.0823 622.026C18.5172 621.842 18.9674 621.682 19.3814 621.471C20.8525 620.722 22.4737 620.296 24.3133 620.38C26.3271 620.471 27.6846 621.526 27.7246 623.258C27.7537 624.514 27.594 625.82 27.1094 626.928C26.3187 628.731 25.3062 630.455 24.1851 632.093C22.2064 634.981 21.3303 638.225 21.8199 641.778C22.3153 645.378 23.2412 648.991 24.0462 652.598C24.7861 655.911 24.8647 659.105 23.5972 662.068C23.2685 662.835 22.6879 663.495 22.2222 664.204C22.1037 664.383 21.9834 664.56 21.8148 664.811C22.0487 664.862 22.1897 664.93 22.2842 664.907C24.1089 664.464 25.9133 663.981 27.7567 663.581C28.2314 663.478 28.8139 663.631 29.3457 663.667C29.4618 663.471 29.578 663.276 29.6941 663.08Z" fill="white" fill-opacity="0.1" style="fill:white;fill-opacity:0.1;"/>
</g>
<g clip-path="url(#clip1_1573_2860)">
<path d="M28.3927 695.178C28.652 695.15 28.914 695.122 29.1733 695.093C29.9929 695.441 30.8143 695.782 31.6295 696.137C33.0949 696.778 34.5693 696.791 36.05 696.174C37.1617 695.71 38.2693 695.235 39.3805 694.767C40.8198 694.159 42.3187 693.935 43.8373 694.38C48.5255 695.754 53.203 697.171 57.3652 699.683C62.6349 702.862 66.4005 706.968 66.8781 713.119C67.0319 715.096 68.0592 716.724 69.6108 718.078C70.8627 719.171 71.8878 720.407 72.2583 722.024C72.7638 724.232 71.5883 725.551 69.1869 725.313C65.5474 724.953 62.1997 725.602 59.0965 727.463C57.8937 728.183 56.5813 728.764 55.272 729.306C53.1282 730.19 50.9229 730.717 48.5488 730.134C43.3772 728.866 38.6125 726.836 34.7051 723.401C30.5066 719.709 27.9518 715.279 28.7066 709.685C28.9486 707.888 29.5106 706.125 29.9275 704.347C30.467 702.046 30.2867 699.895 28.8743 697.825C28.4001 697.129 28.5376 696.07 28.3953 695.178L28.3927 695.178Z" fill="white" fill-opacity="0.1" style="fill:white;fill-opacity:0.1;"/>
</g>
<g clip-path="url(#clip2_1573_2860)">
<path d="M171 710.643C168.406 714.801 163.889 715.908 158.898 716.691C159.335 716.891 159.756 717.122 160.209 717.289C161.823 717.88 163.511 718.347 165.047 719.067C165.962 719.495 166.861 720.193 167.382 720.967C168.356 722.417 168.771 724.115 167.598 725.598C166.377 727.139 164.357 727.037 162.503 726.828C159.762 726.521 157.874 724.964 156.185 723.192C155.498 722.472 154.827 721.742 153.794 721.113C153.897 722.102 153.994 723.09 154.103 724.079C154.652 728.979 152.87 730.569 148.038 732.769C146.605 733.423 144.838 732.66 144.476 731.075C144.133 729.567 143.908 727.817 144.448 726.416C145.565 723.524 147.223 720.794 148.665 717.998C148.89 717.564 149.137 717.138 149.374 716.71C149.286 716.617 149.199 716.523 149.112 716.43C148.219 716.806 147.326 717.188 146.43 717.556C143.23 718.866 139.968 719.934 136.347 719.825C133.522 719.739 131.609 718.795 131.147 717.163C130.613 715.29 131.587 713.944 134.396 712.661C138.611 710.739 144.95 711.692 148.253 714.741C148.493 714.96 148.787 715.136 149.358 715.205C149.174 714.752 148.993 714.296 148.802 713.845C147.523 710.849 146.118 707.888 145.013 704.842C144.591 703.677 144.735 702.318 144.816 701.057C144.941 698.994 147.585 697.159 150.454 697.008C152.592 696.896 153.881 698.049 154.524 700.351C155.358 703.353 154.584 706.199 153.713 709.055C153.357 710.222 153.02 711.392 152.673 712.56C152.876 712.703 153.076 712.848 153.279 712.991C153.582 712.532 153.81 712.019 154.197 711.626C156.628 709.165 159.366 707.053 163.009 706.102C166.705 705.138 169.183 706.069 171 709.008V710.645V710.643Z" fill="white" fill-opacity="0.1" style="fill:white;fill-opacity:0.1;"/>
</g>
<g clip-path="url(#clip3_1573_2860)">
<path d="M102 670.393C102 670.17 102 669.946 102 669.723C102.429 669.066 102.851 668.406 103.287 667.752C104.072 666.578 104.242 665.332 103.794 664.016C103.457 663.028 103.108 662.043 102.766 661.055C102.322 659.775 102.262 658.484 102.86 657.245C104.71 653.419 106.6 649.606 109.511 646.342C113.196 642.208 117.631 639.442 123.725 639.667C125.683 639.738 127.392 639.036 128.888 637.861C130.095 636.914 131.418 636.173 133.047 636.025C135.27 635.823 136.44 636.952 135.951 638.959C135.209 642.002 135.49 644.9 136.988 647.716C137.568 648.807 137.999 649.977 138.392 651.14C139.032 653.044 139.315 654.963 138.489 656.912C136.693 661.158 134.191 664.982 130.4 667.936C126.326 671.111 121.701 672.82 116.286 671.609C114.546 671.221 112.873 670.565 111.172 670.031C108.969 669.34 106.836 669.272 104.652 670.256C103.917 670.586 102.892 670.361 102 670.39V670.393Z" fill="white" fill-opacity="0.1" style="fill:white;fill-opacity:0.1;"/>
</g>
<g clip-path="url(#clip4_1573_2860)">
<path d="M306 512.643C303.406 516.801 298.889 517.908 293.898 518.691C294.335 518.891 294.756 519.122 295.209 519.289C296.823 519.88 298.511 520.347 300.047 521.067C300.962 521.495 301.861 522.193 302.382 522.967C303.356 524.417 303.771 526.115 302.598 527.598C301.377 529.139 299.357 529.037 297.503 528.828C294.762 528.521 292.874 526.964 291.185 525.192C290.498 524.472 289.827 523.742 288.794 523.113C288.897 524.102 288.994 525.09 289.103 526.079C289.652 530.979 287.87 532.569 283.038 534.769C281.605 535.423 279.838 534.66 279.476 533.075C279.133 531.567 278.908 529.817 279.448 528.416C280.565 525.524 282.223 522.794 283.665 519.998C283.89 519.564 284.137 519.138 284.374 518.71C284.286 518.617 284.199 518.523 284.112 518.43C283.219 518.806 282.326 519.188 281.43 519.556C278.23 520.866 274.968 521.934 271.347 521.825C268.522 521.739 266.609 520.795 266.147 519.163C265.613 517.29 266.587 515.944 269.396 514.661C273.611 512.739 279.95 513.692 283.253 516.741C283.493 516.96 283.787 517.136 284.358 517.205C284.174 516.752 283.993 516.296 283.802 515.845C282.523 512.849 281.118 509.888 280.013 506.842C279.591 505.677 279.735 504.318 279.816 503.057C279.941 500.994 282.585 499.159 285.454 499.008C287.592 498.896 288.881 500.049 289.524 502.351C290.358 505.353 289.584 508.199 288.713 511.055C288.357 512.222 288.02 513.392 287.673 514.56C287.876 514.703 288.076 514.848 288.279 514.991C288.582 514.532 288.81 514.019 289.197 513.626C291.628 511.165 294.366 509.053 298.009 508.102C301.705 507.138 304.183 508.069 306 511.008V512.645V512.643Z" fill="white" fill-opacity="0.1" style="fill:white;fill-opacity:0.1;"/>
</g>
<g clip-path="url(#clip5_1573_2860)">
<path d="M253 694.095C251.249 696.867 248.2 697.605 244.831 698.127C245.126 698.261 245.41 698.415 245.716 698.526C246.805 698.92 247.945 699.231 248.982 699.711C249.599 699.997 250.206 700.462 250.558 700.978C251.215 701.945 251.495 703.077 250.703 704.065C249.879 705.093 248.516 705.025 247.264 704.886C245.414 704.681 244.14 703.642 243 702.461C242.536 701.982 242.083 701.494 241.386 701.075C241.455 701.734 241.521 702.394 241.594 703.053C241.965 706.319 240.762 707.38 237.5 708.846C236.533 709.282 235.34 708.773 235.096 707.716C234.864 706.711 234.713 705.545 235.077 704.611C235.831 702.683 236.95 700.863 237.924 698.999C238.075 698.709 238.242 698.426 238.402 698.14C238.343 698.078 238.284 698.015 238.225 697.953C237.622 698.204 237.02 698.459 236.415 698.704C234.255 699.577 232.053 700.29 229.609 700.216C227.702 700.16 226.411 699.53 226.099 698.442C225.739 697.193 226.396 696.296 228.292 695.441C231.137 694.159 235.416 694.795 237.646 696.827C237.808 696.974 238.006 697.091 238.392 697.136C238.267 696.834 238.145 696.53 238.016 696.23C237.153 694.232 236.204 692.258 235.458 690.228C235.174 689.451 235.271 688.545 235.326 687.705C235.41 686.329 237.195 685.106 239.131 685.006C240.574 684.93 241.445 685.7 241.879 687.234C242.441 689.235 241.919 691.132 241.331 693.037C241.091 693.815 240.863 694.595 240.629 695.373C240.766 695.468 240.901 695.565 241.038 695.661C241.242 695.355 241.396 695.012 241.657 694.751C243.299 693.11 245.147 691.702 247.606 691.068C250.101 690.426 251.774 691.046 253 693.006V694.097V694.095Z" fill="white" fill-opacity="0.1" style="fill:white;fill-opacity:0.1;"/>
</g>
<g clip-path="url(#clip6_1573_2860)">
<path d="M209.478 491.719C209.55 491.956 209.623 492.196 209.695 492.434C209.469 493.257 209.251 494.081 209.015 494.901C208.591 496.377 208.821 497.756 209.709 499.037C210.375 499.999 211.053 500.956 211.725 501.916C212.595 503.161 213.077 504.524 212.865 506.016C212.21 510.624 211.509 515.229 209.583 519.533C207.145 524.982 203.493 529.18 197.17 530.644C195.137 531.115 193.612 532.344 192.46 534.018C191.529 535.368 190.412 536.531 188.789 537.144C186.575 537.982 185.007 537.102 184.857 534.819C184.63 531.359 183.401 528.339 180.95 525.747C180.001 524.743 179.179 523.613 178.398 522.479C177.123 520.622 176.209 518.649 176.424 516.335C176.888 511.293 178.212 506.506 181.142 502.287C184.29 497.753 188.48 494.633 194.428 494.413C196.339 494.341 198.268 494.574 200.187 494.67C202.671 494.793 204.881 494.269 206.802 492.607C207.449 492.048 208.573 492.002 209.479 491.721L209.478 491.719Z" fill="white" fill-opacity="0.1" style="fill:white;fill-opacity:0.1;"/>
</g>
<g clip-path="url(#clip7_1573_2860)">
<path d="M209.597 611.613C204.894 609.868 203.009 605.827 201.379 601.29C201.245 601.731 201.077 602.163 200.98 602.613C200.641 604.218 200.44 605.873 199.955 607.426C199.666 608.351 199.098 609.305 198.388 609.919C197.059 611.066 195.383 611.731 193.665 610.876C191.879 609.987 191.65 608.083 191.557 606.316C191.42 603.704 192.707 601.685 194.248 599.817C194.874 599.058 195.514 598.311 195.989 597.243C194.99 597.5 193.99 597.752 192.992 598.016C188.047 599.33 186.118 597.924 183.057 593.767C182.148 592.534 182.641 590.758 184.209 590.161C185.702 589.594 187.463 589.098 188.992 589.374C192.149 589.946 195.229 591.049 198.341 591.94C198.824 592.079 199.303 592.24 199.782 592.392C199.864 592.295 199.945 592.198 200.027 592.101C199.492 591.328 198.952 590.556 198.426 589.779C196.55 587.003 194.912 584.128 194.425 580.726C194.045 578.072 194.699 576.129 196.299 575.431C198.136 574.626 199.68 575.316 201.463 577.733C204.137 581.357 204.207 587.438 201.621 591.023C201.434 591.284 201.302 591.587 201.326 592.132C201.762 591.886 202.2 591.642 202.632 591.39C205.499 589.705 208.309 587.908 211.257 586.378C212.384 585.794 213.805 585.706 215.114 585.576C217.254 585.355 219.577 587.527 220.208 590.183C220.677 592.163 219.705 593.557 217.446 594.534C214.499 595.803 211.447 595.544 208.367 595.197C207.109 595.055 205.85 594.931 204.593 594.798C204.48 595.011 204.364 595.221 204.25 595.434C204.772 595.642 205.337 595.772 205.805 596.069C208.737 597.94 211.361 600.153 212.94 603.403C214.543 606.7 213.996 609.168 211.277 611.346L209.594 611.614L209.597 611.613Z" fill="white" fill-opacity="0.1" style="fill:white;fill-opacity:0.1;"/>
</g>
<g clip-path="url(#clip8_1573_2860)">
<path d="M126.573 511.75C126.703 513.353 127.172 515.056 126.9 516.537C126.11 520.849 122.912 523.311 119.571 525.591C116.515 527.674 113.288 529.564 110.433 531.878C107.436 534.311 106.959 537.772 108.62 541.786C109.393 543.656 110.021 545.566 110.677 547.465C110.944 548.232 110.914 549.026 109.913 548.952C106.324 548.683 103.317 549.932 100.284 551.15C100.071 551.233 99.8178 551.239 99.6303 551.273C99.5224 551.157 99.4578 551.112 99.4621 551.089C100.373 546.264 97.4727 541.992 95.5328 537.629C92.6124 531.071 89.8043 524.513 88.5367 517.615C87.6842 512.971 87.4791 508.438 89.2809 504.278C90.1572 502.255 91.6408 500.76 93.5474 499.729C94.0909 499.436 95.1707 499.457 95.6985 499.819C96.1105 500.102 96.2984 501.227 96.1493 501.816C95.6252 503.865 94.8323 505.812 94.2919 507.852C93.6888 510.131 94.28 512.354 95.9483 514.415C97.9999 516.949 101.329 517.417 103.533 515.455C105.368 513.822 106.362 511.702 106.52 509.139C106.666 506.763 105.122 504.278 102.844 503.069C102.146 502.699 101.46 502.258 100.834 501.763C97.6286 499.221 99.0375 497.259 101.409 496.34C103.507 495.527 105.989 496.526 108.178 498.745C110.655 501.261 111.095 504.237 111.437 507.26C111.748 510.003 110.628 512.199 109.513 514.396C109.365 514.693 109.218 514.99 109.086 515.295C109.063 515.347 109.133 515.445 109.286 515.87C110.004 514.995 110.799 514.36 111.169 513.507C112.314 510.868 113.302 508.145 114.347 505.452C114.497 505.061 114.599 504.645 114.796 504.282C115.555 502.87 117.159 502.826 118.27 504.277C119.833 506.318 120.273 508.625 119.814 510.794C118.948 514.901 117.107 518.47 113.942 521.164C113.625 521.431 113.324 521.717 113.039 522.011C112.967 522.084 112.974 522.237 112.841 522.743C113.811 522.185 114.559 521.819 115.225 521.354C118.661 518.949 120.932 515.649 122.28 511.646C122.894 509.824 123.301 509.65 125.316 510.202L126.57 511.747L126.573 511.75Z" fill="white" fill-opacity="0.1" style="fill:white;fill-opacity:0.1;"/>
</g>
<g clip-path="url(#clip9_1573_2860)">
<path d="M293.532 659.242C293.341 659.31 293.148 659.378 292.956 659.445C292.287 659.381 291.617 659.323 290.949 659.253C289.75 659.126 288.637 659.4 287.614 660.076C286.846 660.583 286.082 661.097 285.315 661.607C284.322 662.268 283.226 662.698 282.016 662.706C278.278 662.73 274.541 662.726 271.029 661.927C266.583 660.916 263.131 659.028 261.849 655.213C261.437 653.987 260.419 653.149 259.048 652.586C257.941 652.132 256.983 651.543 256.462 650.586C255.75 649.28 256.438 648.218 258.283 647.909C261.079 647.441 263.504 646.388 265.563 644.612C266.361 643.924 267.263 643.304 268.168 642.709C269.651 641.737 271.233 640.98 273.109 640.896C277.196 640.712 281.089 641.089 284.548 642.523C288.264 644.064 290.853 646.39 291.122 650.087C291.209 651.275 291.05 652.503 291.002 653.712C290.94 655.277 291.398 656.609 292.772 657.653C293.234 658.005 293.289 658.703 293.53 659.243L293.532 659.242Z" fill="white" fill-opacity="0.1" style="fill:white;fill-opacity:0.1;"/>
</g>
<g clip-path="url(#clip10_1573_2860)">
<path d="M14.0422 294.162C10.6321 290.483 10.7722 286.026 11.3634 281.241C11.0451 281.575 10.7011 281.884 10.4111 282.242C9.38405 283.521 8.45895 284.908 7.32535 286.075C6.65034 286.77 5.71289 287.365 4.80267 287.593C3.09901 288.017 1.30342 287.855 0.155192 286.317C-1.03736 284.718 -0.383618 282.915 0.330962 281.296C1.38628 278.903 3.44653 277.682 5.66436 276.71C6.56545 276.315 7.47316 275.937 8.37933 275.198C7.37137 274.977 6.36512 274.751 5.35545 274.536C0.349798 273.478 -0.737884 271.353 -1.59462 266.263C-1.84999 264.753 -0.6096 263.39 1.05988 263.564C2.64803 263.731 4.44319 264.083 5.68329 265.019C8.24305 266.953 10.4944 269.327 12.87 271.526C13.2384 271.868 13.5927 272.228 13.9523 272.58C14.0688 272.53 14.1853 272.48 14.3017 272.43C14.1733 271.499 14.0395 270.567 13.9202 269.636C13.4981 266.311 13.3327 263.007 14.4331 259.751C15.2911 257.211 16.7513 255.772 18.4944 255.871C20.4966 255.981 21.5635 257.294 22.0651 260.254C22.8162 264.695 20.1358 270.154 16.2105 272.187C15.927 272.335 15.6725 272.546 15.448 273.044C15.9475 273.02 16.4488 273.001 16.9473 272.971C20.267 272.76 23.5854 272.424 26.9062 272.387C28.1755 272.374 29.4834 272.937 30.7103 273.411C32.72 274.18 33.814 277.166 33.1781 279.821C32.7041 281.8 31.2081 282.605 28.7513 282.458C25.5485 282.262 22.941 280.654 20.3491 278.955C19.2899 278.261 18.2228 277.583 17.161 276.897C16.964 277.036 16.765 277.171 16.5679 277.31C16.9395 277.731 17.386 278.101 17.6692 278.578C19.4418 281.57 20.785 284.729 20.7292 288.342C20.6723 292.007 19.071 293.964 15.6615 294.681L14.0395 294.161L14.0422 294.162Z" fill="white" fill-opacity="0.1" style="fill:white;fill-opacity:0.1;"/>
</g>
<g clip-path="url(#clip11_1573_2860)">
<path d="M29.9085 362.413C29.7074 362.387 29.5043 362.361 29.3032 362.335C28.7345 361.976 28.1633 361.621 27.5991 361.258C26.5852 360.604 25.4684 360.346 24.2507 360.488C23.3364 360.594 22.4233 360.708 21.5087 360.818C20.3238 360.96 19.1523 360.849 18.068 360.31C14.7208 358.646 11.3884 356.956 8.61425 354.659C5.10164 351.752 2.87206 348.51 3.44962 344.526C3.63497 343.246 3.10429 342.04 2.13399 340.918C1.35109 340.013 0.762201 339.056 0.728253 337.967C0.682056 336.481 1.77558 335.842 3.56119 336.399C6.26758 337.243 8.90685 337.397 11.5458 336.74C12.5684 336.487 13.6531 336.339 14.7292 336.217C16.4908 336.019 18.2447 336.056 19.9568 336.828C23.687 338.506 26.9921 340.599 29.4319 343.439C32.0533 346.491 33.3147 349.734 31.8872 353.155C31.4289 354.255 30.7331 355.279 30.1451 356.336C29.3842 357.705 29.1922 359.101 29.9475 360.653C30.201 361.174 29.9349 361.823 29.9064 362.413L29.9085 362.413Z" fill="white" fill-opacity="0.1" style="fill:white;fill-opacity:0.1;"/>
</g>
<g clip-path="url(#clip12_1573_2860)">
<path d="M365.322 228.496C362.034 232.131 357.392 232.422 352.341 232.31C352.736 232.585 353.11 232.887 353.526 233.131C355.01 233.998 356.589 234.756 357.974 235.735C358.798 236.319 359.56 237.164 359.936 238.019C360.639 239.618 360.747 241.362 359.33 242.615C357.856 243.916 355.886 243.459 354.098 242.926C351.455 242.139 349.871 240.272 348.522 238.23C347.973 237.4 347.442 236.563 346.536 235.761C346.463 236.752 346.383 237.743 346.316 238.735C345.991 243.655 343.956 244.906 338.811 246.217C337.285 246.607 335.681 245.544 335.604 243.92C335.533 242.375 335.621 240.613 336.4 239.33C338.011 236.681 340.125 234.286 342.038 231.789C342.336 231.402 342.654 231.026 342.963 230.646C342.894 230.539 342.824 230.432 342.755 230.324C341.81 230.537 340.863 230.755 339.917 230.959C336.536 231.683 333.136 232.158 329.592 231.41C326.826 230.827 325.11 229.559 324.943 227.872C324.749 225.934 325.945 224.781 328.937 224.015C333.425 222.867 339.496 224.926 342.208 228.51C342.406 228.769 342.664 228.994 343.214 229.162C343.113 228.684 343.015 228.203 342.907 227.726C342.177 224.55 341.318 221.388 340.768 218.194C340.559 216.974 340.941 215.661 341.244 214.434C341.731 212.426 344.658 211.088 347.508 211.446C349.632 211.713 350.697 213.076 350.924 215.455C351.214 218.557 349.949 221.221 348.587 223.879C348.03 224.965 347.492 226.057 346.944 227.145C347.119 227.321 347.29 227.5 347.464 227.676C347.843 227.278 348.158 226.813 348.609 226.495C351.437 224.502 354.505 222.907 358.258 222.615C362.066 222.319 364.342 223.674 365.61 226.887L365.321 228.499L365.322 228.496Z" fill="white" fill-opacity="0.1" style="fill:white;fill-opacity:0.1;"/>
</g>
<g clip-path="url(#clip13_1573_2860)">
<path d="M201.934 30.3457C200.718 28.9858 199.717 27.3192 198.248 26.3246C193.975 23.4274 189.118 23.6103 184.287 24.0335C179.869 24.4229 175.462 25.0794 171.03 25.1501C166.374 25.2214 163.081 22.7916 161.211 18.4918C160.338 16.4892 159.305 14.5525 158.306 12.6051C157.904 11.8177 157.219 11.2072 156.4 11.935C153.466 14.5489 149.784 15.5673 146.106 16.6287C145.849 16.7047 145.622 16.8697 145.428 16.9678C145.429 17.1318 145.41 17.2107 145.433 17.2266C150.239 20.4498 151.234 25.7831 153.15 30.5466C156.025 37.709 158.998 44.7963 163.609 51.1234C166.714 55.3828 170.296 59.1208 175.334 61.22C177.785 62.2414 180.33 62.4365 182.863 61.9803C183.585 61.8501 184.517 61.1111 184.681 60.4706C184.808 59.9706 184.039 58.9506 183.419 58.5824C181.258 57.3059 178.944 56.2892 176.776 55.0304C174.353 53.623 173.028 51.4622 172.784 48.7088C172.486 45.324 175.025 42.7254 178.593 42.8109C181.562 42.8809 184.197 43.8997 186.463 45.8306C188.563 47.6203 189.268 50.6264 188.268 53.1098C187.961 53.8713 187.724 54.6803 187.584 55.492C186.875 59.655 189.742 60.271 192.591 59.4155C195.111 58.6578 196.465 56.2046 196.549 52.978C196.639 49.3233 194.556 46.6645 192.347 44.0349C190.344 41.6476 187.536 40.6523 184.732 39.6524C184.355 39.5155 183.979 39.3785 183.61 39.2239C183.546 39.1976 183.527 39.0735 183.309 38.6333C184.666 38.8488 185.893 38.8217 186.927 39.2512C190.124 40.5813 193.253 42.084 196.407 43.5247C196.865 43.7345 197.3 43.9973 197.775 44.1542C199.615 44.7679 201.061 43.7299 200.835 41.8349C200.515 39.1682 198.987 37.0414 196.783 35.625C192.612 32.9419 188.03 31.3375 183.01 31.3143C182.51 31.3145 182.007 31.2889 181.512 31.2456C181.388 31.2359 181.267 31.1093 180.731 30.7965C182.047 30.5912 183.008 30.3817 183.98 30.3053C188.999 29.9182 193.735 31.021 198.244 33.2992C200.297 34.3361 200.799 34.202 202.114 32.4162L201.934 30.3499L201.934 30.3457Z" fill="white" fill-opacity="0.1" style="fill:white;fill-opacity:0.1;"/>
</g>
<g clip-path="url(#clip14_1573_2860)">
<path d="M280.209 223.723C277.995 226.142 274.864 226.33 271.456 226.248C271.722 226.432 271.975 226.633 272.256 226.797C273.259 227.377 274.326 227.885 275.261 228.54C275.819 228.931 276.334 229.496 276.589 230.066C277.065 231.134 277.141 232.297 276.186 233.13C275.194 233.996 273.864 233.688 272.657 233.33C270.872 232.801 269.801 231.554 268.888 230.19C268.516 229.636 268.156 229.077 267.544 228.541C267.496 229.202 267.444 229.862 267.4 230.524C267.188 233.805 265.816 234.636 262.347 235.503C261.318 235.761 260.234 235.049 260.18 233.966C260.129 232.936 260.186 231.761 260.71 230.906C261.793 229.142 263.216 227.548 264.503 225.885C264.704 225.627 264.918 225.378 265.126 225.125C265.079 225.053 265.032 224.981 264.985 224.91C264.347 225.05 263.709 225.194 263.071 225.329C260.791 225.807 258.497 226.119 256.105 225.615C254.238 225.222 253.078 224.374 252.963 223.248C252.829 221.955 253.635 221.188 255.652 220.682C258.679 219.923 262.778 221.304 264.613 223.699C264.747 223.872 264.921 224.022 265.293 224.135C265.224 223.816 265.157 223.495 265.084 223.177C264.587 221.058 264.002 218.947 263.627 216.817C263.484 216.003 263.74 215.128 263.942 214.31C264.268 212.971 266.241 212.083 268.164 212.326C269.598 212.507 270.319 213.418 270.475 215.005C270.675 217.074 269.826 218.849 268.91 220.619C268.537 221.343 268.175 222.07 267.807 222.795C267.925 222.913 268.041 223.032 268.159 223.15C268.414 222.885 268.626 222.575 268.929 222.364C270.835 221.039 272.902 219.98 275.434 219.791C278.003 219.599 279.54 220.505 280.401 222.651L280.208 223.725L280.209 223.723Z" fill="white" fill-opacity="0.1" style="fill:white;fill-opacity:0.1;"/>
</g>
<g clip-path="url(#clip15_1573_2860)">
<path d="M368.128 122.007C363.807 119.459 362.666 115.148 361.862 110.394C361.653 110.805 361.412 111.2 361.237 111.626C360.619 113.146 360.129 114.739 359.377 116.182C358.929 117.041 358.201 117.88 357.395 118.359C355.884 119.253 354.117 119.612 352.576 118.467C350.976 117.276 351.086 115.361 351.308 113.606C351.634 111.011 353.258 109.251 355.105 107.684C355.855 107.048 356.617 106.426 357.273 105.458C356.244 105.535 355.215 105.607 354.186 105.69C349.088 106.109 347.437 104.384 345.159 99.7521C344.482 98.3785 345.28 96.7174 346.93 96.4067C348.499 96.1121 350.32 95.9352 351.776 96.4769C354.783 97.5978 357.619 99.2279 360.525 100.655C360.976 100.877 361.418 101.12 361.864 101.354C361.961 101.273 362.058 101.192 362.156 101.111C361.766 100.256 361.371 99.4007 360.99 98.5427C359.634 95.4785 358.53 92.36 358.652 88.9254C358.747 86.2457 359.734 84.4491 361.432 84.0446C363.382 83.5769 364.78 84.5293 366.109 87.2226C368.1 91.2625 367.094 97.2603 363.915 100.332C363.686 100.555 363.502 100.83 363.429 101.371C363.901 101.205 364.376 101.043 364.845 100.872C367.965 99.7193 371.049 98.4476 374.22 97.4621C375.433 97.0863 376.847 97.2509 378.158 97.3542C380.304 97.5156 382.207 100.063 382.358 102.789C382.47 104.821 381.267 106.021 378.871 106.583C375.746 107.312 372.787 106.518 369.818 105.632C368.604 105.27 367.387 104.926 366.174 104.572C366.025 104.762 365.873 104.949 365.724 105.138C366.2 105.435 366.734 105.662 367.142 106.038C369.697 108.397 371.888 111.039 372.869 114.517C373.864 118.045 372.889 120.378 369.828 122.041L368.125 122.007L368.128 122.007Z" fill="white" fill-opacity="0.1" style="fill:white;fill-opacity:0.1;"/>
</g>
<path d="M58.263 68.4253C53.9425 65.8766 52.801 61.5663 51.9977 56.8123C51.7881 57.223 51.5471 57.6181 51.3718 58.0443C50.7539 59.5638 50.2644 61.157 49.5123 62.5998C49.0645 63.459 48.3367 64.2978 47.5298 64.7765C46.0189 65.6707 44.252 66.0295 42.7116 64.8846C41.1113 63.694 41.2215 61.7792 41.4428 60.0235C41.7689 57.4285 43.3932 55.6684 45.2401 54.1023C45.9902 53.4655 46.7518 52.8436 47.4085 51.876C46.3795 51.9532 45.3506 52.0245 44.3217 52.1076C39.2228 52.5271 37.5723 50.8022 35.2941 46.1699C34.6172 44.7963 35.4155 43.1352 37.0651 42.8245C38.6346 42.53 40.4553 42.353 41.9114 42.8948C44.9179 44.0156 47.7545 45.6457 50.6602 47.0728C51.1112 47.2951 51.5535 47.5381 51.9988 47.7721C52.0961 47.6911 52.1935 47.6101 52.2908 47.5291C51.9013 46.6739 51.5061 45.8185 51.1252 44.9605C49.7693 41.8963 48.665 38.7779 48.7873 35.3432C48.8821 32.6636 49.8694 30.867 51.5677 30.4624C53.5177 29.9947 54.9157 30.9471 56.2439 33.6404C58.2348 37.6803 57.2292 43.6781 54.0501 46.7494C53.8209 46.973 53.6374 47.2479 53.5647 47.7886C54.0366 47.6233 54.5113 47.4609 54.9804 47.2895C58.1007 46.1371 61.1842 44.8654 64.3556 43.8799C65.5681 43.5041 66.9822 43.6687 68.2936 43.772C70.4393 43.9334 72.3422 46.4812 72.493 49.2072C72.6054 51.2391 71.4024 52.4388 69.0064 53.0013C65.8814 53.7299 62.9228 52.9359 59.9529 52.0498C58.7393 51.6878 57.5227 51.3434 56.3091 50.9903C56.1601 51.1799 56.0082 51.3665 55.8591 51.5561C56.3357 51.853 56.8695 52.08 57.2773 52.4556C59.8322 54.8149 62.0235 57.4573 63.0041 60.9347C63.9989 64.4629 63.0247 66.796 59.9632 68.4593L58.2601 68.4252L58.263 68.4253Z" fill="white" fill-opacity="0.1" style="fill:white;fill-opacity:0.1;"/>
<g clip-path="url(#clip16_1573_2860)">
<path d="M337.454 25.6546C337.299 27.2547 337.459 29.0138 336.93 30.4238C335.391 34.528 331.808 36.3863 328.117 38.0401C324.74 39.5502 321.23 40.8404 318.012 42.6138C314.632 44.4791 313.55 47.8012 314.476 52.0458C314.907 54.0231 315.187 56.0136 315.498 57.9987C315.624 58.8006 315.455 59.5765 314.483 59.3271C310.998 58.428 307.817 59.1266 304.617 59.7889C304.392 59.8335 304.142 59.7941 303.952 59.7948C303.866 59.6619 303.81 59.6062 303.819 59.5837C305.568 54.9961 303.468 50.2786 302.329 45.6411C300.614 38.6703 299.009 31.7194 298.98 24.7061C298.961 19.9843 299.561 15.4864 302.069 11.7107C303.289 9.8738 305.013 8.66492 307.072 7.98723C307.659 7.79428 308.718 8.00595 309.174 8.45545C309.529 8.80649 309.515 9.94771 309.264 10.5012C308.387 12.4245 307.262 14.2012 306.37 16.1132C305.373 18.2503 305.562 20.5422 306.84 22.8662C308.412 25.7227 311.606 26.7721 314.122 25.2296C316.216 23.9467 317.57 22.0358 318.178 19.5407C318.741 17.2281 317.661 14.5097 315.633 12.9174C315.011 12.4294 314.414 11.874 313.885 11.2764C311.179 8.20783 312.912 6.5261 315.409 6.04009C317.617 5.61123 319.884 7.0329 321.646 9.60376C323.64 12.5174 323.547 15.5249 323.349 18.5604C323.171 21.3154 321.68 23.2789 320.195 25.2445C319.997 25.5105 319.799 25.7764 319.616 26.0537C319.584 26.1013 319.636 26.2096 319.711 26.6551C320.572 25.9204 321.467 25.4356 321.982 24.6618C323.576 22.2672 325.029 19.7615 326.533 17.2954C326.75 16.9372 326.924 16.5451 327.182 16.2224C328.179 14.967 329.765 15.2078 330.602 16.8314C331.78 19.1167 331.805 21.4652 330.971 23.5192C329.392 27.4084 326.95 30.5964 323.359 32.6883C322.999 32.8948 322.652 33.1231 322.319 33.3626C322.236 33.4216 322.216 33.5737 321.996 34.0479C323.049 33.6698 323.849 33.4422 324.588 33.1023C328.395 31.3419 331.212 28.4954 333.247 24.7936C334.173 23.1086 334.604 23.0096 336.49 23.9083L337.452 25.651L337.454 25.6546Z" fill="white" fill-opacity="0.1" style="fill:white;fill-opacity:0.1;"/>
</g>
<g clip-path="url(#clip17_1573_2860)">
<path d="M402.868 182.861C402.668 182.894 402.466 182.927 402.266 182.959C401.618 182.778 400.969 182.602 400.324 182.415C399.166 182.079 398.022 182.152 396.896 182.636C396.05 182.999 395.208 183.37 394.363 183.737C393.268 184.212 392.114 184.441 390.921 184.235C387.237 183.599 383.561 182.934 380.245 181.527C376.047 179.747 372.983 177.279 372.396 173.297C372.207 172.017 371.353 171.013 370.103 170.216C369.093 169.573 368.255 168.824 367.911 167.791C367.441 166.38 368.306 165.455 370.176 165.478C373.011 165.511 375.584 164.903 377.924 163.519C378.832 162.983 379.829 162.532 380.825 162.106C382.456 161.412 384.147 160.946 386.009 161.195C390.063 161.735 393.829 162.795 396.98 164.817C400.365 166.991 402.502 169.737 402.114 173.424C401.989 174.609 401.616 175.789 401.355 176.97C401.018 178.5 401.233 179.892 402.401 181.163C402.793 181.59 402.724 182.288 402.866 182.861L402.868 182.861Z" fill="white" fill-opacity="0.1" style="fill:white;fill-opacity:0.1;"/>
</g>
<g clip-path="url(#clip18_1573_2860)">
<path d="M74.7502 162.214C74.5501 162.247 74.348 162.28 74.1479 162.312C73.5002 162.131 72.8513 161.955 72.2067 161.768C71.048 161.432 69.9043 161.505 68.778 161.989C67.9323 162.352 67.0902 162.723 66.2452 163.09C65.1506 163.565 63.9963 163.794 62.8031 163.588C59.1196 162.952 55.443 162.287 52.1274 160.88C47.9295 159.1 44.8651 156.632 44.2783 152.65C44.0894 151.37 43.2355 150.366 41.9848 149.569C40.9756 148.926 40.1373 148.177 39.793 147.144C39.3233 145.733 40.1884 144.808 42.0587 144.831C44.8933 144.864 47.4662 144.256 49.8067 142.872C50.714 142.336 51.7111 141.885 52.7072 141.459C54.3383 140.765 56.0296 140.299 57.891 140.548C61.9455 141.088 65.7113 142.148 68.8619 144.17C72.2474 146.344 74.3842 149.09 73.9959 152.777C73.8716 153.962 73.498 155.142 73.2373 156.323C72.9 157.853 73.1156 159.245 74.2836 160.516C74.6758 160.943 74.6064 161.641 74.7482 162.214L74.7502 162.214Z" fill="white" fill-opacity="0.1" style="fill:white;fill-opacity:0.1;"/>
</g>
<path d="M393.749 316.213C393.549 316.246 393.347 316.279 393.146 316.312C392.499 316.13 391.85 315.954 391.205 315.767C390.047 315.431 388.903 315.504 387.777 315.988C386.931 316.352 386.089 316.723 385.244 317.089C384.149 317.565 382.995 317.794 381.802 317.588C378.118 316.951 374.442 316.286 371.126 314.879C366.928 313.099 363.864 310.631 363.277 306.649C363.088 305.369 362.234 304.365 360.983 303.569C359.974 302.926 359.136 302.177 358.792 301.143C358.322 299.732 359.187 298.808 361.057 298.83C363.892 298.864 366.465 298.256 368.805 296.871C369.713 296.335 370.71 295.884 371.706 295.459C373.337 294.764 375.028 294.298 376.89 294.548C380.944 295.088 384.71 296.147 387.86 298.17C391.246 300.344 393.383 303.09 392.994 306.777C392.87 307.961 392.497 309.142 392.236 310.323C391.899 311.852 392.114 313.244 393.282 314.515C393.674 314.943 393.605 315.64 393.747 316.214L393.749 316.213Z" fill="white" fill-opacity="0.1" style="fill:white;fill-opacity:0.1;"/>
<g clip-path="url(#clip19_1573_2860)">
<path d="M344.255 693.819C344.821 692.594 345.456 691.398 345.944 690.135C347.204 686.876 347.629 683.4 346.902 679.633C345.928 674.592 345.735 669.707 347.477 665.233C348.375 662.921 349.656 660.871 351.945 659.601C353.667 658.645 355.644 658.278 357.89 658.771C359.532 659.131 360.834 660.101 361.901 661.386C363.554 663.375 364.627 665.513 365.053 667.823C365.097 668.064 365.211 668.306 365.419 668.563C366.901 666.68 367.428 664.482 367.057 661.95C366.676 659.336 365.319 657.191 362.564 655.613C366.251 654.181 370.019 654.463 374.126 656.941C374.101 655.203 373.107 653.8 371.856 652.624C368.255 649.238 364.447 648.309 360.633 650.289C360.305 649.102 360.093 647.976 359.675 646.883C358.723 644.391 356.597 642.79 354.237 641.375C352.392 640.27 350.497 639.54 348.473 639.582C348.131 639.588 347.831 639.78 347.512 639.885C347.785 640.157 348.018 640.525 348.339 640.687C349.983 641.521 351.475 642.462 352.466 644.04C353.434 645.579 353.982 647.147 354.077 648.776C354.088 648.972 354.035 649.158 354.021 649.277C352.737 648.401 351.508 647.506 350.218 646.717C349.754 646.434 349.136 646.331 348.595 646.268C344.775 645.825 342.194 647.284 340.38 649.862C340.124 650.226 340.002 650.684 339.819 651.098C339.906 651.184 339.992 651.271 340.08 651.359C340.541 651.254 341.012 651.176 341.457 651.042C343.037 650.564 344.708 650.432 346.504 650.839C348.47 651.285 349.62 652.564 349.353 654.275C349.16 655.517 348.772 656.774 348.099 657.778C347.002 659.414 345.701 660.931 344.308 662.346C341.85 664.839 340.415 667.877 340.269 671.46C340.12 675.091 340.393 678.811 340.548 682.503C340.691 685.895 340.204 689.052 338.433 691.745C337.974 692.442 337.286 692.989 336.702 693.605C336.554 693.759 336.404 693.913 336.194 694.13C336.415 694.222 336.542 694.313 336.639 694.307C338.513 694.194 340.375 694.037 342.26 693.969C342.745 693.952 343.291 694.205 343.808 694.334C343.957 694.163 344.106 693.991 344.255 693.819Z" fill="white" fill-opacity="0.1" style="fill:white;fill-opacity:0.1;"/>
</g>
<path d="M13.9293 190.643C11.3353 194.801 6.81832 195.908 1.8269 196.691C2.26393 196.891 2.68534 197.122 3.13797 197.289C4.75183 197.88 6.44061 198.347 7.97643 199.067C8.89105 199.495 9.79007 200.193 10.3114 200.967C11.2853 202.417 11.7005 204.115 10.5268 205.598C9.30622 207.139 7.28656 207.037 5.43233 206.828C2.69158 206.521 0.803022 204.964 -0.885756 203.192C-1.5725 202.472 -2.24365 201.742 -3.27689 201.113C-3.17388 202.102 -3.07711 203.09 -2.96785 204.079C-2.41845 208.979 -4.20088 210.569 -9.03309 212.769C-10.4659 213.423 -12.2327 212.66 -12.5948 211.075C-12.9382 209.567 -13.163 207.817 -12.6229 206.416C-11.5054 203.524 -9.84783 200.794 -8.40566 197.998C-8.1809 197.564 -7.9343 197.138 -7.69706 196.71C-7.78446 196.617 -7.87186 196.523 -7.95927 196.43C-8.85204 196.806 -9.74482 197.188 -10.6407 197.556C-13.8403 198.866 -17.1024 199.934 -20.7234 199.825C-23.5485 199.739 -25.462 198.795 -25.924 197.163C-26.4578 195.29 -25.4839 193.944 -22.6744 192.661C-18.4603 190.739 -12.1203 191.692 -8.81771 194.741C-8.57734 194.96 -8.28391 195.136 -7.71266 195.205C-7.89684 194.752 -8.07789 194.296 -8.26831 193.845C-9.54816 190.849 -10.9529 187.888 -12.0579 184.842C-12.4793 183.677 -12.3357 182.318 -12.2546 181.057C-12.1297 178.994 -9.48573 177.159 -6.61699 177.008C-4.4787 176.896 -3.18949 178.049 -2.54644 180.351C-1.71297 183.353 -2.48713 186.199 -3.35805 189.055C-3.71391 190.222 -4.05104 191.392 -4.39754 192.56C-4.19464 192.703 -3.99485 192.848 -3.79195 192.991C-3.48916 192.532 -3.26128 192.019 -2.87421 191.626C-0.44249 189.165 2.29514 187.053 5.93803 186.102C9.63399 185.138 12.1125 186.069 13.9293 189.008V190.645V190.643Z" fill="white" fill-opacity="0.1" style="fill:white;fill-opacity:0.1;"/>
<path d="M-13.4003 134.867C-18.1031 133.122 -19.9883 129.082 -21.619 124.544C-21.7527 124.986 -21.9201 125.417 -22.0173 125.868C-22.357 127.472 -22.5573 129.127 -23.0426 130.68C-23.3316 131.605 -23.8997 132.559 -24.6094 133.173C-25.9385 134.32 -27.6141 134.985 -29.3326 134.13C-31.1181 133.241 -31.348 131.337 -31.4404 129.57C-31.578 126.958 -30.2902 124.939 -28.7492 123.071C-28.1233 122.312 -27.4836 121.565 -27.0083 120.497C-28.0074 120.754 -29.0075 121.006 -30.0055 121.27C-34.9501 122.584 -36.8794 121.178 -39.9403 117.021C-40.8492 115.789 -40.357 114.013 -38.7883 113.415C-37.2955 112.848 -35.5347 112.352 -34.0058 112.628C-30.8486 113.2 -27.7686 114.303 -24.6564 115.194C-24.1733 115.334 -23.6949 115.494 -23.2153 115.646C-23.1338 115.549 -23.0523 115.452 -22.9708 115.355C-23.5053 114.582 -24.0455 113.81 -24.572 113.033C-26.448 110.257 -28.086 107.383 -28.5725 103.98C-28.9526 101.326 -28.2984 99.3833 -26.6983 98.685C-24.8616 97.8801 -23.3173 98.5706 -21.5341 100.987C-18.8607 104.611 -18.7907 110.692 -21.377 114.277C-21.5631 114.538 -21.6951 114.841 -21.6711 115.386C-21.2359 115.14 -20.7973 114.896 -20.3659 114.644C-17.4983 112.959 -14.6881 111.162 -11.7408 109.632C-10.6137 109.048 -9.19278 108.96 -7.88377 108.83C-5.74333 108.609 -3.42016 110.781 -2.79004 113.437C-2.32036 115.417 -3.29244 116.811 -5.55133 117.788C-8.49847 119.057 -11.5508 118.798 -14.6305 118.451C-15.889 118.309 -17.1472 118.185 -18.4042 118.052C-18.5174 118.265 -18.6339 118.476 -18.7471 118.689C-18.2256 118.897 -17.6601 119.026 -17.1924 119.323C-14.2608 121.194 -11.637 123.408 -10.0574 126.657C-8.45484 129.954 -9.00142 132.422 -11.7209 134.601L-13.4031 134.868L-13.4003 134.867Z" fill="white" fill-opacity="0.1" style="fill:white;fill-opacity:0.1;"/>
<g clip-path="url(#clip20_1573_2860)">
<path d="M18.9998 107.095C17.2489 109.867 14.1999 110.605 10.8307 111.127C11.1257 111.261 11.4102 111.415 11.7157 111.526C12.8051 111.92 13.945 112.231 14.9817 112.711C15.599 112.997 16.2059 113.462 16.5577 113.978C17.2152 114.945 17.4954 116.077 16.7031 117.065C15.8793 118.093 14.516 118.025 13.2644 117.886C11.4144 117.681 10.1396 116.642 8.99969 115.461C8.53613 114.982 8.08311 114.494 7.38567 114.075C7.4552 114.734 7.52052 115.394 7.59427 116.053C7.96511 119.319 6.76198 120.38 3.50023 121.846C2.53309 122.282 1.34048 121.773 1.09606 120.716C0.864285 119.711 0.712578 118.545 1.0771 117.611C1.83143 115.683 2.95029 113.863 3.92375 111.999C4.07546 111.709 4.24192 111.426 4.40206 111.14C4.34306 111.078 4.28406 111.015 4.22506 110.953C3.62244 111.204 3.01982 111.459 2.41509 111.704C0.255342 112.577 -1.94655 113.29 -4.39075 113.216C-6.29765 113.16 -7.58928 112.53 -7.90113 111.442C-8.26144 110.193 -7.60403 109.296 -5.70767 108.441C-2.86312 107.159 1.41634 107.795 3.64562 109.827C3.80786 109.974 4.00593 110.091 4.39152 110.136C4.26721 109.834 4.14499 109.53 4.01646 109.23C3.15256 107.232 2.20438 105.258 1.45848 103.228C1.17403 102.451 1.27095 101.545 1.32573 100.705C1.41002 99.3294 3.19471 98.1063 5.1311 98.0056C6.57445 97.9305 7.44467 98.6995 7.87872 100.234C8.44131 102.235 7.91876 104.132 7.33089 106.037C7.09068 106.815 6.86312 107.595 6.62923 108.373C6.76619 108.468 6.90104 108.565 7.038 108.661C7.24239 108.355 7.3962 108.012 7.65748 107.751C9.29889 106.11 11.1468 104.702 13.6057 104.068C16.1005 103.426 17.7735 104.046 18.9998 106.006L18.9998 107.097L18.9998 107.095Z" fill="white" fill-opacity="0.1" style="fill:white;fill-opacity:0.1;"/>
</g>
<defs>
<clipPath id="clip0_1573_2860">
<rect width="32.8897" height="54.7956" fill="white" style="fill:white;fill-opacity:1;" transform="matrix(-0.882265 -0.470753 -0.51103 0.859563 55.0195 620.483)"/>
</clipPath>
<clipPath id="clip1_1573_2860">
<rect width="37.4444" height="42.2483" fill="white" style="fill:white;fill-opacity:1;" transform="matrix(0.119918 0.992784 -0.994175 0.107775 68.5195 690.828)"/>
</clipPath>
<clipPath id="clip2_1573_2860">
<rect width="40" height="36" fill="white" style="fill:white;fill-opacity:1;" transform="translate(131 697)"/>
</clipPath>
<clipPath id="clip3_1573_2860">
<rect width="37" height="36" fill="white" style="fill:white;fill-opacity:1;" transform="translate(102 636)"/>
</clipPath>
<clipPath id="clip4_1573_2860">
<rect width="40" height="36" fill="white" style="fill:white;fill-opacity:1;" transform="translate(266 499)"/>
</clipPath>
<clipPath id="clip5_1573_2860">
<rect width="27" height="24" fill="white" style="fill:white;fill-opacity:1;" transform="translate(226 685)"/>
</clipPath>
<clipPath id="clip6_1573_2860">
<rect width="39.341" height="40.2252" fill="white" style="fill:white;fill-opacity:1;" transform="matrix(-0.964796 0.263001 -0.290626 -0.956837 220.646 528.489)"/>
</clipPath>
<clipPath id="clip7_1573_2860">
<rect width="37.9666" height="37.4603" fill="white" style="fill:white;fill-opacity:1;" transform="matrix(0.174401 0.984675 -0.987601 0.156986 216.996 572)"/>
</clipPath>
<clipPath id="clip8_1573_2860">
<rect width="45.9095" height="49.859" fill="white" style="fill:white;fill-opacity:1;" transform="matrix(0.808334 -0.588725 0.630131 0.776489 71 516.028)"/>
</clipPath>
<clipPath id="clip9_1573_2860">
<rect width="24.4518" height="32.8355" fill="white" style="fill:white;fill-opacity:1;" transform="matrix(-0.366114 -0.93057 0.942945 -0.33295 263.952 669.687)"/>
</clipPath>
<clipPath id="clip10_1573_2860">
<rect width="37.9666" height="37.4603" fill="white" style="fill:white;fill-opacity:1;" transform="matrix(-0.288497 0.957481 -0.952237 -0.305359 38.5137 262.144)"/>
</clipPath>
<clipPath id="clip11_1573_2860">
<rect width="24.4518" height="32.8355" fill="white" style="fill:white;fill-opacity:1;" transform="matrix(0.0929901 -0.995667 0.991752 0.12817 -1.20215 358.393)"/>
</clipPath>
<clipPath id="clip12_1573_2860">
<rect width="40" height="36" fill="white" style="fill:white;fill-opacity:1;" transform="translate(328.361 208) rotate(10.1776)"/>
</clipPath>
<clipPath id="clip13_1573_2860">
<rect width="55.1792" height="51.9597" fill="white" style="fill:white;fill-opacity:1;" transform="matrix(0.998158 -0.0606617 -0.0866238 -0.996241 149.501 64.1116)"/>
</clipPath>
<clipPath id="clip14_1573_2860">
<rect width="27" height="24" fill="white" style="fill:white;fill-opacity:1;" transform="translate(255.241 210) rotate(10.1776)"/>
</clipPath>
<clipPath id="clip15_1573_2860">
<rect width="37.9666" height="37.4603" fill="white" style="fill:white;fill-opacity:1;" transform="matrix(-0.0023365 0.999997 -0.9998 -0.0199937 382.41 84.3247)"/>
</clipPath>
<clipPath id="clip16_1573_2860">
<rect width="45.9095" height="49.859" fill="white" style="fill:white;fill-opacity:1;" transform="matrix(0.899642 -0.436628 0.48301 0.875615 282 20.0453)"/>
</clipPath>
<clipPath id="clip17_1573_2860">
<rect width="24.4518" height="32.8355" fill="white" style="fill:white;fill-opacity:1;" transform="matrix(-0.19592 -0.98062 0.986939 -0.161092 371.908 187.914)"/>
</clipPath>
<clipPath id="clip18_1573_2860">
<rect width="24.4518" height="32.8355" fill="white" style="fill:white;fill-opacity:1;" transform="matrix(-0.19592 -0.98062 0.986939 -0.161092 43.7905 167.267)"/>
</clipPath>
<clipPath id="clip19_1573_2860">
<rect width="32.8897" height="54.7956" fill="white" style="fill:white;fill-opacity:1;" transform="matrix(-0.7852 -0.619242 -0.654874 0.755738 376.709 656.367)"/>
</clipPath>
<clipPath id="clip20_1573_2860">
<rect width="27" height="24" fill="white" style="fill:white;fill-opacity:1;" transform="translate(-8 98)"/>
</clipPath>
</defs>
</svg>
