<svg width="14" height="15" viewBox="0 0 14 15" fill="none" xmlns="http://www.w3.org/2000/svg">
<path d="M4.58172 13.24C4.60839 13.4667 4.54172 13.6533 4.38172 13.8C4.23505 13.9467 4.05505 14.02 3.84172 14.02H1.50172C1.27505 14.02 1.08172 13.9467 0.921719 13.8C0.761719 13.6533 0.668385 13.4667 0.641719 13.24C0.628385 13.04 0.688385 12.88 0.821719 12.76C0.968385 12.64 1.14839 12.52 1.36172 12.4C1.57505 12.2667 1.80172 12.1133 2.04172 11.94C2.29505 11.7667 2.52839 11.5333 2.74172 11.24H2.76172C3.05505 10.76 3.38839 10.2133 3.76172 9.6C4.13505 8.97333 4.51505 8.33333 4.90172 7.68L2.40172 3.82C2.06839 3.35333 1.76172 3 1.48172 2.76C1.20172 2.52 0.961719 2.32667 0.761719 2.18C0.561719 2.02 0.408385 1.87333 0.301719 1.74C0.195052 1.59333 0.155052 1.38667 0.181719 1.12C0.208385 0.919999 0.295052 0.753333 0.441719 0.619999C0.588385 0.473333 0.768385 0.4 0.981719 0.4H5.12172C5.32172 0.4 5.48839 0.473333 5.62172 0.619999C5.75505 0.753333 5.81505 0.919999 5.80172 1.12C5.77505 1.38667 5.74839 1.62667 5.72172 1.84C5.70839 2.04 5.71505 2.24667 5.74172 2.46C5.78172 2.66 5.84839 2.87333 5.94172 3.1C6.04839 3.32667 6.21505 3.59333 6.44172 3.9L7.08172 4.88C7.30839 4.49333 7.50839 4.15333 7.68172 3.86C7.85505 3.55333 7.97505 3.32 8.04172 3.16C8.14839 2.96 8.20839 2.78 8.22172 2.62C8.23505 2.46 8.22172 2.30667 8.18172 2.16C8.15505 2.01333 8.11505 1.86667 8.06172 1.72C8.02172 1.56 7.98839 1.38 7.96172 1.18C7.93505 0.953332 7.99505 0.766666 8.14172 0.619999C8.30172 0.473333 8.48839 0.4 8.70172 0.4H11.0417C11.2684 0.4 11.4617 0.473333 11.6217 0.619999C11.7817 0.766666 11.8751 0.953332 11.9017 1.18C11.9151 1.36667 11.8484 1.52 11.7017 1.64C11.5551 1.74667 11.3751 1.86667 11.1617 2C10.9617 2.12 10.7417 2.26667 10.5017 2.44C10.2617 2.6 10.0551 2.82 9.88172 3.1L7.98172 6.28L10.4817 10.12C10.8551 10.72 11.2017 11.1667 11.5217 11.46C11.8417 11.7533 12.1151 11.9867 12.3417 12.16C12.5684 12.3333 12.7417 12.4933 12.8617 12.64C12.9951 12.7733 13.0484 12.9867 13.0217 13.28C12.9951 13.4933 12.9017 13.6733 12.7417 13.82C12.5951 13.9533 12.4217 14.02 12.2217 14.02H8.08172C7.88172 14.02 7.71505 13.9533 7.58172 13.82C7.44839 13.6733 7.38839 13.4933 7.40172 13.28C7.41505 13.04 7.42839 12.8333 7.44172 12.66C7.46839 12.4733 7.47505 12.2933 7.46172 12.12C7.44839 11.9467 7.40839 11.7667 7.34172 11.58C7.27505 11.3933 7.17505 11.1867 7.04172 10.96L5.82172 9.06L4.50172 11.28C4.39505 11.48 4.33505 11.66 4.32172 11.82C4.30839 11.9667 4.31505 12.1133 4.34172 12.26C4.36839 12.4067 4.40839 12.56 4.46172 12.72C4.51505 12.8667 4.55505 13.04 4.58172 13.24Z" fill="#122E70" style="fill:#122E70;fill:color(display-p3 0.0706 0.1804 0.4392);fill-opacity:1;"/>
</svg>
