<svg width="241" height="179" viewBox="0 0 241 179" fill="none" xmlns="http://www.w3.org/2000/svg">
<path d="M70 14.9573C68.5721 17.383 66.0885 18.0292 63.3438 18.4847C63.5845 18.6012 63.816 18.7368 64.0657 18.8321C64.9534 19.1774 65.8819 19.4486 66.7264 19.8681C67.2281 20.1181 67.723 20.5248 68.0091 20.9782C68.5448 21.8235 68.7741 22.8149 68.1271 23.6793C67.4574 24.5776 66.345 24.5182 65.3257 24.3975C63.8183 24.2174 62.7808 23.3107 61.85 22.2768C61.4732 21.8574 61.1031 21.4315 60.5333 21.0629C60.5901 21.6392 60.6423 22.2175 60.7036 22.7938C61.0055 25.6516 60.0248 26.5796 57.3687 27.8634C56.5809 28.2447 55.6093 27.7998 55.4095 26.8761C55.2211 25.997 55.0962 24.9758 55.3936 24.1581C56.0089 22.4717 56.9192 20.8786 57.7115 19.2473C57.8341 18.9931 57.9703 18.7474 58.102 18.4953C58.0543 18.4402 58.0066 18.3872 57.9567 18.3321C57.464 18.5525 56.976 18.7749 56.4811 18.9889C54.7217 19.7537 52.9282 20.3765 50.9373 20.3108C49.3845 20.26 48.3311 19.7113 48.0768 18.758C47.784 17.6648 48.3175 16.881 49.8635 16.131C52.1813 15.0082 55.6683 15.5654 57.4845 17.3449C57.6161 17.4741 57.7773 17.5758 58.0929 17.6161C57.9907 17.3513 57.8931 17.0864 57.7864 16.8238C57.0827 15.076 56.3108 13.3494 55.7024 11.5719C55.4708 10.8919 55.5503 10.0996 55.5934 9.36443C55.6638 8.16534 57.119 7.09337 58.6968 7.00439C59.8727 6.93872 60.5833 7.61029 60.9352 8.95343C61.3937 10.7033 60.9669 12.3643 60.4879 14.0294C60.2927 14.7095 60.1065 15.3916 59.9158 16.0738C60.0271 16.1585 60.1383 16.2412 60.2496 16.3259C60.4153 16.059 60.5424 15.7581 60.7558 15.5293C62.0929 14.0951 63.5981 12.8621 65.6027 12.3071C67.6345 11.7457 68.9988 12.288 69.9977 14.0019L69.9977 14.9552L70 14.9573Z" fill="#FED5F5"/>
<path d="M70 14.9573C68.5721 17.383 66.0885 18.0292 63.3438 18.4847C63.5845 18.6012 63.816 18.7368 64.0657 18.8321C64.9534 19.1774 65.8819 19.4486 66.7264 19.8681C67.2281 20.1181 67.723 20.5248 68.0091 20.9782C68.5448 21.8235 68.7741 22.8149 68.1271 23.6793C67.4574 24.5776 66.345 24.5182 65.3257 24.3975C63.8183 24.2174 62.7808 23.3107 61.85 22.2768C61.4732 21.8574 61.1031 21.4315 60.5333 21.0629C60.5901 21.6392 60.6423 22.2175 60.7036 22.7938C61.0055 25.6516 60.0248 26.5796 57.3687 27.8634C56.5809 28.2447 55.6093 27.7998 55.4095 26.8761C55.2211 25.997 55.0962 24.9758 55.3936 24.1581C56.0089 22.4717 56.9192 20.8786 57.7115 19.2473C57.8341 18.9931 57.9703 18.7474 58.102 18.4953C58.0543 18.4402 58.0066 18.3872 57.9567 18.3321C57.464 18.5525 56.976 18.7749 56.4811 18.9889C54.7217 19.7537 52.9282 20.3765 50.9373 20.3108C49.3845 20.26 48.3311 19.7113 48.0768 18.758C47.784 17.6648 48.3175 16.881 49.8635 16.131C52.1813 15.0082 55.6683 15.5654 57.4845 17.3449C57.6161 17.4741 57.7773 17.5758 58.0929 17.6161C57.9907 17.3513 57.8931 17.0864 57.7864 16.8238C57.0827 15.076 56.3108 13.3494 55.7024 11.5719C55.4708 10.8919 55.5503 10.0996 55.5934 9.36443C55.6638 8.16534 57.119 7.09337 58.6968 7.00439C59.8727 6.93872 60.5833 7.61029 60.9352 8.95343C61.3937 10.7033 60.9669 12.3643 60.4879 14.0294C60.2927 14.7095 60.1065 15.3916 59.9158 16.0738C60.0271 16.1585 60.1383 16.2412 60.2496 16.3259C60.4153 16.059 60.5424 15.7581 60.7558 15.5293C62.0929 14.0951 63.5981 12.8621 65.6027 12.3071C67.6345 11.7457 68.9988 12.288 69.9977 14.0019L69.9977 14.9552L70 14.9573Z" fill="#FED5F5"/>
<path d="M197 93.9573C195.442 96.383 192.733 97.0292 189.739 97.4847C190.001 97.6012 190.254 97.7368 190.526 97.8321C191.495 98.1774 192.508 98.4486 193.429 98.8681C193.976 99.1181 194.516 99.5248 194.828 99.9782C195.413 100.823 195.663 101.815 194.957 102.679C194.226 103.578 193.013 103.518 191.901 103.397C190.256 103.217 189.125 102.311 188.109 101.277C187.698 100.857 187.294 100.432 186.673 100.063C186.735 100.639 186.792 101.218 186.858 101.794C187.188 104.652 186.118 105.58 183.22 106.863C182.361 107.245 181.301 106.8 181.083 105.876C180.878 104.997 180.741 103.976 181.066 103.158C181.737 101.472 182.73 99.8786 183.594 98.2473C183.728 97.9931 183.877 97.7474 184.02 97.4953C183.968 97.4402 183.916 97.3872 183.862 97.3321C183.324 97.5525 182.792 97.7749 182.252 97.9889C180.333 98.7537 178.376 99.3765 176.204 99.3108C174.51 99.26 173.361 98.7113 173.084 97.758C172.764 96.6648 173.346 95.881 175.033 95.131C177.561 94.0082 181.365 94.5654 183.347 96.3449C183.49 96.4741 183.666 96.5758 184.01 96.6161C183.899 96.3513 183.792 96.0864 183.676 95.8238C182.908 94.076 182.066 92.3494 181.403 90.5719C181.15 89.8919 181.237 89.0996 181.284 88.3644C181.36 87.1653 182.948 86.0934 184.669 86.0044C185.952 85.9387 186.727 86.6103 187.111 87.9534C187.611 89.7033 187.146 91.3643 186.623 93.0294C186.41 93.7095 186.207 94.3916 185.999 95.0738C186.12 95.1585 186.242 95.2412 186.363 95.3259C186.544 95.059 186.683 94.7581 186.915 94.5293C188.374 93.0951 190.016 91.8621 192.203 91.3071C194.419 90.7457 195.908 91.288 196.998 93.0019L196.998 93.9552L197 93.9573Z" fill="#FED5F5"/>
<path d="M197 93.9573C195.442 96.383 192.733 97.0292 189.739 97.4847C190.001 97.6012 190.254 97.7368 190.526 97.8321C191.495 98.1774 192.508 98.4486 193.429 98.8681C193.976 99.1181 194.516 99.5248 194.828 99.9782C195.413 100.823 195.663 101.815 194.957 102.679C194.226 103.578 193.013 103.518 191.901 103.397C190.256 103.217 189.125 102.311 188.109 101.277C187.698 100.857 187.294 100.432 186.673 100.063C186.735 100.639 186.792 101.218 186.858 101.794C187.188 104.652 186.118 105.58 183.22 106.863C182.361 107.245 181.301 106.8 181.083 105.876C180.878 104.997 180.741 103.976 181.066 103.158C181.737 101.472 182.73 99.8786 183.594 98.2473C183.728 97.9931 183.877 97.7474 184.02 97.4953C183.968 97.4402 183.916 97.3872 183.862 97.3321C183.324 97.5525 182.792 97.7749 182.252 97.9889C180.333 98.7537 178.376 99.3765 176.204 99.3108C174.51 99.26 173.361 98.7113 173.084 97.758C172.764 96.6648 173.346 95.881 175.033 95.131C177.561 94.0082 181.365 94.5654 183.347 96.3449C183.49 96.4741 183.666 96.5758 184.01 96.6161C183.899 96.3513 183.792 96.0864 183.676 95.8238C182.908 94.076 182.066 92.3494 181.403 90.5719C181.15 89.8919 181.237 89.0996 181.284 88.3644C181.36 87.1653 182.948 86.0934 184.669 86.0044C185.952 85.9387 186.727 86.6103 187.111 87.9534C187.611 89.7033 187.146 91.3643 186.623 93.0294C186.41 93.7095 186.207 94.3916 185.999 95.0738C186.12 95.1585 186.242 95.2412 186.363 95.3259C186.544 95.059 186.683 94.7581 186.915 94.5293C188.374 93.0951 190.016 91.8621 192.203 91.3071C194.419 90.7457 195.908 91.288 196.998 93.0019L196.998 93.9552L197 93.9573Z" fill="#FED5F5"/>
<path d="M236.253 61.8688C233.678 63.2275 231.133 62.4741 228.461 61.416C228.61 61.6452 228.742 61.8863 228.911 62.1018C229.508 62.8737 230.182 63.6026 230.701 64.4163C231.009 64.9004 231.226 65.5176 231.233 66.0648C231.249 67.0862 230.915 68.0726 229.875 68.4834C228.797 68.9118 227.846 68.2702 227.01 67.6243C225.776 66.6679 225.35 65.3269 225.087 63.9316C224.981 63.3659 224.885 62.7982 224.581 62.1745C224.319 62.7072 224.052 63.2394 223.794 63.7745C222.513 66.4274 221.144 66.7167 218.102 66.4281C217.199 66.343 216.581 65.4397 216.905 64.5281C217.214 63.6613 217.657 62.7044 218.363 62.1488C219.82 61.0042 221.487 60.0973 223.07 59.0945C223.316 58.9378 223.57 58.7957 223.823 58.6456C223.81 58.5723 223.797 58.5008 223.783 58.4263C223.228 58.3572 222.676 58.2924 222.123 58.2166C220.154 57.9508 218.232 57.543 216.508 56.43C215.163 55.5622 214.529 54.5251 214.821 53.5587C215.154 52.4499 216.05 52.0491 217.822 52.2147C220.479 52.4644 223.259 54.7995 223.9 57.3148C223.946 57.4973 224.034 57.6715 224.291 57.8739C224.344 57.5888 224.401 57.306 224.449 57.0203C224.774 55.1226 225.026 53.2073 225.451 51.3343C225.615 50.6183 226.114 49.9694 226.55 49.351C227.262 48.3424 229.128 48.1791 230.571 48.9381C231.646 49.5044 231.91 50.467 231.494 51.8251C230.951 53.5946 229.675 54.8171 228.35 56.0155C227.809 56.5051 227.275 57.0014 226.737 57.4953C226.789 57.6282 226.843 57.7593 226.895 57.8922C227.186 57.7472 227.462 57.5522 227.774 57.4658C229.733 56.9239 231.73 56.6465 233.802 57.2254C235.902 57.8131 236.814 59.0096 236.769 61.0343L236.252 61.8658L236.253 61.8688Z" fill="#FED5F5"/>
<path d="M236.253 61.8688C233.678 63.2275 231.133 62.4741 228.461 61.416C228.61 61.6452 228.742 61.8863 228.911 62.1018C229.508 62.8737 230.182 63.6026 230.701 64.4163C231.009 64.9004 231.226 65.5176 231.233 66.0648C231.249 67.0862 230.915 68.0726 229.875 68.4834C228.797 68.9118 227.846 68.2702 227.01 67.6243C225.776 66.6679 225.35 65.3269 225.087 63.9316C224.981 63.3659 224.885 62.7982 224.581 62.1745C224.319 62.7072 224.052 63.2394 223.794 63.7745C222.513 66.4274 221.144 66.7167 218.102 66.4281C217.199 66.343 216.581 65.4397 216.905 64.5281C217.214 63.6613 217.657 62.7044 218.363 62.1488C219.82 61.0042 221.487 60.0973 223.07 59.0945C223.316 58.9378 223.57 58.7957 223.823 58.6456C223.81 58.5723 223.797 58.5008 223.783 58.4263C223.228 58.3572 222.676 58.2924 222.123 58.2166C220.154 57.9508 218.232 57.543 216.508 56.43C215.163 55.5622 214.529 54.5251 214.821 53.5587C215.154 52.4499 216.05 52.0491 217.822 52.2147C220.479 52.4644 223.259 54.7995 223.9 57.3148C223.946 57.4973 224.034 57.6715 224.291 57.8739C224.344 57.5888 224.401 57.306 224.449 57.0203C224.774 55.1226 225.026 53.2073 225.451 51.3343C225.615 50.6183 226.114 49.9694 226.55 49.351C227.262 48.3424 229.128 48.1791 230.571 48.9381C231.646 49.5044 231.91 50.467 231.494 51.8251C230.951 53.5946 229.675 54.8171 228.35 56.0155C227.809 56.5051 227.275 57.0014 226.737 57.4953C226.789 57.6282 226.843 57.7593 226.895 57.8922C227.186 57.7472 227.462 57.5522 227.774 57.4658C229.733 56.9239 231.73 56.6465 233.802 57.2254C235.902 57.8131 236.814 59.0096 236.769 61.0343L236.252 61.8658L236.253 61.8688Z" fill="#FED5F5"/>
<path d="M12.5678 62.7395C10.7894 60.4531 11.1176 57.8399 11.7279 55.0508C11.5245 55.2356 11.3064 55.4045 11.1199 55.6061C10.4508 56.3201 9.83708 57.1013 9.1134 57.7459C8.68272 58.1286 8.10451 58.4449 7.56131 58.5444C6.54757 58.7323 5.51072 58.5724 4.92969 57.626C4.32487 56.645 4.80581 55.6077 5.31009 54.6825C6.05728 53.3149 7.32114 52.6724 8.66604 52.18C9.21141 51.981 9.76027 51.791 10.3305 51.3887C9.75708 51.2228 9.18333 51.0519 8.60815 50.8903C5.7563 50.0873 5.24166 48.7986 5.025 45.7777C4.96019 44.8815 5.75669 44.1254 6.71738 44.2876C7.63114 44.4436 8.65657 44.7144 9.32626 45.3099C10.7065 46.5397 11.885 48.0152 13.145 49.3928C13.3418 49.6066 13.5251 49.8302 13.7164 50.0519C13.7873 50.0275 13.8562 50.0023 13.928 49.9757C13.9048 49.4222 13.8779 48.8722 13.8617 48.319C13.8002 46.3506 13.8875 44.404 14.7095 42.5319C15.3503 41.0717 16.2774 40.2774 17.2872 40.399C18.4457 40.5372 18.9929 41.3447 19.1216 43.1041C19.3131 45.7412 17.45 48.8512 15.0534 49.9026C14.8794 49.9787 14.7206 50.0935 14.5617 50.3788C14.8543 50.3826 15.1451 50.3906 15.4373 50.3892C17.3793 50.3857 19.327 50.3092 21.2611 50.4079C22.0006 50.4468 22.729 50.8249 23.4166 51.1466C24.538 51.6713 25.0097 53.467 24.4933 55.0044C24.1078 56.15 23.1938 56.5708 21.7734 56.3934C19.9229 56.1625 18.4951 55.1219 17.0831 54.0299C16.5064 53.5843 15.9241 53.1466 15.3436 52.7045C15.22 52.7782 15.0985 52.8526 14.9749 52.9263C15.1673 53.1861 15.4069 53.422 15.5447 53.7127C16.4083 55.5342 17.0151 57.439 16.7823 59.561C16.5452 61.7113 15.5057 62.8044 13.4836 63.102L12.5707 62.7382L12.5678 62.7395Z" fill="#FED5F5"/>
<path d="M12.5678 62.7395C10.7894 60.4531 11.1176 57.8399 11.7279 55.0508C11.5245 55.2356 11.3064 55.4045 11.1199 55.6061C10.4508 56.3201 9.83708 57.1013 9.1134 57.7459C8.68272 58.1286 8.10451 58.4449 7.56131 58.5444C6.54757 58.7323 5.51072 58.5724 4.92969 57.626C4.32487 56.645 4.80581 55.6077 5.31009 54.6825C6.05728 53.3149 7.32114 52.6724 8.66604 52.18C9.21141 51.981 9.76027 51.791 10.3305 51.3887C9.75708 51.2228 9.18333 51.0519 8.60815 50.8903C5.7563 50.0873 5.24166 48.7986 5.025 45.7777C4.96019 44.8815 5.75669 44.1254 6.71738 44.2876C7.63114 44.4436 8.65657 44.7144 9.32626 45.3099C10.7065 46.5397 11.885 48.0152 13.145 49.3928C13.3418 49.6066 13.5251 49.8302 13.7164 50.0519C13.7873 50.0275 13.8562 50.0023 13.928 49.9757C13.9048 49.4222 13.8779 48.8722 13.8617 48.319C13.8002 46.3506 13.8875 44.404 14.7095 42.5319C15.3503 41.0717 16.2774 40.2774 17.2872 40.399C18.4457 40.5372 18.9929 41.3447 19.1216 43.1041C19.3131 45.7412 17.45 48.8512 15.0534 49.9026C14.8794 49.9787 14.7206 50.0935 14.5617 50.3788C14.8543 50.3826 15.1451 50.3906 15.4373 50.3892C17.3793 50.3857 19.327 50.3092 21.2611 50.4079C22.0006 50.4468 22.729 50.8249 23.4166 51.1466C24.538 51.6713 25.0097 53.467 24.4933 55.0044C24.1078 56.15 23.1938 56.5708 21.7734 56.3934C19.9229 56.1625 18.4951 55.1219 17.0831 54.0299C16.5064 53.5843 15.9241 53.1466 15.3436 52.7045C15.22 52.7782 15.0985 52.8526 14.9749 52.9263C15.1673 53.1861 15.4069 53.422 15.5447 53.7127C16.4083 55.5342 17.0151 57.439 16.7823 59.561C16.5452 61.7113 15.5057 62.8044 13.4836 63.102L12.5707 62.7382L12.5678 62.7395Z" fill="#FED5F5"/>
<path d="M35.1436 90.5923C30.8518 90.5083 27.6215 90.3031 24.5139 89.4385C20.3764 88.2885 18.3654 86.0549 18.0289 82.4003C17.8493 80.4596 18.5267 78.7481 19.4948 77.1225C23.3273 70.6865 27.1807 64.2588 31.0935 57.863C33.9229 53.2366 36.8491 48.6601 40.2224 44.3327C41.9037 42.1764 43.8615 40.3 46.3123 38.8428C49.2675 37.0858 52.3552 36.816 55.5854 38.0713C57.7126 38.8979 59.7516 39.8592 61.4874 41.3097C64.4746 43.8064 65.847 48.14 64.3327 51.511C63.7037 52.9124 62.5368 54.1422 61.4704 55.3447C60.3829 56.5714 59.1706 57.7167 57.9156 58.8072C56.9566 59.6405 56.7029 60.5223 57.0426 61.6657C57.6531 63.7265 58.2499 65.7926 58.736 67.8791C59.3759 70.6227 59.6417 73.4001 59.1926 76.1995C58.8239 78.495 57.5816 80.4404 56.1208 82.2695C53.6907 85.3116 50.5928 87.6489 46.6845 88.9436C44.8864 89.5397 42.9726 89.9324 41.0724 90.176C38.7694 90.4708 36.4244 90.5114 35.1436 90.595L35.1436 90.5923ZM38.6352 73.5606C40.0097 73.3966 41.4042 73.3157 42.7544 73.0497C45.236 72.5615 47.396 71.5705 48.6393 69.4081C49.7377 67.4977 49.4582 65.9181 47.6027 64.6034C46.5764 63.8757 45.353 63.3779 44.2296 62.7631C43.1464 62.1705 42.0526 61.5913 41.0149 60.9381C40.6779 60.7269 40.3968 60.3344 40.2708 59.9735C39.7164 58.3786 40.3805 57.0537 41.5509 55.9025C43.0223 54.4548 44.8576 53.4806 46.7917 52.6214C48.4178 51.8986 50.0029 51.098 51.5924 50.3096C52.4495 49.8849 52.8281 49.1985 52.6318 48.324C52.4482 47.5093 51.8007 46.9961 50.9467 46.8863C50.2151 46.7927 49.3971 46.8054 48.7054 47.0121C46.803 47.5813 45.2132 48.6614 43.9148 50.016C39.1208 55.0183 35.3777 60.5721 33.3872 67.0081C33.0208 68.1926 32.8994 69.3919 33.4076 70.5887C34.3001 72.692 35.7888 73.521 38.6382 73.5606L38.6352 73.5606Z" fill="#FED5F5"/>
<path d="M110.841 13.0305C110.778 17.8868 109.986 22.6374 107.887 27.1213C105.323 32.5986 101.952 37.6193 96.9846 41.6143C93.4246 44.477 89.2944 46.4774 84.7789 47.783C82.3532 48.4848 79.8691 49.0503 77.3758 49.5139C75.5598 49.8521 73.6771 49.9982 71.8554 49.3907C70.2646 48.8603 69.6743 47.9163 69.8652 46.3948C70.1562 44.0835 71.0313 41.9631 72.1213 39.8681C74.2891 35.7025 76.2858 31.463 78.4209 27.2821C81.6939 20.8752 85.0086 14.4863 88.347 8.10858C88.9722 6.91342 89.8027 5.806 90.5262 4.65263C91.7049 2.77436 93.5833 1.69614 95.7068 0.883814C98.5241 -0.194915 101.446 -0.237315 104.316 0.491681C106.77 1.11434 108.299 2.85694 109.479 4.83718C110.641 6.78738 110.739 8.93071 110.858 11.0675C110.894 11.7205 110.85 12.3766 110.843 13.0305L110.841 13.0305ZM90.6089 34.3018C90.5821 35.9906 91.0628 36.3202 92.5507 35.912C92.8342 35.8337 93.112 35.7241 93.3707 35.594C96.8341 33.8454 99.4256 31.3342 101.247 28.1565C102.128 26.6209 102.241 25.0321 101.652 23.3813C100.965 21.4635 99.1619 20.5292 97.2796 21.1664C96.2814 21.5041 95.5146 22.1373 95.0342 22.9664C94.1007 24.5733 93.1582 26.1883 92.4109 27.8692C91.4548 30.0199 90.8175 32.2663 90.6089 34.3018Z" fill="#FED5F5"/>
<path d="M81.4155 55.9527C82.8719 56.0813 84.3262 56.2588 85.7862 56.3238C86.9205 56.3743 88.0625 56.2797 89.2005 56.2624C90.2458 56.2468 91.2913 56.2217 92.3361 56.2535C94.1895 56.3092 95.3833 57.8229 94.6673 59.3698C93.6601 61.5457 92.3973 63.5832 89.9512 64.7583C88.2598 65.5713 86.4548 65.9828 84.5697 66.2144C82.5573 66.4608 80.5433 66.7262 78.5593 67.1059C77.876 67.2368 77.1894 67.6471 76.6596 68.0835C75.8053 68.7878 76.0501 69.6126 77.1752 69.8068C78.187 69.9821 79.2421 70.0263 80.2755 70.0065C81.6379 69.9795 82.9946 69.8072 84.3573 69.7503C84.842 69.7299 85.3478 69.8237 85.822 69.9374C86.9075 70.1977 87.4524 70.7979 87.4826 71.6869C87.5276 72.9804 87.0642 73.7567 85.8943 74.0803C84.3313 74.5121 82.7351 74.8459 81.1606 75.2437C78.5124 75.9146 75.8671 76.5936 73.2261 77.289C72.2962 77.5338 71.5744 78.0265 71.3308 78.9341C71.0762 79.8824 71.7226 80.7619 72.7925 80.813C73.4217 80.843 74.0981 80.7949 74.6863 80.6087C76.4871 80.037 78.2327 79.3182 80.0437 78.7765C82.2837 78.1066 84.5658 77.8061 86.9099 78.49C88.9486 79.085 89.9904 80.2917 90.047 82.2745C90.1509 85.8709 88.4716 88.6283 85.0975 90.4158C81.2584 92.4507 77.2258 94.1591 72.8788 95.107C68.9561 95.9632 65.2778 95.1873 61.9286 93.2225C59.3635 91.7181 58.4062 88.8761 59.5601 86.0384C60.4924 83.7436 61.6228 81.5134 62.7294 79.2789C65.4415 73.8019 68.1581 68.3263 70.9402 62.8785C71.8731 61.0518 73.2756 59.4894 74.7669 57.9958C76.2598 56.5009 78.2326 56.1808 80.2874 56.0149C80.6571 55.985 81.0335 56.0177 81.4072 56.0218C81.4075 55.9987 81.4108 55.9743 81.4125 55.9513L81.4155 55.9527Z" fill="#FED5F5"/>
<path d="M160.418 89.4419C156.531 89.399 154.386 88.1245 153.601 85.6656C153.384 84.9876 153.435 84.1863 153.578 83.4783C154.448 79.1926 155.354 74.9113 156.298 70.6385C157.072 67.1359 157.881 63.639 158.74 60.1536C159.237 58.1349 159.895 56.16 161.034 54.3369C162.449 52.0732 164.607 50.6548 167.279 49.9259C170.768 48.9753 174.374 48.6433 178.014 48.6916C178.79 48.7015 179.583 48.8839 180.333 49.0903C181.238 49.339 181.667 49.9651 181.699 50.8311C181.822 53.9949 180.009 55.9829 176.209 56.8106C174.596 57.1619 172.921 57.3483 171.378 57.8645C170.254 58.2401 169.26 58.9848 168.289 59.6606C167.8 60.0012 167.552 60.5778 167.847 61.182C168.132 61.7672 168.698 62.0149 169.354 61.9883C171.009 61.9197 172.661 61.8063 174.314 61.7038C175.7 61.6173 177.083 61.4535 178.469 61.4443C180.647 61.4303 181.957 63.2438 181.282 65.1982C180.829 66.5105 179.715 67.1739 178.381 67.4807C176.825 67.838 175.218 68.0089 173.636 68.2764C171.007 68.7209 168.358 69.1095 165.931 70.2102C164.976 70.6433 164.341 71.2767 164.404 72.3288C164.47 73.4488 165.048 73.9409 166.245 73.6896C167.326 73.4627 168.382 73.1148 169.417 72.745C170.801 72.2501 172.139 71.6503 173.523 71.1568C175.625 70.4066 177.565 71.1959 178.484 73.0742C179.627 75.4082 179.47 77.6396 178.066 79.8491C175.473 83.9246 171.624 86.5603 166.785 88.1011C164.486 88.8328 162.155 89.4312 160.416 89.4419L160.418 89.4419Z" fill="#FED5F5"/>
<path d="M184.464 53.8572C184.557 52.4812 184.645 50.135 184.901 47.8056C185.109 45.9004 186.255 44.3976 187.867 43.2052C190.389 41.339 193.324 40.6781 196.511 41.0388C198.991 41.3199 200.887 42.6161 202.361 44.3689C204.345 46.7298 205.892 49.3314 207.042 52.1104C208.331 55.2301 208.101 58.306 206.426 61.2519C205.756 62.429 205.891 63.4032 206.859 64.3324C208.191 65.6143 209.516 66.9028 210.876 68.1606C213.055 70.1749 215.28 72.149 217.44 74.1821C217.946 74.6585 218.352 75.2626 218.656 75.8697C219.208 76.9734 218.869 77.7525 217.643 78.2274C215.245 79.1588 212.866 79.0322 210.523 77.9996C208.618 77.1605 207.019 75.9598 205.489 74.6527C202.805 72.3588 200.135 70.0555 197.899 67.3798C197.464 66.8595 197.051 66.3163 196.707 65.744C195.748 64.1529 195.91 63.0992 197.274 61.7724C198.092 60.9769 198.721 60.125 198.683 58.9673C198.647 57.8287 198.099 57.1063 196.951 56.8006C195.857 56.5104 194.637 56.8551 194.105 57.765C193.745 58.3811 193.504 59.1029 193.425 59.7967C193.181 61.9511 193.689 64.0583 194.156 66.1541C194.685 68.5315 195.351 70.8833 195.836 73.2669C196.034 74.2446 196.044 75.2921 195.9 76.2795C195.608 78.2788 193.766 78.922 191.989 78.8074C189.281 78.6337 187.986 76.9195 187.272 74.8575C186.608 72.9359 186.139 70.9431 185.78 68.9543C184.938 64.2793 184.605 59.5597 184.464 53.8572Z" fill="#FED5F5"/>
<path d="M138.295 20.4722C137.854 23.2513 137.488 26.0435 136.95 28.8066C136.351 31.8852 135.501 34.9121 134.218 37.8271C132.444 41.856 129.731 45.1419 125.25 46.9675C124.416 47.307 123.44 47.5499 122.537 47.5277C120.488 47.478 119.848 45.7927 119.98 44.1376C120.155 41.9661 121.506 40.3271 122.95 38.7367C124.781 36.7205 126.68 34.7498 127.908 32.3497C128.826 30.5567 129.324 28.7062 128.768 26.7274C128.074 24.2574 125.368 23.1679 122.852 24.4047C120.553 25.5352 119.055 27.2675 118.518 29.625C118.37 30.2759 118.456 30.8874 119.079 31.3393C119.845 31.8958 120.599 31.8553 121.239 31.1881C121.645 30.7652 121.991 30.2942 122.366 29.8451C122.822 29.2966 123.278 28.74 124.185 28.9535C124.893 29.1214 125.571 29.9632 125.625 30.7738C125.708 32.0459 125.193 33.1351 124.178 33.9773C122.75 35.1623 121.246 36.2731 119.788 37.4292C116.847 39.7602 115.173 42.6112 115.385 46.2509C115.443 47.2406 114.909 48.0514 114.108 48.6694C112.028 50.2732 109.599 50.9777 106.873 50.7482C105.606 50.6419 104.751 49.8321 104.826 48.658C104.889 47.6642 105.06 46.62 105.477 45.7102C107.171 42.0196 108.982 38.3724 110.745 34.7084C113.103 29.8041 115.44 24.8914 117.818 19.9954C119.079 17.3977 120.497 14.879 122.453 12.6335C124.243 10.5801 126.749 9.62822 129.386 8.91924C130.287 8.67683 131.3 8.60795 132.238 8.68749C133.508 8.79646 134.199 9.79041 134.926 10.6002C136.665 12.5419 137.554 14.8188 137.856 17.2859C137.985 18.336 138.058 19.391 138.156 20.4449L138.295 20.4749L138.295 20.4722Z" fill="#FED5F5"/>
<path d="M164.469 31.6647C164.248 29.0221 165.131 26.5043 165.628 23.9402C166.265 20.6653 166.872 17.3806 167.669 14.1373C168.172 12.0861 168.839 10.0407 169.721 8.10087C170.744 5.85186 172.838 4.56302 175.436 4.08968C178.505 3.53063 181.524 2.86249 184.402 1.72202C185.965 1.10161 187.538 1.09725 188.878 2.1594C190.334 3.3151 190.601 4.87554 190.207 6.50197C189.571 9.13242 187.844 10.8961 184.944 11.6687C183.115 12.1559 181.297 12.6772 179.478 13.1998C178.74 13.4128 178.138 13.7725 177.959 14.533C177.803 15.192 177.988 15.5074 178.727 15.6553C180.417 15.9928 182.019 15.5546 183.622 15.1612C184.076 15.0495 184.519 14.9038 184.972 14.7908C186.317 14.4556 187.567 14.795 188.315 15.6905C189.086 16.6148 189.156 17.9533 188.483 19.0041C187.582 20.416 186.061 20.8754 184.427 21.0867C182.018 21.3979 179.612 21.6889 177.401 22.6956C176.621 23.0506 175.788 23.3874 175.596 24.2712C175.44 24.9886 175.563 25.6723 176.229 26.183C176.932 26.7226 177.691 26.6211 178.46 26.3284C179.967 25.7535 181.461 25.1431 182.986 24.6105C183.935 24.279 184.924 24.0376 185.961 24.3896C187.428 24.8874 188.33 26.1794 188.371 27.8893C188.405 29.2518 188.015 30.5405 187.307 31.709C184.76 35.9098 181.144 39.1423 176.371 41.236C174.61 42.0075 172.684 42.2576 170.721 42.103C168.553 41.9313 167.141 40.7503 166.144 39.1139C164.735 36.8001 164.237 34.3023 164.465 31.6687L164.469 31.6647Z" fill="#FED5F5"/>
<path d="M106.055 66.5557C105.632 66.5755 105.363 66.5576 105.109 66.605C101.193 67.327 99.8618 64.721 100.459 62.3153C101.105 59.7149 102.545 57.4325 105.236 56.1516C106.632 55.4872 108.246 55.1197 109.81 54.8412C113.208 54.2356 116.716 54.0735 119.96 52.8638C121.492 52.2918 122.911 51.4758 124.432 50.8767C125.083 50.6206 125.867 50.5411 126.585 50.5571C127.208 50.5708 127.641 50.9853 127.785 51.5961C128.12 53.0148 128.001 54.4204 127.57 55.7914C126.316 59.7866 123.16 62.1111 119.039 63.4496C117.564 63.9285 116.702 64.5268 116.166 66.0011C114.57 70.3941 112.736 74.7208 110.867 79.0282C109.094 83.1127 107.073 87.1049 104.527 90.8526C103.327 92.6207 102.072 94.3652 100.031 95.462C98.6361 96.2118 97.1387 96.5304 95.528 96.1748C93.6711 95.7649 92.8167 94.643 93.3025 92.9592C93.6637 91.7083 94.2531 90.5019 94.8408 89.3171C98.0961 82.7553 101.386 76.2088 104.651 69.6512C105.138 68.6757 105.552 67.6695 106.055 66.5544L106.055 66.5557Z" fill="#FED5F5"/>
<path d="M132.851 71.1031C131.701 71.0904 130.709 71.1474 129.732 71.0552C127.647 70.8585 126.703 69.8523 126.522 67.9563C126.172 64.3029 128.125 61.8145 131.357 59.9901C133.821 58.5995 136.63 58.1013 139.427 57.5719C141.386 57.2 143.357 56.8106 145.243 56.2236C146.313 55.8908 147.23 55.1493 148.21 54.5835C149.209 54.0071 150.128 53.3022 151.444 53.3819C152.858 53.4666 153.934 54.1514 154.119 55.4179C154.705 59.4579 153.451 62.9458 150.083 65.7116C148.493 67.0182 146.584 67.837 144.53 68.3584C143.636 68.5846 143.149 69.05 142.94 69.8617C142.067 73.2507 141.238 76.651 140.247 80.0115C139.582 82.2658 138.686 84.4646 137.857 86.6764C137.474 87.6952 137.069 88.715 136.565 89.6877C135.19 92.3439 133.272 94.5694 130.196 95.7484C128.637 96.3458 127.006 96.3482 125.4 95.8516C124.096 95.4478 123.425 94.5396 123.774 93.3223C124.239 91.6981 124.848 90.0998 125.513 88.532C127.826 83.0777 130.192 77.643 132.53 72.1972C132.666 71.8812 132.725 71.54 132.851 71.1058L132.851 71.1031Z" fill="#FED5F5"/>
<path d="M141.737 42.5568C142.179 40.9024 142.627 39.2494 143.062 37.5936C144.274 32.9616 145.533 28.3382 146.666 23.6904C147.199 21.5011 147.564 19.2706 147.862 17.0435C148.046 15.663 147.632 15.4658 146.117 15.5603C144.886 15.6377 143.647 15.5575 142.548 14.8915C140.967 13.9311 140.359 12.2027 141.109 10.6237C141.946 8.86372 143.574 8.07714 145.527 7.65096C147.526 7.21578 149.514 6.73572 151.495 6.23794C154.126 5.57638 156.328 4.18018 158.529 2.78939C159.471 2.19333 160.383 1.55624 161.649 1.76284C163.713 2.099 165.341 3.58492 165.79 5.4757C166.112 6.83326 165.609 7.95785 164.709 8.97632C163.278 10.5954 161.309 11.5817 159.376 12.601C158.753 12.9292 158.073 13.1782 157.495 13.5557C157.203 13.7465 156.932 14.1343 156.901 14.4541C156.763 15.8582 156.867 17.2934 156.608 18.6757C155.707 23.4807 154.661 28.2638 153.728 33.0645C153.156 36.0104 152.19 38.823 150.674 41.4791C149.3 43.8911 147.063 45.1756 144.148 45.5464C143.118 45.6775 142.275 45.1188 142.023 44.1351C141.895 43.6358 141.898 43.1108 141.843 42.5959C141.807 42.582 141.772 42.568 141.734 42.5541L141.737 42.5568Z" fill="#FED5F5"/>
</svg>
