<svg width="58" height="29" viewBox="0 0 58 29" fill="none" xmlns="http://www.w3.org/2000/svg">
<g clip-path="url(#clip0_1482_423)">
<path d="M4.96063 26.3895C3.74797 26.3654 2.83524 26.3063 1.95718 26.0573C0.788101 25.7262 0.21991 25.083 0.12484 24.0306C0.0740799 23.4717 0.265503 22.9789 0.53903 22.5108C1.62194 20.6574 2.71074 18.8065 3.81634 16.9647C4.61583 15.6324 5.44263 14.3145 6.39578 13.0684C6.87086 12.4475 7.42403 11.9071 8.11653 11.4875C8.95153 10.9815 9.82397 10.9038 10.7367 11.2653C11.3377 11.5033 11.9138 11.7801 12.4043 12.1978C13.2483 12.9168 13.6361 14.1647 13.2082 15.1354C13.0305 15.539 12.7008 15.8931 12.3995 16.2394C12.0922 16.5927 11.7496 16.9225 11.395 17.2365C11.1241 17.4765 11.0524 17.7304 11.1484 18.0596C11.3208 18.6531 11.4895 19.248 11.6268 19.8489C11.8076 20.6389 11.8827 21.4387 11.7558 22.2449C11.6516 22.9059 11.3006 23.4661 10.8878 23.9928C10.2012 24.8688 9.32587 25.5419 8.22156 25.9147C7.7135 26.0864 7.17273 26.1995 6.63582 26.2696C5.9851 26.3545 5.32253 26.3663 4.96062 26.3903L4.96063 26.3895ZM5.94725 21.485C6.33561 21.4378 6.72962 21.4145 7.11113 21.3379C7.81233 21.1973 8.42263 20.9119 8.77394 20.2892C9.0843 19.7391 9.00533 19.2842 8.48107 18.9056C8.19107 18.6961 7.8454 18.5527 7.528 18.3757C7.22193 18.205 6.91286 18.0383 6.61966 17.8502C6.52444 17.7893 6.44502 17.6763 6.40943 17.5724C6.25278 17.1131 6.44042 16.7316 6.77113 16.4001C7.18688 15.9832 7.70545 15.7027 8.25196 15.4552C8.71141 15.2471 9.15929 15.0165 9.6084 14.7895C9.85058 14.6672 9.95757 14.4695 9.9021 14.2177C9.85023 13.9831 9.66727 13.8353 9.42597 13.8037C9.21926 13.7768 8.98812 13.7804 8.79269 13.84C8.25516 14.0039 7.80595 14.3149 7.43909 14.705C6.08451 16.1455 5.02684 17.7448 4.46442 19.5981C4.36089 19.9392 4.32659 20.2846 4.47017 20.6292C4.72234 21.2349 5.14299 21.4736 5.9481 21.485L5.94725 21.485Z" fill="#122E70" style="fill:#122E70;fill:color(display-p3 0.0706 0.1804 0.4392);fill-opacity:1;"/>
<path d="M26.3495 4.05422C26.3317 5.45268 26.1076 6.82069 25.5148 8.11189C24.7903 9.68916 23.8378 11.135 22.4341 12.2854C21.4283 13.1098 20.2612 13.6858 18.9854 14.0618C18.3 14.2639 17.5981 14.4267 16.8936 14.5603C16.3805 14.6576 15.8485 14.6997 15.3338 14.5248C14.8843 14.3721 14.7175 14.1002 14.7714 13.6621C14.8537 12.9965 15.1009 12.3859 15.4089 11.7826C16.0215 10.5831 16.5857 9.36225 17.189 8.15828C18.1138 6.3133 19.0504 4.47352 19.9937 2.63695C20.1703 2.29279 20.405 1.97389 20.6094 1.64175C20.9425 1.10088 21.4732 0.79038 22.0732 0.556454C22.8693 0.24581 23.6949 0.233592 24.5058 0.443509C25.1992 0.622805 25.6313 1.12461 25.9645 1.69485C26.2928 2.25643 26.3205 2.87364 26.3542 3.48895C26.3643 3.67699 26.3521 3.86594 26.3499 4.05423L26.3495 4.05422ZM20.6327 10.1797C20.6251 10.666 20.7609 10.7609 21.1813 10.6433C21.2614 10.6208 21.3399 10.5892 21.413 10.5518C22.3916 10.0482 23.1239 9.32509 23.6386 8.41002C23.8873 7.96782 23.9195 7.5103 23.7529 7.03492C23.5588 6.48265 23.0494 6.21361 22.5176 6.39712C22.2355 6.49436 22.0189 6.67672 21.8831 6.91547C21.6193 7.37821 21.353 7.84326 21.1419 8.32729C20.8717 8.94662 20.6916 9.59353 20.6327 10.1797Z" fill="#122E70" style="fill:#122E70;fill:color(display-p3 0.0706 0.1804 0.4392);fill-opacity:1;"/>
<path d="M18.035 16.4144C18.4465 16.4514 18.8575 16.5025 19.27 16.5212C19.5905 16.5358 19.9132 16.5085 20.2347 16.5035C20.5301 16.499 20.8255 16.4918 21.1207 16.501C21.6444 16.517 21.9817 16.9529 21.7794 17.3984C21.4948 18.0249 21.138 18.6117 20.4468 18.95C19.9689 19.1842 19.4589 19.3027 18.9262 19.3694C18.3576 19.4403 17.7885 19.5168 17.228 19.6261C17.0349 19.6638 16.8409 19.782 16.6912 19.9076C16.4498 20.1104 16.519 20.348 16.8369 20.4039C17.1228 20.4544 17.4209 20.4671 17.7129 20.4614C18.0978 20.4536 18.4812 20.404 18.8662 20.3876C19.0032 20.3817 19.1461 20.4087 19.2801 20.4415C19.5868 20.5164 19.7407 20.6893 19.7493 20.9453C19.762 21.3177 19.631 21.5413 19.3005 21.6345C18.8589 21.7588 18.4078 21.855 17.963 21.9695C17.2147 22.1627 16.4672 22.3582 15.721 22.5585C15.4583 22.629 15.2543 22.7709 15.1855 23.0322C15.1136 23.3053 15.2962 23.5586 15.5985 23.5733C15.7763 23.5819 15.9674 23.5681 16.1336 23.5145C16.6424 23.3498 17.1357 23.1428 17.6473 22.9868C18.2803 22.7939 18.9251 22.7074 19.5874 22.9043C20.1635 23.0756 20.4578 23.4231 20.4738 23.9941C20.5032 25.0298 20.0287 25.8238 19.0753 26.3385C17.9905 26.9245 16.8511 27.4165 15.6229 27.6894C14.5145 27.936 13.4752 27.7126 12.5288 27.1468C11.8041 26.7136 11.5336 25.8952 11.8596 25.078C12.1231 24.4172 12.4425 23.775 12.7551 23.1315C13.5215 21.5544 14.2891 19.9776 15.0752 18.4088C15.3388 17.8828 15.7351 17.4329 16.1564 17.0028C16.5783 16.5723 17.1357 16.4801 17.7163 16.4323C17.8207 16.4237 17.9271 16.4331 18.0327 16.4343C18.0328 16.4276 18.0337 16.4206 18.0342 16.414L18.035 16.4144Z" fill="#122E70" style="fill:#122E70;fill:color(display-p3 0.0706 0.1804 0.4392);fill-opacity:1;"/>
<path d="M40.3573 26.0579C39.259 26.0456 38.653 25.6786 38.4312 24.9705C38.37 24.7752 38.3844 24.5445 38.4247 24.3406C38.6705 23.1065 38.9264 21.8736 39.1933 20.6432C39.4121 19.6346 39.6405 18.6276 39.8833 17.6239C40.0238 17.0426 40.2097 16.4739 40.5316 15.9489C40.9314 15.297 41.541 14.8886 42.2962 14.6787C43.2819 14.4049 44.3007 14.3093 45.3293 14.3232C45.5486 14.3261 45.7727 14.3786 45.9846 14.438C46.2402 14.5096 46.3615 14.6899 46.3706 14.9393C46.4051 15.8504 45.893 16.4228 44.8193 16.6612C44.3636 16.7624 43.8903 16.816 43.4543 16.9647C43.1366 17.0729 42.8558 17.2873 42.5816 17.4819C42.4432 17.58 42.3733 17.746 42.4567 17.92C42.5372 18.0886 42.6969 18.1599 42.8824 18.1522C43.3499 18.1325 43.8167 18.0998 44.2839 18.0703C44.6754 18.0454 45.0663 17.9982 45.4579 17.9955C46.0731 17.9915 46.4432 18.5137 46.2527 19.0765C46.1247 19.4544 45.8099 19.6455 45.4329 19.7338C44.9932 19.8367 44.5394 19.8859 44.0924 19.9629C43.3495 20.091 42.6009 20.2029 41.915 20.5198C41.6453 20.6446 41.4658 20.827 41.4836 21.1299C41.5023 21.4525 41.6655 21.5942 42.0039 21.5218C42.3092 21.4564 42.6078 21.3563 42.9001 21.2498C43.2912 21.1073 43.6691 20.9345 44.0602 20.7924C44.6541 20.5764 45.2025 20.8037 45.4621 21.3446C45.785 22.0166 45.7406 22.6592 45.3439 23.2955C44.6113 24.4691 43.5237 25.2281 42.1563 25.6718C41.5067 25.8825 40.8482 26.0548 40.3568 26.0579L40.3573 26.0579Z" fill="#122E70" style="fill:#122E70;fill:color(display-p3 0.0706 0.1804 0.4392);fill-opacity:1;"/>
<path d="M47.1517 15.8107C47.1781 15.4144 47.203 14.7388 47.2752 14.068C47.3341 13.5194 47.658 13.0866 48.1134 12.7433C48.8259 12.2059 49.6552 12.0155 50.5556 12.1194C51.2564 12.2003 51.7922 12.5736 52.2085 13.0783C52.7691 13.7582 53.2064 14.5073 53.5312 15.3076C53.8954 16.206 53.8306 17.0917 53.3572 17.94C53.1679 18.279 53.2061 18.5595 53.4794 18.8271C53.8559 19.1962 54.2303 19.5673 54.6145 19.9295C55.2303 20.5095 55.8589 21.078 56.4691 21.6634C56.6121 21.8006 56.7267 21.9746 56.8127 22.1494C56.9688 22.4672 56.8729 22.6916 56.5266 22.8283C55.8489 23.0965 55.1767 23.0601 54.5147 22.7628C53.9766 22.5211 53.5247 22.1754 53.0925 21.799C52.3339 21.1384 51.5797 20.4752 50.9478 19.7047C50.8249 19.5548 50.7083 19.3984 50.6109 19.2336C50.3402 18.7754 50.3858 18.472 50.7712 18.0899C51.0023 17.8609 51.18 17.6155 51.1694 17.2822C51.1591 16.9543 51.0043 16.7462 50.68 16.6582C50.3708 16.5747 50.0262 16.6739 49.8758 16.936C49.7741 17.1134 49.7059 17.3212 49.6838 17.521C49.6147 18.1414 49.7583 18.7482 49.8901 19.3517C50.0396 20.0363 50.228 20.7135 50.3648 21.4C50.4208 21.6815 50.4237 21.9831 50.3829 22.2675C50.3004 22.8432 49.78 23.0284 49.278 22.9954C48.5126 22.9454 48.1468 22.4518 47.9452 21.858C47.7575 21.3047 47.6249 20.7308 47.5236 20.1581C47.2857 18.8119 47.1915 17.4528 47.1517 15.8107Z" fill="#122E70" style="fill:#122E70;fill:color(display-p3 0.0706 0.1804 0.4392);fill-opacity:1;"/>
<path d="M34.1066 6.19711C33.9819 6.9974 33.8787 7.80144 33.7265 8.59712C33.5573 9.48364 33.3172 10.3553 32.9546 11.1947C32.4532 12.3549 31.6868 13.3011 30.4206 13.8268C30.1851 13.9246 29.9093 13.9946 29.6542 13.9882C29.0751 13.9739 28.8942 13.4886 28.9317 13.012C28.981 12.3866 29.3627 11.9147 29.7709 11.4567C30.2882 10.8761 30.8247 10.3086 31.1718 9.61743C31.431 9.10112 31.5718 8.56824 31.4147 7.99842C31.2186 7.28712 30.4541 6.97342 29.7433 7.32956C29.0937 7.65513 28.6702 8.15397 28.5185 8.83284C28.4767 9.02029 28.5009 9.19637 28.6769 9.32649C28.8935 9.48676 29.1066 9.47509 29.2875 9.28295C29.4021 9.16117 29.4999 9.02553 29.6057 8.89622C29.7346 8.73827 29.8636 8.57798 30.1198 8.63946C30.3199 8.6878 30.5115 8.93023 30.5267 9.16364C30.55 9.52997 30.4045 9.84362 30.1179 10.0861C29.7144 10.4274 29.2892 10.7473 28.8773 11.0802C28.0464 11.7514 27.5733 12.5724 27.6334 13.6205C27.6496 13.9055 27.4987 14.139 27.2723 14.317C26.6846 14.7788 25.9983 14.9817 25.228 14.9156C24.8701 14.885 24.6285 14.6518 24.6497 14.3137C24.6677 14.0275 24.7158 13.7269 24.8337 13.4649C25.3124 12.4021 25.824 11.3518 26.3221 10.2967C26.9886 8.88442 27.6488 7.46974 28.3207 6.05987C28.6772 5.3118 29.0778 4.5865 29.6305 3.93987C30.1361 3.34858 30.8443 3.07445 31.5893 2.87028C31.844 2.80047 32.1302 2.78064 32.3953 2.80354C32.754 2.83491 32.9494 3.12114 33.1546 3.35434C33.646 3.91346 33.8972 4.56911 33.9826 5.27956C34.0189 5.58197 34.0396 5.88576 34.0674 6.18925L34.1066 6.19789L34.1066 6.19711Z" fill="#122E70" style="fill:#122E70;fill:color(display-p3 0.0706 0.1804 0.4392);fill-opacity:1;"/>
<path d="M41.5022 9.42009C41.4398 8.65911 41.6892 7.93406 41.8297 7.19568C42.0097 6.25263 42.1813 5.30675 42.4064 4.37281C42.5486 3.78212 42.7369 3.19313 42.9861 2.63451C43.2752 1.98687 43.867 1.61572 44.6011 1.47941C45.4681 1.31842 46.3212 1.12601 47.1343 0.797586C47.5761 0.618924 48.0206 0.617663 48.3991 0.923522C48.8106 1.25632 48.8858 1.70567 48.7745 2.17403C48.5949 2.9315 48.1068 3.43938 47.2876 3.66186C46.7706 3.80218 46.2569 3.95229 45.7432 4.1028C45.5346 4.16414 45.3645 4.26771 45.3139 4.48671C45.2699 4.67648 45.3221 4.76732 45.5308 4.8099C46.0083 4.90707 46.461 4.78088 46.9139 4.66759C47.0422 4.63543 47.1673 4.59347 47.2953 4.56092C47.6753 4.46439 48.0287 4.56212 48.24 4.82C48.4579 5.08616 48.4777 5.4716 48.2876 5.7742C48.0329 6.18078 47.603 6.31308 47.1414 6.37393C46.4607 6.46357 45.7808 6.54735 45.1561 6.83726C44.9357 6.93949 44.7005 7.03647 44.6461 7.29098C44.602 7.49755 44.6369 7.69446 44.825 7.84151C45.0235 7.99689 45.238 7.96765 45.4553 7.88336C45.8813 7.7178 46.3032 7.54204 46.7342 7.38866C47.0022 7.29321 47.2819 7.22368 47.5748 7.32503C47.9893 7.46838 48.2441 7.84044 48.2559 8.33284C48.2654 8.72519 48.1552 9.09628 47.955 9.43276C47.2354 10.6424 46.2136 11.5733 44.865 12.1762C44.3674 12.3984 43.8233 12.4704 43.2687 12.4259C42.6562 12.3765 42.257 12.0364 41.9754 11.5652C41.5773 10.8989 41.4367 10.1796 41.501 9.42124L41.5022 9.42009Z" fill="#122E70" style="fill:#122E70;fill:color(display-p3 0.0706 0.1804 0.4392);fill-opacity:1;"/>
<path d="M24.9969 19.4676C24.8773 19.4733 24.8013 19.4682 24.7298 19.4818C23.6231 19.6898 23.2471 18.9393 23.4158 18.2466C23.5983 17.4977 24.0053 16.8405 24.7657 16.4716C25.1599 16.2803 25.6161 16.1745 26.058 16.0943C27.0182 15.9199 28.0094 15.8732 28.9259 15.5248C29.3586 15.3601 29.7597 15.1251 30.1896 14.9526C30.3733 14.8788 30.595 14.8559 30.7977 14.8606C30.9738 14.8645 31.0963 14.9838 31.137 15.1597C31.2317 15.5683 31.198 15.973 31.0761 16.3678C30.7218 17.5183 29.8301 18.1877 28.6656 18.5731C28.2488 18.7111 28.0052 18.8834 27.8538 19.3079C27.4028 20.5729 26.8848 21.8189 26.3567 23.0592C25.8555 24.2354 25.2845 25.3851 24.5652 26.4643C24.2261 26.9734 23.8715 27.4758 23.2947 27.7916C22.9006 28.0076 22.4775 28.0993 22.0224 27.9969C21.4978 27.8789 21.2564 27.5558 21.3936 27.071C21.4957 26.7107 21.6622 26.3633 21.8283 26.0222C22.7481 24.1326 23.6776 22.2474 24.6004 20.359C24.7379 20.0781 24.8548 19.7884 24.9969 19.4673L24.9969 19.4676Z" fill="#122E70" style="fill:#122E70;fill:color(display-p3 0.0706 0.1804 0.4392);fill-opacity:1;"/>
<path d="M32.5682 20.7771C32.2434 20.7734 31.9631 20.7898 31.6871 20.7633C31.0979 20.7066 30.8312 20.4169 30.7799 19.8709C30.681 18.8188 31.2328 18.1023 32.1462 17.5769C32.8423 17.1764 33.636 17.033 34.4265 16.8805C34.9799 16.7734 35.5367 16.6613 36.0696 16.4923C36.3719 16.3964 36.6312 16.1829 36.9081 16.0199C37.1904 15.854 37.45 15.651 37.822 15.6739C38.2213 15.6983 38.5254 15.8955 38.5775 16.2602C38.7432 17.4236 38.3888 18.428 37.4373 19.2244C36.9878 19.6007 36.4486 19.8365 35.8682 19.9866C35.6156 20.0518 35.4781 20.1858 35.4189 20.4195C35.1722 21.3954 34.9381 22.3746 34.6581 23.3423C34.47 23.9915 34.217 24.6247 33.9826 25.2616C33.8745 25.555 33.7601 25.8486 33.6175 26.1287C33.2291 26.8936 32.6871 27.5345 31.8181 27.874C31.3776 28.0461 30.9167 28.0468 30.4628 27.9038C30.0945 27.7875 29.9048 27.5259 30.0033 27.1754C30.1349 26.7077 30.307 26.2474 30.495 25.796C31.1484 24.2253 31.817 22.6603 32.4776 21.0921C32.5158 21.0011 32.5326 20.9028 32.5682 20.7778L32.5682 20.7771Z" fill="#122E70" style="fill:#122E70;fill:color(display-p3 0.0706 0.1804 0.4392);fill-opacity:1;"/>
<path d="M35.0792 12.5567C35.2041 12.0803 35.3307 11.6043 35.4535 11.1274C35.7959 9.79358 36.1518 8.46221 36.4718 7.1238C36.6225 6.49336 36.7256 5.85106 36.8097 5.20972C36.8619 4.81219 36.7447 4.7554 36.3169 4.78263C35.9689 4.8049 35.6189 4.78183 35.3085 4.59003C34.8616 4.31349 34.6898 3.81578 34.9019 3.36106C35.1382 2.85426 35.5983 2.62775 36.1502 2.50502C36.7148 2.37969 37.2765 2.24145 37.8362 2.0981C38.5798 1.90759 39.202 1.50552 39.8237 1.10502C40.0901 0.933372 40.3478 0.749908 40.7054 0.8094C41.2886 0.906196 41.7485 1.33408 41.8754 1.87856C41.9665 2.26949 41.8243 2.59333 41.5701 2.88662C41.1656 3.35285 40.6094 3.63689 40.0632 3.93041C39.8872 4.02494 39.6951 4.09662 39.5316 4.20535C39.449 4.26029 39.3726 4.37195 39.3639 4.46405C39.3248 4.86836 39.3543 5.28165 39.281 5.67972C39.0264 7.0634 38.7308 8.44077 38.4673 9.82319C38.3057 10.6715 38.0325 11.4815 37.6044 12.2463C37.216 12.9409 36.584 13.3108 35.7603 13.4176C35.4692 13.4553 35.231 13.2944 35.1598 13.0112C35.1238 12.8674 35.1247 12.7162 35.109 12.5679C35.0989 12.5639 35.0888 12.5599 35.0783 12.5559L35.0792 12.5567Z" fill="#122E70" style="fill:#122E70;fill:color(display-p3 0.0706 0.1804 0.4392);fill-opacity:1;"/>
</g>
<defs>
<clipPath id="clip0_1482_423">
<rect width="56.9039" height="27.8542" fill="white" style="fill:white;fill-opacity:1;" transform="translate(0.312683) rotate(0.643247)"/>
</clipPath>
</defs>
</svg>
