<svg width="166" height="22" viewBox="0 0 166 22" fill="none" xmlns="http://www.w3.org/2000/svg">
<path d="M20.0913 21.03C19.8113 21.03 19.5713 20.96 19.3713 20.82C19.1713 20.66 19.0313 20.45 18.9513 20.19L16.7313 12.66L14.5413 20.16C14.3813 20.68 14.0213 20.97 13.4613 21.03H8.3913C8.1113 21.03 7.8713 20.96 7.6713 20.82C7.4713 20.66 7.3313 20.45 7.2513 20.19L3.2013 6.42C3.0213 5.74 2.7813 5.2 2.4813 4.8C2.2013 4.38 1.9213 4.02 1.6413 3.72C1.3613 3.4 1.1213 3.1 0.921301 2.82C0.721301 2.52 0.621301 2.15 0.621301 1.71C0.621301 1.43 0.701301 1.2 0.861301 1.02C1.0213 0.819999 1.2313 0.689999 1.4913 0.629999L8.5713 0.6C8.8713 0.6 9.1313 0.71 9.3513 0.929999C9.5713 1.13 9.6813 1.39 9.6813 1.71C9.6813 2.11 9.6113 2.44 9.4713 2.7C9.3313 2.96 9.1913 3.24 9.0513 3.54C8.9313 3.82 8.8513 4.15 8.8113 4.53C8.7713 4.91 8.8513 5.41 9.0513 6.03L12.5313 17.79L15.3813 8.07L14.9013 6.42C14.7213 5.74 14.4813 5.2 14.1813 4.8C13.9013 4.38 13.6213 4.02 13.3413 3.72C13.0613 3.4 12.8213 3.1 12.6213 2.82C12.4213 2.52 12.3213 2.15 12.3213 1.71C12.3213 1.43 12.4013 1.2 12.5613 1.02C12.7413 0.819999 12.9513 0.689999 13.1913 0.629999L20.2713 0.6C20.5913 0.6 20.8513 0.71 21.0513 0.929999C21.2713 1.13 21.3813 1.39 21.3813 1.71C21.3813 2.11 21.3113 2.44 21.1713 2.7C21.0313 2.96 20.9013 3.24 20.7813 3.54C20.6613 3.82 20.5813 4.15 20.5413 4.53C20.5013 4.91 20.5713 5.41 20.7513 6.03L24.2313 17.79L27.5013 6.63C27.7413 5.83 27.8313 5.18 27.7713 4.68C27.7313 4.16 27.6213 3.73 27.4413 3.39C27.2813 3.05 27.1113 2.76 26.9313 2.52C26.7513 2.26 26.6613 1.99 26.6613 1.71C26.6613 1.39 26.7713 1.13 26.9913 0.929999C27.2113 0.71 27.4713 0.6 27.7713 0.6H31.9113C32.2313 0.6 32.4913 0.71 32.6913 0.929999C32.9113 1.13 33.0213 1.39 33.0213 1.71C33.0213 1.99 32.9213 2.23 32.7213 2.43C32.5213 2.63 32.2813 2.86 32.0013 3.12C31.7413 3.38 31.4713 3.7 31.1913 4.08C30.9113 4.44 30.6913 4.93 30.5313 5.55L26.2413 20.16C26.1813 20.4 26.0513 20.6 25.8513 20.76C25.6513 20.9 25.4313 20.99 25.1913 21.03H20.0913ZM44.5594 10.29C44.5594 10.93 44.3894 11.57 44.0494 12.21C43.7294 12.83 43.2194 13.4 42.5194 13.92C41.8394 14.44 40.9794 14.88 39.9394 15.24C38.8994 15.6 37.6794 15.82 36.2794 15.9C36.6994 16.62 37.2494 17.21 37.9294 17.67C38.6294 18.13 39.4594 18.36 40.4194 18.36C40.9994 18.36 41.5194 18.28 41.9794 18.12C42.4394 17.96 42.8394 17.78 43.1794 17.58C43.5594 17.36 43.9094 17.1 44.2294 16.8C44.3494 16.72 44.4694 16.73 44.5894 16.83C44.7094 16.91 44.7494 17.02 44.7094 17.16C44.3694 17.94 43.9194 18.63 43.3594 19.23C42.8794 19.75 42.2394 20.22 41.4394 20.64C40.6394 21.06 39.6494 21.27 38.4694 21.27C36.7294 21.27 35.2694 20.89 34.0894 20.13C32.9094 19.37 32.0194 18.42 31.4194 17.28C30.8194 16.14 30.5194 14.91 30.5194 13.59C30.5394 12.25 30.8494 11.01 31.4494 9.87C32.0494 8.73 32.9594 7.78 34.1794 7.02C35.3994 6.26 36.9394 5.88 38.7994 5.88C40.6794 5.88 42.1094 6.28 43.0894 7.08C44.0694 7.88 44.5594 8.95 44.5594 10.29ZM35.7694 14.79C36.7094 14.69 37.4794 14.43 38.0794 14.01C38.6994 13.57 39.1694 13.06 39.4894 12.48C39.8094 11.88 39.9894 11.27 40.0294 10.65C40.0694 10.01 39.9894 9.44 39.7894 8.94C39.6094 8.44 39.3094 8.06 38.8894 7.8C38.4894 7.54 37.9994 7.48 37.4194 7.62C36.8794 7.76 36.4394 8.08 36.0994 8.58C35.7594 9.06 35.5194 9.64 35.3794 10.32C35.2394 11 35.1994 11.74 35.2594 12.54C35.3194 13.32 35.4894 14.07 35.7694 14.79ZM45.3595 2.55C45.3395 2.23 45.4495 1.99 45.6895 1.83C45.9495 1.65 46.2295 1.51 46.5295 1.41L51.0295 0.209999C51.2695 0.149999 51.4895 0.199999 51.6895 0.359999C51.8895 0.499999 51.9895 0.699998 51.9895 0.959999V16.8H52.0195C52.0195 17.28 52.1095 17.66 52.2895 17.94C52.4895 18.22 52.6995 18.46 52.9195 18.66C53.1395 18.84 53.3395 19.02 53.5195 19.2C53.7195 19.38 53.8195 19.61 53.8195 19.89C53.8195 20.19 53.7095 20.45 53.4895 20.67C53.2895 20.89 53.0295 21 52.7095 21H46.4395C46.1395 21 45.8795 20.89 45.6595 20.67C45.4595 20.45 45.3595 20.19 45.3595 19.89C45.3595 19.61 45.4495 19.36 45.6295 19.14C45.8295 18.9 46.0395 18.67 46.2595 18.45C46.4795 18.21 46.6795 17.96 46.8595 17.7C47.0595 17.44 47.1595 17.14 47.1595 16.8V5.58C47.1595 5.26 47.0695 4.98 46.8895 4.74C46.7095 4.5 46.4995 4.27 46.2595 4.05C46.0395 3.83 45.8295 3.6 45.6295 3.36C45.4495 3.12 45.3595 2.85 45.3595 2.55ZM67.9338 8.79C67.9938 8.95 68.0338 9.1 68.0538 9.24C68.0738 9.38 68.0838 9.5 68.0838 9.6C68.0838 9.64 68.0838 9.67 68.0838 9.69C68.1038 9.71 68.1138 9.74 68.1138 9.78C68.1138 10.48 67.8738 11.08 67.3938 11.58C66.9338 12.06 66.3638 12.3 65.6838 12.3C65.1038 12.3 64.6438 12.18 64.3038 11.94C63.9838 11.68 63.7238 11.37 63.5238 11.01C63.3238 10.63 63.1638 10.23 63.0438 9.81C62.9238 9.39 62.7838 9.01 62.6238 8.67C62.4838 8.31 62.2938 8.03 62.0538 7.83C61.8138 7.63 61.4738 7.56 61.0338 7.62C60.4338 7.72 59.9338 8.05 59.5338 8.61C59.1538 9.15 58.8838 9.81 58.7238 10.59C58.5838 11.37 58.5738 12.21 58.6938 13.11C58.8338 13.99 59.1138 14.8 59.5338 15.54C59.9538 16.28 60.5338 16.9 61.2738 17.4C62.0138 17.9 62.9338 18.15 64.0338 18.15C64.6138 18.15 65.1338 18.08 65.5938 17.94C66.0538 17.8 66.4538 17.65 66.7938 17.49C67.1738 17.29 67.5238 17.06 67.8438 16.8C67.9638 16.72 68.0838 16.73 68.2038 16.83C68.3238 16.91 68.3638 17.02 68.3238 17.16C67.9838 17.94 67.5338 18.63 66.9738 19.23C66.4938 19.75 65.8538 20.22 65.0538 20.64C64.2538 21.06 63.2638 21.27 62.0838 21.27C60.3438 21.27 58.8838 20.89 57.7038 20.13C56.5238 19.37 55.6338 18.42 55.0338 17.28C54.4338 16.14 54.1338 14.91 54.1338 13.59C54.1538 12.25 54.4638 11.01 55.0638 9.87C55.6638 8.73 56.5738 7.78 57.7938 7.02C59.0138 6.26 60.5538 5.88 62.4138 5.88C63.2738 5.88 64.0238 5.98 64.6638 6.18C65.3038 6.36 65.8438 6.6 66.2838 6.9C66.7238 7.18 67.0738 7.49 67.3338 7.83C67.5938 8.17 67.7838 8.49 67.9038 8.79H67.9338ZM83.9739 13.59C83.9739 14.65 83.7739 15.65 83.3739 16.59C82.9939 17.51 82.4639 18.32 81.7839 19.02C81.1039 19.7 80.3039 20.25 79.3839 20.67C78.4839 21.07 77.5139 21.27 76.4739 21.27C75.4339 21.27 74.4539 21.07 73.5339 20.67C72.6339 20.27 71.8439 19.73 71.1639 19.05C70.4839 18.35 69.9439 17.54 69.5439 16.62C69.1439 15.68 68.9439 14.67 68.9439 13.59C68.9439 12.47 69.1439 11.44 69.5439 10.5C69.9439 9.54 70.4839 8.72 71.1639 8.04C71.8439 7.36 72.6339 6.83 73.5339 6.45C74.4539 6.07 75.4339 5.88 76.4739 5.88C77.5139 5.88 78.4839 6.07 79.3839 6.45C80.3039 6.83 81.1039 7.36 81.7839 8.04C82.4639 8.72 82.9939 9.54 83.3739 10.5C83.7739 11.44 83.9739 12.47 83.9739 13.59ZM77.1039 19.53C77.4239 19.53 77.7139 19.43 77.9739 19.23C78.2539 19.01 78.4739 18.66 78.6339 18.18C78.8139 17.7 78.9239 17.09 78.9639 16.35C79.0239 15.59 78.9939 14.67 78.8739 13.59C78.6539 11.51 78.2539 10 77.6739 9.06C77.0939 8.1 76.4739 7.62 75.8139 7.62C75.1539 7.62 74.6439 8.09 74.2839 9.03C73.9239 9.97 73.8539 11.49 74.0739 13.59C74.3139 15.75 74.7139 17.28 75.2739 18.18C75.8339 19.08 76.4439 19.53 77.1039 19.53ZM90.2744 5.91C90.5144 5.85 90.7344 5.9 90.9344 6.06C91.1344 6.2 91.2344 6.4 91.2344 6.66V7.65C91.3944 7.47 91.6044 7.28 91.8644 7.08C92.1444 6.86 92.4744 6.67 92.8544 6.51C93.2344 6.33 93.6744 6.18 94.1744 6.06C94.6744 5.94 95.2544 5.88 95.9144 5.88C96.7944 5.88 97.6144 6.1 98.3744 6.54C99.1544 6.96 99.7444 7.53 100.144 8.25C100.224 8.11 100.364 7.91 100.564 7.65C100.784 7.39 101.094 7.13 101.494 6.87C101.914 6.61 102.424 6.38 103.024 6.18C103.644 5.98 104.394 5.88 105.274 5.88C105.874 5.88 106.454 5.99 107.014 6.21C107.594 6.41 108.094 6.69 108.514 7.05C108.954 7.41 109.304 7.84 109.564 8.34C109.844 8.84 109.984 9.39 109.984 9.99V16.8C109.984 17.28 110.074 17.66 110.254 17.94C110.454 18.22 110.664 18.46 110.884 18.66C111.124 18.84 111.334 19.02 111.514 19.2C111.714 19.38 111.814 19.61 111.814 19.89C111.814 20.19 111.704 20.45 111.484 20.67C111.284 20.89 111.024 21 110.704 21H104.434C104.134 21 103.874 20.89 103.654 20.67C103.434 20.45 103.324 20.19 103.324 19.89C103.324 19.61 103.414 19.36 103.594 19.14C103.794 18.9 104.004 18.67 104.224 18.45C104.464 18.21 104.674 17.96 104.854 17.7C105.054 17.44 105.154 17.14 105.154 16.8V13.47C105.154 12.81 105.144 12.16 105.124 11.52C105.124 10.88 105.074 10.31 104.974 9.81C104.874 9.31 104.704 8.91 104.464 8.61C104.244 8.29 103.894 8.13 103.414 8.13C102.974 8.13 102.584 8.24 102.244 8.46C101.924 8.68 101.644 8.93 101.404 9.21C101.184 9.49 101.004 9.77 100.864 10.05C100.744 10.31 100.664 10.49 100.624 10.59V16.8C100.624 17.28 100.714 17.66 100.894 17.94C101.094 18.22 101.304 18.46 101.524 18.66C101.764 18.84 101.974 19.02 102.154 19.2C102.354 19.38 102.454 19.61 102.454 19.89C102.454 20.19 102.344 20.45 102.124 20.67C101.904 20.89 101.644 21 101.344 21H95.0744C94.7744 21 94.5144 20.89 94.2944 20.67C94.0744 20.45 93.9644 20.19 93.9644 19.89C93.9644 19.61 94.0544 19.36 94.2344 19.14C94.4344 18.9 94.6444 18.67 94.8644 18.45C95.1044 18.21 95.3144 17.96 95.4944 17.7C95.6944 17.44 95.7944 17.14 95.7944 16.8V13.47C95.7944 12.81 95.7844 12.16 95.7644 11.52C95.7644 10.88 95.7144 10.31 95.6144 9.81C95.5144 9.31 95.3444 8.91 95.1044 8.61C94.8844 8.29 94.5344 8.13 94.0544 8.13C93.5944 8.13 93.1844 8.26 92.8244 8.52C92.4844 8.76 92.1944 9.03 91.9544 9.33C91.7344 9.63 91.5644 9.92 91.4444 10.2C91.3244 10.46 91.2544 10.61 91.2344 10.65V16.8C91.2344 17.28 91.3244 17.66 91.5044 17.94C91.6844 18.2 91.8844 18.43 92.1044 18.63C92.3244 18.81 92.5244 18.99 92.7044 19.17C92.9044 19.33 93.0144 19.54 93.0344 19.8C93.0744 20.14 92.9644 20.43 92.7044 20.67C92.4644 20.89 92.1744 21 91.8344 21H85.8044C85.4844 21 85.1944 20.89 84.9344 20.67C84.6944 20.45 84.5744 20.19 84.5744 19.89C84.5744 19.61 84.6644 19.36 84.8444 19.14C85.0444 18.9 85.2544 18.67 85.4744 18.45C85.6944 18.21 85.8944 17.96 86.0744 17.7C86.2744 17.44 86.3744 17.14 86.3744 16.8V11.25C86.3744 10.93 86.2744 10.65 86.0744 10.41C85.8944 10.17 85.6944 9.94 85.4744 9.72C85.2544 9.48 85.0444 9.24 84.8444 9C84.6644 8.76 84.5744 8.49 84.5744 8.19C84.5744 7.89 84.6844 7.66 84.9044 7.5C85.1244 7.32 85.3844 7.18 85.6844 7.08L90.2744 5.91ZM126.169 10.29C126.169 10.93 125.999 11.57 125.659 12.21C125.339 12.83 124.829 13.4 124.129 13.92C123.449 14.44 122.589 14.88 121.549 15.24C120.509 15.6 119.289 15.82 117.889 15.9C118.309 16.62 118.859 17.21 119.539 17.67C120.239 18.13 121.069 18.36 122.029 18.36C122.609 18.36 123.129 18.28 123.589 18.12C124.049 17.96 124.449 17.78 124.789 17.58C125.169 17.36 125.519 17.1 125.839 16.8C125.959 16.72 126.079 16.73 126.199 16.83C126.319 16.91 126.359 17.02 126.319 17.16C125.979 17.94 125.529 18.63 124.969 19.23C124.489 19.75 123.849 20.22 123.049 20.64C122.249 21.06 121.259 21.27 120.079 21.27C118.339 21.27 116.879 20.89 115.699 20.13C114.519 19.37 113.629 18.42 113.029 17.28C112.429 16.14 112.129 14.91 112.129 13.59C112.149 12.25 112.459 11.01 113.059 9.87C113.659 8.73 114.569 7.78 115.789 7.02C117.009 6.26 118.549 5.88 120.409 5.88C122.289 5.88 123.719 6.28 124.699 7.08C125.679 7.88 126.169 8.95 126.169 10.29ZM117.379 14.79C118.319 14.69 119.089 14.43 119.689 14.01C120.309 13.57 120.779 13.06 121.099 12.48C121.419 11.88 121.599 11.27 121.639 10.65C121.679 10.01 121.599 9.44 121.399 8.94C121.219 8.44 120.919 8.06 120.499 7.8C120.099 7.54 119.609 7.48 119.029 7.62C118.489 7.76 118.049 8.08 117.709 8.58C117.369 9.06 117.129 9.64 116.989 10.32C116.849 11 116.809 11.74 116.869 12.54C116.929 13.32 117.099 14.07 117.379 14.79ZM135.272 7.26C134.992 7.26 134.772 7.2 134.612 7.08C134.452 6.94 134.332 6.77 134.252 6.57C134.192 6.37 134.152 6.16 134.132 5.94C134.132 5.7 134.132 5.49 134.132 5.31V1.53C134.132 1.25 134.222 1.02 134.402 0.839998C134.582 0.659998 134.812 0.569998 135.092 0.569998H150.752C151.032 0.569998 151.262 0.659998 151.442 0.839998C151.622 1.02 151.712 1.25 151.712 1.53V5.31C151.712 5.49 151.702 5.7 151.682 5.94C151.682 6.16 151.642 6.37 151.562 6.57C151.502 6.77 151.392 6.94 151.232 7.08C151.072 7.2 150.852 7.26 150.572 7.26C150.252 7.26 150.002 7.16 149.822 6.96C149.642 6.74 149.482 6.48 149.342 6.18C149.202 5.86 149.062 5.52 148.922 5.16C148.782 4.78 148.592 4.43 148.352 4.11C148.112 3.79 147.802 3.52 147.422 3.3C147.062 3.08 146.592 2.96 146.012 2.94C145.752 2.94 145.622 3.07 145.622 3.33V16.86C145.622 17.34 145.712 17.72 145.892 18C146.072 18.26 146.272 18.49 146.492 18.69C146.732 18.87 146.942 19.05 147.122 19.23C147.322 19.39 147.432 19.6 147.452 19.86C147.492 20.18 147.382 20.46 147.122 20.7C146.862 20.92 146.572 21.03 146.252 21.03H139.622C139.302 21.03 139.012 20.93 138.752 20.73C138.512 20.51 138.392 20.24 138.392 19.92C138.392 19.64 138.482 19.39 138.662 19.17C138.862 18.93 139.072 18.7 139.292 18.48C139.512 18.24 139.712 18 139.892 17.76C140.092 17.5 140.192 17.2 140.192 16.86V3.33C140.192 3.07 140.072 2.94 139.832 2.94C139.252 2.96 138.772 3.08 138.392 3.3C138.032 3.52 137.732 3.79 137.492 4.11C137.252 4.43 137.062 4.78 136.922 5.16C136.782 5.52 136.642 5.86 136.502 6.18C136.362 6.48 136.192 6.74 135.992 6.96C135.812 7.16 135.572 7.26 135.272 7.26ZM165.378 13.59C165.378 14.65 165.178 15.65 164.778 16.59C164.398 17.51 163.868 18.32 163.188 19.02C162.508 19.7 161.708 20.25 160.788 20.67C159.888 21.07 158.918 21.27 157.878 21.27C156.838 21.27 155.858 21.07 154.938 20.67C154.038 20.27 153.248 19.73 152.568 19.05C151.888 18.35 151.348 17.54 150.948 16.62C150.548 15.68 150.348 14.67 150.348 13.59C150.348 12.47 150.548 11.44 150.948 10.5C151.348 9.54 151.888 8.72 152.568 8.04C153.248 7.36 154.038 6.83 154.938 6.45C155.858 6.07 156.838 5.88 157.878 5.88C158.918 5.88 159.888 6.07 160.788 6.45C161.708 6.83 162.508 7.36 163.188 8.04C163.868 8.72 164.398 9.54 164.778 10.5C165.178 11.44 165.378 12.47 165.378 13.59ZM158.508 19.53C158.828 19.53 159.118 19.43 159.378 19.23C159.658 19.01 159.878 18.66 160.038 18.18C160.218 17.7 160.328 17.09 160.368 16.35C160.428 15.59 160.398 14.67 160.278 13.59C160.058 11.51 159.658 10 159.078 9.06C158.498 8.1 157.878 7.62 157.218 7.62C156.558 7.62 156.048 8.09 155.688 9.03C155.328 9.97 155.258 11.49 155.478 13.59C155.718 15.75 156.118 17.28 156.678 18.18C157.238 19.08 157.848 19.53 158.508 19.53Z" fill="#F6EAD5" style="fill:#F6EAD5;fill:color(display-p3 0.9636 0.9166 0.8370);fill-opacity:1;"/>
</svg>
